<svg width="33" height="33" viewBox="0 0 33 33" fill="none" xmlns="http://www.w3.org/2000/svg">
<path d="M29.0387 13.8885H27.9647V13.8332H15.9647V19.1665H23.5C22.4007 22.2712 19.4467 24.4998 15.9647 24.4998C11.5467 24.4998 7.96468 20.9178 7.96468 16.4998C7.96468 12.0818 11.5467 8.49984 15.9647 8.49984C18.004 8.49984 19.8593 9.26917 21.272 10.5258L25.0433 6.7545C22.662 4.53517 19.4767 3.1665 15.9647 3.1665C8.60135 3.1665 2.63135 9.1365 2.63135 16.4998C2.63135 23.8632 8.60135 29.8332 15.9647 29.8332C23.328 29.8332 29.298 23.8632 29.298 16.4998C29.298 15.6058 29.206 14.7332 29.0387 13.8885Z" fill="#ECA24B"/>
<path d="M4.17041 10.294L8.55108 13.5066C9.73641 10.572 12.6071 8.49996 15.9664 8.49996C18.0057 8.49996 19.8611 9.26929 21.2737 10.526L25.0451 6.75463C22.6637 4.53529 19.4784 3.16663 15.9664 3.16663C10.8451 3.16663 6.40374 6.05796 4.17041 10.294Z" fill="#FF3D00"/>
<path d="M15.9701 29.8333C19.4141 29.8333 22.5434 28.5153 24.9094 26.372L20.7828 22.88C19.3994 23.9327 17.7085 24.5018 15.9701 24.5C12.5021 24.5 9.55743 22.2886 8.4481 19.2026L4.1001 22.5526C6.30676 26.8706 10.7881 29.8333 15.9701 29.8333Z" fill="#20CB34"/>
<path d="M29.0413 13.8887H27.9673V13.8333H15.9673V19.1667H23.5026C22.9768 20.6443 22.0295 21.9355 20.778 22.8807L20.78 22.8793L24.9066 26.3713C24.6146 26.6367 29.3006 23.1667 29.3006 16.5C29.3006 15.606 29.2086 14.7333 29.0413 13.8887Z" fill="#1976D2"/>
</svg>
