<svg width="21" height="20" viewBox="0 0 21 20" fill="none" xmlns="http://www.w3.org/2000/svg">
<path fill-rule="evenodd" clip-rule="evenodd" d="M16.6044 4.66203C16.6044 5.32484 16.067 5.86203 15.4044 5.86203C14.7417 5.86203 14.2044 5.32484 14.2044 4.66203C14.2044 3.99922 14.7417 3.46203 15.4044 3.46203C16.0672 3.46203 16.6044 3.99922 16.6044 4.66203ZM10.0664 13.3333C8.22547 13.3333 6.73312 11.8409 6.73312 10C6.73312 8.15906 8.22547 6.66672 10.0664 6.66672C11.9073 6.66672 13.3997 8.15906 13.3997 10C13.3997 11.8409 11.9073 13.3333 10.0664 13.3333ZM10.0664 4.86484C7.23031 4.86484 4.93125 7.16391 4.93125 10C4.93125 12.8361 7.23031 15.1352 10.0664 15.1352C12.9025 15.1352 15.2016 12.8361 15.2016 10C15.2016 7.16391 12.9025 4.86484 10.0664 4.86484ZM10.0664 1.80187C12.7366 1.80187 13.0528 1.81203 14.1072 1.86016C15.0822 1.90469 15.6117 2.0675 15.9641 2.20453C16.4308 2.38594 16.7639 2.60266 17.1139 2.95266C17.4639 3.3025 17.6806 3.63563 17.862 4.1025C17.9989 4.45484 18.1619 4.98438 18.2064 5.95937C18.2545 7.01391 18.2647 7.33016 18.2647 10.0003C18.2647 12.6705 18.2545 12.9867 18.2064 14.0411C18.1619 15.0161 17.9991 15.5456 17.862 15.898C17.6806 16.3647 17.4639 16.6978 17.1139 17.0478C16.7641 17.3978 16.4309 17.6145 15.9641 17.7959C15.6117 17.9328 15.0822 18.0958 14.1072 18.1403C13.0528 18.1884 12.7366 18.1986 10.0664 18.1986C7.39609 18.1986 7.07984 18.1884 6.02547 18.1403C5.05047 18.0958 4.52094 17.933 4.16859 17.7959C3.70187 17.6145 3.36875 17.3978 3.01875 17.0478C2.66891 16.698 2.45203 16.3648 2.27063 15.898C2.13375 15.5456 1.97078 15.0161 1.92625 14.0411C1.87812 12.9866 1.86797 12.6703 1.86797 10.0003C1.86797 7.33016 1.87812 7.01391 1.92625 5.95937C1.97078 4.98438 2.13359 4.45484 2.27063 4.1025C2.45203 3.63578 2.66875 3.30266 3.01875 2.95266C3.36859 2.60266 3.70172 2.38594 4.16859 2.20453C4.52094 2.06766 5.05047 1.90469 6.02547 1.86016C7.08 1.81203 7.39625 1.80187 10.0664 1.80187ZM10.0664 0C7.35063 0 7.01 0.0115625 5.94344 0.0601562C4.87906 0.10875 4.15203 0.277812 3.51609 0.525C2.85844 0.780469 2.30078 1.1225 1.74484 1.67844C1.18891 2.23438 0.846875 2.79203 0.591406 3.44969C0.344219 4.08578 0.175156 4.81266 0.126562 5.87703C0.0779688 6.94359 0.0664062 7.28422 0.0664062 10C0.0664062 12.7158 0.0779688 13.0564 0.126562 14.123C0.175156 15.1873 0.344219 15.9142 0.591406 16.5503C0.846875 17.208 1.18891 17.7656 1.74484 18.3216C2.30078 18.8775 2.85844 19.2194 3.51609 19.475C4.15219 19.7222 4.87906 19.8913 5.94344 19.9398C7.01 19.9884 7.35063 20 10.0664 20C12.7822 20 13.1228 19.9884 14.1894 19.9398C15.2537 19.8913 15.9806 19.7222 16.6167 19.475C17.2744 19.2194 17.832 18.8775 18.388 18.3216C18.9439 17.7656 19.2858 17.208 19.5414 16.5503C19.7886 15.9142 19.9577 15.1873 20.0063 14.123C20.0548 13.0564 20.0664 12.7158 20.0664 10C20.0664 7.28422 20.0548 6.94359 20.0063 5.87703C19.9577 4.81266 19.7886 4.08578 19.5414 3.44969C19.2858 2.79203 18.9439 2.23438 18.388 1.67844C17.832 1.1225 17.2744 0.780625 16.6167 0.525C15.9806 0.277812 15.2537 0.10875 14.1894 0.0601562C13.1228 0.0115625 12.7822 0 10.0664 0Z" fill="#1C54B5"/>
</svg>
