<svg width="32" height="34" viewBox="0 0 32 34" fill="none" xmlns="http://www.w3.org/2000/svg">
<path d="M28.1062 7.56875C28.2028 7.70888 28.3006 7.84846 28.3922 7.99186C28.2989 7.84955 28.204 7.70779 28.1062 7.56875ZM26.3653 5.48048C26.2074 5.32236 26.0495 5.16424 25.885 5.01266C26.0484 5.16587 26.2085 5.32127 26.3653 5.48048ZM22.8233 16.8706C22.8211 11.7938 19.0815 9.3048 14.4882 8.73338C14.4854 10.1008 14.4893 11.4743 14.4882 12.8412C15.4528 12.9797 16.0176 12.9127 16.8922 13.5479C19.2206 15.2387 19.204 18.4965 16.8922 20.1922C15.9701 20.8683 15.4931 20.7641 14.4876 20.8988C14.4887 22.2663 14.4849 23.6397 14.4876 25.0067C19.0621 24.4385 22.8244 21.9244 22.8228 16.8695L22.8233 16.8706ZM25.8198 4.95105C25.8419 4.97122 25.8634 4.99194 25.885 5.01266C25.8629 4.99249 25.8419 4.97122 25.8198 4.95105ZM26.3653 5.48048C26.4929 5.6097 26.6204 5.73892 26.7435 5.87251C26.6199 5.73947 26.4934 5.60915 26.3653 5.48048ZM26.7518 5.88123C27.2399 6.41229 27.691 6.97716 28.1057 7.56875C27.6949 6.97389 27.2432 6.41011 26.7518 5.88123ZM14.4882 0.516602C14.4882 0.516602 14.4887 0.516602 14.4893 0.516602C14.4893 0.516602 14.4887 0.516602 14.4882 0.516602ZM14.4882 33.224C14.4882 33.224 14.4904 33.224 14.4915 33.224C14.4904 33.224 14.4893 33.224 14.4882 33.224ZM28.475 8.11454C28.4491 8.07255 28.4187 8.0333 28.3922 7.99186C28.4342 8.05565 28.4756 8.1189 28.5165 8.18324C28.5021 8.16034 28.4894 8.13744 28.475 8.11454ZM14.4887 4.62554C17.1269 4.96686 18.8976 5.08845 21.2293 6.58023C28.3602 11.1423 28.7644 21.1016 22.2441 26.4248C19.7269 28.4798 17.5791 28.7154 14.4887 29.1156C14.4937 30.4831 14.4854 31.8565 14.4887 33.2245C14.4899 33.2245 14.491 33.2245 14.4921 33.2245C27.4359 33.0511 35.3746 19.2642 28.517 8.18433C28.4762 8.11999 28.4347 8.05674 28.3928 7.99295C28.3011 7.84955 28.2034 7.70997 28.1068 7.56984C27.6916 6.97825 27.241 6.41338 26.7529 5.88232C26.7502 5.87959 26.7474 5.87632 26.7446 5.87359C26.6215 5.74001 26.4934 5.61133 26.3664 5.48157C26.2085 5.32345 26.0506 5.16533 25.8861 5.01375C25.8645 4.99358 25.843 4.97286 25.8209 4.95214C22.7775 2.18177 18.637 0.558585 14.4899 0.517691C14.4899 0.517691 14.4893 0.517691 14.4887 0.517691C14.486 1.88516 14.4943 3.25862 14.4887 4.62663V4.62554ZM14.4887 8.73338C14.4915 7.36592 14.4838 5.99246 14.4887 4.62554C12.0936 4.3153 10.7888 3.29024 10.399 1.0204C9.00984 1.36881 7.69133 1.89224 6.46723 2.56289C7.39483 6.56932 10.5741 8.24703 14.4887 8.73393V8.73338ZM14.4887 20.8993C14.486 18.2157 14.486 15.5249 14.4887 12.8412C9.23015 12.085 4.80804 10.0769 2.9396 5.15388C1.85685 6.19474 0.91931 7.3801 0.15625 8.67941C2.84242 13.2109 7.74986 16.4562 13.2105 16.8706C7.74434 17.2762 2.84021 20.5264 0.15625 25.0606C0.91931 26.3605 1.8574 27.5464 2.9407 28.5872C4.75173 23.8502 9.10481 21.6196 14.4887 20.8988V20.8993ZM14.4887 29.115C14.4838 27.7476 14.4915 26.3741 14.4887 25.0072C10.9992 25.4407 8.13525 26.6255 6.80569 30.139C6.7168 30.3735 6.59312 30.7644 6.47827 31.1848C7.69796 31.8516 9.0115 32.3723 10.3952 32.7202C10.7701 30.4389 12.0996 29.4253 14.4887 29.1156V29.115Z" fill="url(#paint0_linear_217_9510)"/>
<defs>
<linearGradient id="paint0_linear_217_9510" x1="0.155698" y1="16.8706" x2="31.0381" y2="16.8706" gradientUnits="userSpaceOnUse">
<stop stop-color="#77ADED"/>
<stop offset="0.54" stop-color="#0240AD"/>
<stop offset="0.64" stop-color="#0543AE"/>
<stop offset="0.73" stop-color="#0F4CB4"/>
<stop offset="0.8" stop-color="#205CBD"/>
<stop offset="0.87" stop-color="#3973CB"/>
<stop offset="0.94" stop-color="#5790DC"/>
<stop offset="1" stop-color="#77ADED"/>
</linearGradient>
</defs>
</svg>
