<svg width="33" height="33" viewBox="0 0 33 33" fill="none" xmlns="http://www.w3.org/2000/svg">
<path d="M2.25635 10.2177V22.5C2.25635 23.6366 2.70788 24.7267 3.5116 25.5304C4.31533 26.3342 5.40542 26.7857 6.54206 26.7857H25.3946C26.5313 26.7857 27.6214 26.3342 28.4251 25.5304C29.2288 24.7267 29.6803 23.6366 29.6803 22.5V10.2143L16.3569 17.0394C16.236 17.1014 16.102 17.1337 15.9661 17.1337C15.8301 17.1337 15.6962 17.1014 15.5752 17.0394L2.25635 10.2177Z" fill="#367AF2"/>
<path d="M2.25635 10.2177V22.5C2.25635 23.6366 2.70788 24.7267 3.5116 25.5304C4.31533 26.3342 5.40542 26.7857 6.54206 26.7857H25.3946C26.5313 26.7857 27.6214 26.3342 28.4251 25.5304C29.2288 24.7267 29.6803 23.6366 29.6803 22.5V10.2143L16.3569 17.0394C16.236 17.1014 16.102 17.1337 15.9661 17.1337C15.8301 17.1337 15.6962 17.1014 15.5752 17.0394L2.25635 10.2177Z" fill="url(#paint0_linear_105_3303)"/>
<path d="M2.25635 10.2177V22.5C2.25635 23.6366 2.70788 24.7267 3.5116 25.5304C4.31533 26.3342 5.40542 26.7857 6.54206 26.7857H25.3946C26.5313 26.7857 27.6214 26.3342 28.4251 25.5304C29.2288 24.7267 29.6803 23.6366 29.6803 22.5V10.2143L16.3569 17.0394C16.236 17.1014 16.102 17.1337 15.9661 17.1337C15.8301 17.1337 15.6962 17.1014 15.5752 17.0394L2.25635 10.2177Z" fill="url(#paint1_linear_105_3303)"/>
<path d="M2.25635 10.2177V22.5C2.25635 23.6366 2.70788 24.7267 3.5116 25.5304C4.31533 26.3342 5.40542 26.7857 6.54206 26.7857H25.3946C26.5313 26.7857 27.6214 26.3342 28.4251 25.5304C29.2288 24.7267 29.6803 23.6366 29.6803 22.5V10.2143L16.3569 17.0394C16.236 17.1014 16.102 17.1337 15.9661 17.1337C15.8301 17.1337 15.6962 17.1014 15.5752 17.0394L2.25635 10.2177Z" fill="url(#paint2_linear_105_3303)" fill-opacity="0.75"/>
<path d="M2.25635 10.2177V22.5C2.25635 23.6366 2.70788 24.7267 3.5116 25.5304C4.31533 26.3342 5.40542 26.7857 6.54206 26.7857H25.3946C26.5313 26.7857 27.6214 26.3342 28.4251 25.5304C29.2288 24.7267 29.6803 23.6366 29.6803 22.5V10.2143L16.3569 17.0394C16.236 17.1014 16.102 17.1337 15.9661 17.1337C15.8301 17.1337 15.6962 17.1014 15.5752 17.0394L2.25635 10.2177Z" fill="url(#paint3_linear_105_3303)" fill-opacity="0.7"/>
<path d="M2.25635 9.35713C2.25635 8.22048 2.70788 7.1304 3.5116 6.32667C4.31533 5.52294 5.40542 5.07141 6.54206 5.07141H25.3946C26.5313 5.07141 27.6214 5.52294 28.4251 6.32667C29.2288 7.1304 29.6803 8.22048 29.6803 9.35713V10.7286L16.3569 17.5537C16.236 17.6157 16.102 17.648 15.9661 17.648C15.8301 17.648 15.6962 17.6157 15.5752 17.5537L2.25635 10.732V9.35713Z" fill="url(#paint4_linear_105_3303)"/>
<defs>
<linearGradient id="paint0_linear_105_3303" x1="19.9661" y1="12.5" x2="26.4438" y2="27.5868" gradientUnits="userSpaceOnUse">
<stop offset="0.199" stop-color="#0094F0" stop-opacity="0"/>
<stop offset="0.431" stop-color="#0094F0"/>
</linearGradient>
<linearGradient id="paint1_linear_105_3303" x1="12.0506" y1="11.9583" x2="5.16606" y2="28.1045" gradientUnits="userSpaceOnUse">
<stop offset="0.191" stop-color="#0094F0" stop-opacity="0"/>
<stop offset="0.431" stop-color="#0094F0"/>
</linearGradient>
<linearGradient id="paint2_linear_105_3303" x1="23.1992" y1="20.1011" x2="24.3146" y2="28.3228" gradientUnits="userSpaceOnUse">
<stop stop-color="#2764E7" stop-opacity="0"/>
<stop offset="1" stop-color="#2764E7"/>
</linearGradient>
<linearGradient id="paint3_linear_105_3303" x1="20.2129" y1="12.2497" x2="22.2472" y2="28.9811" gradientUnits="userSpaceOnUse">
<stop offset="0.533" stop-color="#FF6CE8" stop-opacity="0"/>
<stop offset="1" stop-color="#FF6CE8"/>
</linearGradient>
<linearGradient id="paint4_linear_105_3303" x1="10.4038" y1="1.13427" x2="18.7969" y2="23.116" gradientUnits="userSpaceOnUse">
<stop stop-color="#6CE0FF"/>
<stop offset="0.462" stop-color="#29C3FF"/>
<stop offset="1" stop-color="#4894FE"/>
</linearGradient>
</defs>
</svg>
