<svg width="25" height="20" viewBox="0 0 25 20" fill="none" xmlns="http://www.w3.org/2000/svg">
<path fill-rule="evenodd" clip-rule="evenodd" d="M18.285 19.8357C19.7229 20.4431 20.2621 19.1705 20.2621 19.1705L24.0664 0.717022C24.0365 -0.526707 22.299 0.225315 22.299 0.225315L1.00064 8.29509C1.00064 8.29509 -0.0178449 8.64218 0.0720217 9.24958C0.161888 9.85698 0.970688 10.1462 0.970688 10.1462L6.33273 11.8817C6.33273 11.8817 7.95033 17.0012 8.27984 17.9846C8.57939 18.9391 8.84899 18.968 8.84899 18.968C9.14855 19.0837 9.41815 18.8812 9.41815 18.8812L12.893 15.8442L18.285 19.8357ZM19.213 3.98531C19.213 3.98531 19.9619 3.55145 19.9319 3.98531C19.9319 3.98531 20.0518 4.04315 19.6623 4.44809C19.3029 4.79518 10.8255 12.1419 9.68715 13.1253C9.59728 13.1831 9.53737 13.2699 9.53737 13.3856L9.20786 16.1044C9.14795 16.3937 8.75852 16.4226 8.66866 16.1623L7.26075 11.708C7.20084 11.5345 7.26075 11.332 7.44048 11.2163L19.213 3.98531Z" fill="#1C54B5"/>
</svg>
