<svg width="97" height="62" viewBox="0 0 97 62" fill="none" xmlns="http://www.w3.org/2000/svg">
<g clip-path="url(#clip0_976_17456)">
<path d="M60.6043 7.56878C60.7009 7.70891 60.7986 7.84849 60.8903 7.99189C60.797 7.84958 60.702 7.70782 60.6043 7.56878ZM58.8634 5.48051C58.7055 5.32239 58.5475 5.16427 58.383 5.01269C58.5464 5.1659 58.7066 5.3213 58.8634 5.48051ZM55.3214 16.8706C55.3192 11.7939 51.5795 9.30483 46.9862 8.73341C46.9835 10.1009 46.9873 11.4743 46.9862 12.8413C47.9508 12.9798 48.5157 12.9127 49.3903 13.5479C51.7187 15.2387 51.7021 18.4965 49.3903 20.1922C48.4682 20.8683 47.9911 20.7642 46.9857 20.8988C46.9868 22.2663 46.9829 23.6398 46.9857 25.0067C51.5602 24.4385 55.3225 21.9244 55.3208 16.8695L55.3214 16.8706ZM58.3179 4.95108C58.3399 4.97125 58.3615 4.99197 58.383 5.01269C58.3609 4.99252 58.3399 4.97125 58.3179 4.95108ZM58.8634 5.48051C58.9909 5.60973 59.1185 5.73895 59.2416 5.87254C59.1179 5.7395 58.9915 5.60918 58.8634 5.48051ZM59.2499 5.88126C59.738 6.41232 60.1891 6.97719 60.6037 7.56878C60.1929 6.97392 59.7413 6.41014 59.2499 5.88126ZM46.9862 0.516632C46.9862 0.516632 46.9868 0.516632 46.9873 0.516632C46.9873 0.516632 46.9868 0.516632 46.9862 0.516632ZM46.9862 33.224C46.9862 33.224 46.9884 33.224 46.9896 33.224C46.9884 33.224 46.9873 33.224 46.9862 33.224ZM60.9731 8.11457C60.9471 8.07258 60.9168 8.03333 60.8903 7.99189C60.9322 8.05568 60.9736 8.11893 61.0145 8.18327C61.0002 8.16037 60.9875 8.13747 60.9731 8.11457ZM46.9868 4.62557C49.6249 4.96689 51.3956 5.08848 53.7273 6.58026C60.8583 11.1423 61.2624 21.1017 54.7422 26.4249C52.225 28.4799 50.0771 28.7154 46.9868 29.1156C46.9918 30.4831 46.9835 31.8565 46.9868 33.2246C46.9879 33.2246 46.989 33.2246 46.9901 33.2246C59.934 33.0512 67.8727 19.2642 61.0151 8.18436C60.9742 8.12002 60.9328 8.05677 60.8908 7.99298C60.7992 7.84958 60.7014 7.71 60.6048 7.56987C60.1896 6.97829 59.7391 6.41341 59.251 5.88235C59.2482 5.87962 59.2454 5.87635 59.2427 5.87362C59.1196 5.74004 58.9915 5.61136 58.8645 5.4816C58.7066 5.32348 58.5486 5.16536 58.3841 5.01378C58.3626 4.99361 58.341 4.97289 58.319 4.95217C55.2755 2.1818 51.135 0.558615 46.9879 0.517722C46.9879 0.517722 46.9873 0.517722 46.9868 0.517722C46.984 1.88519 46.9923 3.25865 46.9868 4.62666V4.62557ZM46.9868 8.73341C46.9896 7.36595 46.9818 5.99249 46.9868 4.62557C44.5916 4.31533 43.2869 3.29027 42.8971 1.02043C41.5079 1.36884 40.1894 1.89228 38.9653 2.56292C39.8929 6.56935 43.0721 8.24706 46.9868 8.73396V8.73341ZM46.9868 20.8994C46.984 18.2157 46.984 15.5249 46.9868 12.8413C41.7282 12.085 37.3061 10.0769 35.4376 5.15391C34.3549 6.19477 33.4174 7.38013 32.6543 8.67944C35.3405 13.2109 40.2479 16.4562 45.7086 16.8706C40.2424 17.2763 35.3383 20.5264 32.6543 25.0607C33.4174 26.3605 34.3554 27.5464 35.4387 28.5873C37.2498 23.8502 41.6029 21.6196 46.9868 20.8988V20.8994ZM46.9868 29.1151C46.9818 27.7476 46.9896 26.3741 46.9868 25.0072C43.4973 25.4407 40.6333 26.6255 39.3037 30.139C39.2148 30.3735 39.0912 30.7644 38.9763 31.1848C40.196 31.8516 41.5095 32.3723 42.8932 32.7202C43.2681 30.4389 44.5977 29.4253 46.9868 29.1156V29.1151Z" fill="url(#paint0_linear_976_17456)"/>
<path d="M0.798828 43.0858H10.6413V45.6315H3.88309V48.8779H8.85513V51.3228H3.88309V54.5495H10.6413V57.0941H0.798828V43.0858ZM12.1437 43.0858H17.0749C18.617 43.0858 19.9637 43.3666 21.1138 43.9277C22.2633 44.4887 23.1495 45.2908 23.7723 46.3322C24.3946 47.3747 24.7055 48.6042 24.7055 50.0196C24.7055 52.3445 24.0186 54.1057 22.646 55.3008C21.2722 56.4966 19.3613 57.0941 16.9125 57.0941H12.1437V43.0858ZM17.0749 54.5495C18.522 54.5495 19.6318 54.1477 20.4032 53.3467C21.1745 52.5457 21.5594 51.4362 21.5594 50.0196C21.5594 49.1778 21.391 48.4243 21.0519 47.7558C20.714 47.0873 20.2204 46.5666 19.5705 46.1926C18.9218 45.8186 18.1571 45.6315 17.2781 45.6315H15.2274V54.5495H17.0743H17.0749ZM33.5132 42.2849H36.5776V48.5769C37.037 48.1102 37.5582 47.7591 38.1407 47.5257C38.7221 47.2913 39.345 47.174 40.0075 47.174C41.3332 47.174 42.3243 47.5257 42.9803 48.2263C43.6373 48.9281 43.9653 49.873 43.9653 51.0621V57.0941H40.9009V51.4029C40.9009 50.1609 40.3189 49.5393 39.1556 49.5393C38.641 49.5393 38.1606 49.6625 37.7139 49.9095C37.2672 50.1576 36.8885 50.5207 36.5776 51.0022V57.0941H33.5132V42.2849ZM47.1914 56.0625C46.123 55.1738 45.5886 53.9274 45.5886 52.3249C45.5886 50.7225 46.0651 49.4793 47.0192 48.5568C47.9733 47.6353 49.336 47.1735 51.1083 47.1735C52.2717 47.1735 53.2595 47.3883 54.0717 47.8152C54.8833 48.2427 55.499 48.8343 55.9175 49.5889C56.3371 50.3441 56.5475 51.1952 56.5475 52.1434V53.3658H48.5105C48.7269 54.5953 49.8909 55.2092 52.0011 55.2092C52.6234 55.2092 53.2661 55.1564 53.9292 55.05C54.5924 54.9426 55.1671 54.796 55.6547 54.6089V56.7332C55.1809 56.9328 54.5719 57.0936 53.8276 57.2135C53.0839 57.3346 52.3396 57.3946 51.5959 57.3946C49.7291 57.3946 48.2604 56.9507 47.192 56.062L47.1914 56.0625ZM53.6443 51.4024C53.6035 50.7617 53.36 50.2634 52.9138 49.909C52.4672 49.5556 51.8521 49.3784 51.068 49.3784C50.284 49.3784 49.6877 49.5584 49.241 49.9199C48.7943 50.2803 48.5514 50.7743 48.5105 51.4024H53.6449H53.6443ZM58.2508 42.2849H61.3152V57.0941H58.2508V42.2849ZM63.4459 47.475H66.4082V48.5371C67.396 47.6288 68.6129 47.174 70.0617 47.174C71.0765 47.174 71.9727 47.3845 72.7501 47.806C73.5286 48.2263 74.1338 48.8207 74.5672 49.5894C75.0001 50.3571 75.2159 51.2492 75.2159 52.2649C75.2159 53.2807 74.9995 54.1547 74.5672 54.9295C74.1338 55.7054 73.5286 56.3095 72.7501 56.7436C71.9727 57.1776 71.0765 57.3951 70.0617 57.3951C69.3721 57.3951 68.715 57.2948 68.0928 57.0941C67.4705 56.8946 66.9427 56.6067 66.5098 56.2327V61.4833H63.4454V47.475H63.4459ZM71.3101 54.2692C71.8302 53.7611 72.0914 53.0932 72.0914 52.2649C72.0914 51.4367 71.8302 50.7748 71.3101 50.2803C70.7889 49.7863 70.1158 49.5393 69.2904 49.5393C68.6543 49.5393 68.0861 49.7067 67.5859 50.0404C67.0857 50.374 66.7268 50.8151 66.5103 51.3626V53.1864C66.7135 53.7475 67.0685 54.1951 67.576 54.5288C68.0834 54.8636 68.6543 55.0299 69.2904 55.0299C70.1158 55.0299 70.7883 54.7769 71.3101 54.2687V54.2692ZM78.139 56.0625C77.0706 55.1738 76.5361 53.9274 76.5361 52.3249C76.5361 50.7225 77.0126 49.4793 77.9667 48.5568C78.9208 47.6353 80.2835 47.1735 82.0559 47.1735C83.2192 47.1735 84.207 47.3883 85.0192 47.8152C85.8309 48.2427 86.4465 48.8343 86.865 49.5889C87.2847 50.3441 87.495 51.1952 87.495 52.1434V53.3658H79.4581C79.6745 54.5953 80.8384 55.2092 82.9487 55.2092C83.571 55.2092 84.2137 55.1564 84.8768 55.05C85.5399 54.9426 86.1147 54.796 86.6022 54.6089V56.7332C86.1285 56.9328 85.5195 57.0936 84.7752 57.2135C84.0314 57.3346 83.2872 57.3946 82.5434 57.3946C80.6766 57.3946 79.2079 56.9507 78.1395 56.062L78.139 56.0625ZM84.5924 51.4024C84.5516 50.7617 84.3081 50.2634 83.8619 49.909C83.4153 49.5556 82.8002 49.3784 82.0161 49.3784C81.2321 49.3784 80.6358 49.5584 80.1891 49.9199C79.7424 50.2803 79.4995 50.7743 79.4586 51.4024H84.593H84.5924ZM89.1995 47.475H92.1617V48.8583C92.5543 48.3905 93.1015 48.0333 93.8055 47.7852C94.5094 47.5382 95.3078 47.415 96.2007 47.415V49.7192C95.2664 49.7192 94.4454 49.8588 93.7348 50.1407C93.0242 50.4215 92.5339 50.8484 92.2633 51.4231V57.0941H89.1989V47.475H89.1995Z" fill="url(#paint1_linear_976_17456)"/>
</g>
<defs>
<linearGradient id="paint0_linear_976_17456" x1="32.6537" y1="16.8706" x2="63.5361" y2="16.8706" gradientUnits="userSpaceOnUse">
<stop stop-color="#77ADED"/>
<stop offset="0.54" stop-color="#0240AD"/>
<stop offset="0.64" stop-color="#0543AE"/>
<stop offset="0.73" stop-color="#0F4CB4"/>
<stop offset="0.8" stop-color="#205CBD"/>
<stop offset="0.87" stop-color="#3973CB"/>
<stop offset="0.94" stop-color="#5790DC"/>
<stop offset="1" stop-color="#77ADED"/>
</linearGradient>
<linearGradient id="paint1_linear_976_17456" x1="0.798828" y1="51.8838" x2="96.2012" y2="51.8838" gradientUnits="userSpaceOnUse">
<stop stop-color="#77ADED"/>
<stop offset="0.54" stop-color="#0240AD"/>
<stop offset="0.64" stop-color="#0543AE"/>
<stop offset="0.73" stop-color="#0F4CB4"/>
<stop offset="0.8" stop-color="#205CBD"/>
<stop offset="0.87" stop-color="#3973CB"/>
<stop offset="0.94" stop-color="#5790DC"/>
<stop offset="1" stop-color="#77ADED"/>
</linearGradient>
<clipPath id="clip0_976_17456">
<rect width="96" height="62" fill="white" transform="translate(0.5)"/>
</clipPath>
</defs>
</svg>
