<svg width="33" height="37" viewBox="0 0 33 37" fill="none" xmlns="http://www.w3.org/2000/svg">
<g clip-path="url(#clip0_105_3298)">
<path d="M2.21657 4.74929C-0.0327148 6.99871 -0.0327148 10.6194 -0.0327148 17.86V19.14C-0.0327148 26.3806 -0.0327148 30.0014 2.21657 32.2506C4.466 34.5 8.08671 34.5 15.3273 34.5H16.6073C23.8479 34.5 27.4686 34.5 29.7179 32.2506C31.9673 30.0014 31.9673 26.3806 31.9673 19.14V17.86C31.9673 10.6194 31.9673 6.99864 29.7179 4.74929C27.4686 2.5 23.8479 2.5 16.6073 2.5H15.3273C8.08664 2.5 4.46593 2.5 2.21657 4.74929ZM5.36729 12.2334H9.02064C9.14064 18.3401 11.8339 20.9267 13.9673 21.4601V12.2334H17.4073V17.5C19.5139 17.2734 21.7273 14.8734 22.4739 12.2334H25.9139C25.6325 13.6025 25.0716 14.8989 24.2663 16.0414C23.4611 17.1839 22.4288 18.148 21.2339 18.8734C22.568 19.5357 23.7463 20.4736 24.691 21.6251C25.6357 22.7766 26.3252 24.1156 26.7139 25.5534H22.9273C22.5784 24.3044 21.8684 23.1864 20.8863 22.3395C19.9043 21.4927 18.6939 20.9548 17.4073 20.7934V25.5534H16.9939C9.70064 25.5534 5.54064 20.5534 5.36729 12.2334" fill="#205CBD"/>
</g>
<defs>
<clipPath id="clip0_105_3298">
<rect width="32" height="36.5714" fill="white" transform="translate(0.467285 0.214294)"/>
</clipPath>
</defs>
</svg>
