<svg width="25" height="14" viewBox="0 0 25 14" fill="none" xmlns="http://www.w3.org/2000/svg">
<path fill-rule="evenodd" clip-rule="evenodd" d="M23.5158 0.947948C23.6827 0.40158 23.5158 0 22.7217 0H20.0961C19.4284 0 19.1209 0.346868 18.9539 0.729474C18.9539 0.729474 17.6186 3.92608 15.7271 6.0025C15.1151 6.60358 14.837 6.79461 14.5032 6.79461C14.3362 6.79461 14.0947 6.60358 14.0947 6.05721V0.947948C14.0947 0.292159 13.9009 0 13.3445 0H9.21854C8.80145 0 8.55051 0.304316 8.55051 0.59279C8.55051 1.2145 9.49611 1.35782 9.59363 3.10634V6.90421C9.59363 7.73684 9.44059 7.88789 9.10677 7.88789C8.21668 7.88789 6.05168 4.67674 4.76738 1.00266C4.51569 0.288474 4.26326 0 3.59223 0H0.966616C0.216441 0 0.0664062 0.346868 0.0664062 0.729474C0.0664062 1.41253 0.956676 4.80053 4.21112 9.28126C6.38101 12.341 9.43759 14 12.2192 14C13.8884 14 14.0947 13.6316 14.0947 12.997V10.6842C14.0947 9.94737 14.2528 9.80037 14.7811 9.80037C15.1708 9.80037 15.8383 9.99158 17.3962 11.4669C19.1764 13.2153 19.4697 14 20.4712 14H23.0968C23.847 14 24.222 13.6316 24.0056 12.9045C23.7689 12.1798 22.919 11.1287 21.7911 9.88234C21.1791 9.17184 20.2611 8.40682 19.9832 8.02439C19.5937 7.53255 19.7049 7.31408 19.9832 6.87713C19.9832 6.87713 23.1819 2.45092 23.5158 0.948132V0.947948Z" fill="#1C54B5"/>
</svg>
