<svg width="21" height="20" viewBox="0 0 21 20" fill="none" xmlns="http://www.w3.org/2000/svg">
<path d="M17.1781 2.91892C15.3253 1.02703 12.764 0 10.1482 0C4.58957 0 0.120902 4.48649 0.175398 9.94595C0.175398 11.6757 0.665861 13.3514 1.4833 14.8649L0.0664062 20L5.35251 18.6486C6.8239 19.4595 8.45878 19.8378 10.0937 19.8378C15.5977 19.8378 20.0664 15.3514 20.0664 9.89189C20.0664 7.24324 19.031 4.75676 17.1781 2.91892ZM10.1482 18.1622C8.67676 18.1622 7.20537 17.7838 5.95196 17.027L5.62499 16.8649L2.46423 17.6757L3.28167 14.5946L3.06368 14.2703C0.665861 10.4324 1.81028 5.35135 5.73398 2.97297C9.65769 0.594595 14.7258 1.72973 17.1236 5.62162C19.5214 9.51351 18.377 14.5405 14.4533 16.9189C13.1999 17.7297 11.674 18.1622 10.1482 18.1622ZM14.9438 12.1622L14.3443 11.8919C14.3443 11.8919 13.4724 11.5135 12.9274 11.2432C12.8729 11.2432 12.8184 11.1892 12.764 11.1892C12.6005 11.1892 12.4915 11.2432 12.3825 11.2973C12.3825 11.2973 12.328 11.3514 11.565 12.2162C11.5105 12.3243 11.4016 12.3784 11.2926 12.3784H11.2381C11.1836 12.3784 11.0746 12.3243 11.0201 12.2703L10.7476 12.1622C10.1482 11.8919 9.60319 11.5676 9.16722 11.1351C9.05823 11.027 8.89474 10.9189 8.78575 10.8108C8.40428 10.4324 8.02281 10 7.75033 9.51351L7.69583 9.40541C7.64134 9.35135 7.64134 9.2973 7.58684 9.18919C7.58684 9.08108 7.58684 8.97297 7.64134 8.91892C7.64134 8.91892 7.85932 8.64865 8.02281 8.48649C8.1318 8.37838 8.1863 8.21622 8.29529 8.10811C8.40428 7.94595 8.45878 7.72973 8.40428 7.56757C8.34978 7.2973 7.69583 5.83784 7.53235 5.51351C7.42335 5.35135 7.31436 5.2973 7.15088 5.24324H6.98739C6.8784 5.24324 6.71491 5.24324 6.55142 5.24324C6.44243 5.24324 6.33344 5.2973 6.22444 5.2973L6.16995 5.35135C6.06096 5.40541 5.95196 5.51351 5.84297 5.56757C5.73398 5.67568 5.67949 5.78378 5.57049 5.89189C5.18902 6.37838 4.97104 6.97297 4.97104 7.56757C4.97104 8 5.08003 8.43243 5.24352 8.81081L5.29801 8.97297C5.78848 10 6.44243 10.9189 7.31436 11.7297L7.53235 11.9459C7.69583 12.1081 7.85932 12.2162 7.96831 12.3784C9.11273 13.3514 10.4206 14.0541 11.892 14.4324C12.0555 14.4865 12.2735 14.4865 12.437 14.5405C12.6005 14.5405 12.8184 14.5405 12.9819 14.5405C13.2544 14.5405 13.5814 14.4324 13.7994 14.3243C13.9629 14.2162 14.0719 14.2162 14.1808 14.1081L14.2898 14C14.3988 13.8919 14.5078 13.8378 14.6168 13.7297C14.7258 13.6216 14.8348 13.5135 14.8893 13.4054C14.9983 13.1892 15.0528 12.9189 15.1073 12.6486C15.1073 12.5405 15.1073 12.3784 15.1073 12.2703C15.1073 12.2703 15.0528 12.2162 14.9438 12.1622Z" fill="#1C54B5"/>
</svg>
