<svg width="32" height="34" viewBox="0 0 32 34" fill="none" xmlns="http://www.w3.org/2000/svg">
<path d="M28.5086 7.69821C28.6052 7.83833 28.7029 7.97791 28.7946 8.12131C28.7013 7.97901 28.6063 7.83724 28.5086 7.69821ZM26.7677 5.60993C26.6098 5.45181 26.4518 5.29369 26.2873 5.14212C26.4507 5.29533 26.6109 5.45072 26.7677 5.60993ZM23.2257 17C23.2235 11.9233 19.4838 9.43425 14.8905 8.86284C14.8878 10.2303 14.8916 11.6038 14.8905 12.9707C15.8551 13.1092 16.42 13.0421 17.2946 13.6773C19.6229 15.3681 19.6064 18.6259 17.2946 20.3216C16.3725 20.9977 15.8954 20.8936 14.89 21.0283C14.8911 22.3957 14.8872 23.7692 14.89 25.1361C19.4645 24.568 23.2268 22.0539 23.2251 16.9989L23.2257 17ZM26.2221 5.0805C26.2442 5.10068 26.2658 5.1214 26.2873 5.14212C26.2652 5.12194 26.2442 5.10068 26.2221 5.0805ZM26.7677 5.60993C26.8952 5.73915 27.0228 5.86838 27.1459 6.00196C27.0222 5.86892 26.8958 5.73861 26.7677 5.60993ZM27.1542 6.01068C27.6423 6.54175 28.0934 7.10662 28.508 7.69821C28.0972 7.10335 27.6456 6.53957 27.1542 6.01068ZM14.8905 0.646057C14.8905 0.646057 14.8911 0.646057 14.8916 0.646057C14.8916 0.646057 14.8911 0.646057 14.8905 0.646057ZM14.8905 33.3534C14.8905 33.3534 14.8927 33.3534 14.8938 33.3534C14.8927 33.3534 14.8916 33.3534 14.8905 33.3534ZM28.8774 8.24399C28.8514 8.20201 28.8211 8.16275 28.7946 8.12131C28.8365 8.18511 28.8779 8.24835 28.9188 8.31269C28.9044 8.28979 28.8918 8.26689 28.8774 8.24399ZM14.8911 4.75499C17.5292 5.09631 19.2999 5.2179 21.6316 6.70968C28.7626 11.2717 29.1667 21.2311 22.6465 26.5543C20.1293 28.6093 17.9814 28.8448 14.8911 29.245C14.8961 30.6125 14.8878 31.986 14.8911 33.354C14.8922 33.354 14.8933 33.354 14.8944 33.354C27.8383 33.1806 35.777 19.3936 28.9194 8.31378C28.8785 8.24944 28.8371 8.18619 28.7951 8.1224C28.7035 7.979 28.6057 7.83942 28.5091 7.6993C28.0939 7.10771 27.6434 6.54284 27.1553 6.01178C27.1525 6.00905 27.1497 6.00578 27.147 6.00305C27.0239 5.86947 26.8958 5.74079 26.7688 5.61102C26.6109 5.4529 26.4529 5.29478 26.2884 5.1432C26.2669 5.12303 26.2453 5.10231 26.2233 5.08159C23.1798 2.31122 19.0393 0.68804 14.8922 0.647147C14.8922 0.647147 14.8916 0.647147 14.8911 0.647147C14.8883 2.01461 14.8966 3.38807 14.8911 4.75608V4.75499ZM14.8911 8.86284C14.8939 7.49538 14.8861 6.12191 14.8911 4.75499C12.4959 4.44475 11.1912 3.4197 10.8014 1.14986C9.41219 1.49827 8.09367 2.0217 6.86957 2.69235C7.79717 6.69878 10.9764 8.37649 14.8911 8.86339V8.86284ZM14.8911 21.0288C14.8883 18.3451 14.8883 15.6544 14.8911 12.9707C9.63249 12.2144 5.21039 10.2063 3.34194 5.28333C2.25919 6.3242 1.32165 7.50955 0.558594 8.80886C3.24476 13.3404 8.1522 16.5856 13.6129 17C8.14668 17.4057 3.24256 20.6559 0.558594 25.1901C1.32165 26.4899 2.25974 27.6758 3.34304 28.7167C5.15407 23.9796 9.50716 21.7491 14.8911 21.0283V21.0288ZM14.8911 29.2445C14.8861 27.877 14.8939 26.5036 14.8911 25.1367C11.4016 25.5701 8.5376 26.7549 7.20804 30.2685C7.11914 30.5029 6.99546 30.8939 6.88062 31.3142C8.1003 31.9811 9.41385 32.5018 10.7975 32.8496C11.1724 30.5683 12.502 29.5547 14.8911 29.245V29.2445Z" fill="white"/>
</svg>
