<svg width="47" height="37" viewBox="0 0 47 37" fill="none" xmlns="http://www.w3.org/2000/svg">
<rect x="0.467285" width="46" height="37" rx="10" fill="white"/>
<path d="M9.85577 11.5455H7.74243C5.629 11.5455 3.81056 13.1182 3.81056 16.1654C3.81056 17.9839 4.69517 19.3601 6.2188 20.0481L3.36817 25.1596C3.2699 25.3071 3.36817 25.4545 3.51566 25.4545H4.84266C4.94093 25.4545 5.03921 25.4054 5.08834 25.3071L7.69329 20.2939H8.62704V25.3071C8.62704 25.3562 8.67626 25.4545 8.77453 25.4545H9.95412C10.0524 25.4545 10.1015 25.4054 10.1015 25.3071V11.742C10.0524 11.5946 10.0033 11.5455 9.85577 11.5455ZM8.62704 19.1144H7.8407C4.44949 19.1144 4.69517 12.7251 7.69329 12.7251H8.67626V19.1144H8.62704Z" fill="#FF0000"/>
<path d="M17.0164 13.0741H15.8369C15.7386 13.0741 15.6895 13.1233 15.6894 13.2216V16.7602H13.5268V13.2216C13.5268 13.1233 13.4777 13.0742 13.3794 13.0741H12.249C12.1507 13.0741 12.1016 13.1233 12.1016 13.2216V22.2158C12.1016 22.3141 12.1507 22.3632 12.249 22.3632H13.4286C13.5268 22.3632 13.576 22.3141 13.5761 22.2158V17.8907H15.7385V22.2158C15.7385 22.3141 15.7877 22.3632 15.886 22.3632H17.0655C17.1639 22.3632 17.213 22.3141 17.213 22.2158V13.2216C17.1639 13.1233 17.1147 13.0741 17.0164 13.0741ZM43.5567 21.1345C43.5567 21.0854 43.5075 21.0854 43.4584 21.0854C42.9669 21.0854 39.9688 22.5108 39.9688 17.7925C39.9688 15.7283 40.7552 12.8285 42.6229 14.5487C42.672 14.5978 42.7211 14.5978 42.7703 14.5978C42.8194 14.5978 42.8685 14.5487 42.9177 14.4504L43.4092 13.6148C43.4583 13.5657 43.4583 13.5166 43.4583 13.4674C43.4583 13.3692 43.3601 13.3199 43.2618 13.2708C40.018 11.6489 38.3469 14.6469 38.3469 18.1365C38.3469 22.6582 41.6399 23.2971 43.5075 21.921C43.6057 21.8718 43.6057 21.7735 43.6057 21.7244L43.5567 21.1345ZM35.4963 17.2518L37.7572 13.1725C37.8063 13.1233 37.7572 13.025 37.708 13.025H36.5776C36.2335 13.025 36.1353 13.1233 36.0369 13.3691C35.9385 13.6148 34.2676 17.1044 34.071 17.2518V13.1725C34.071 13.1232 34.0218 13.025 33.9727 13.025H32.744C32.6948 13.025 32.6457 13.0741 32.6457 13.1725V22.2158C32.6457 22.2649 32.6948 22.3632 32.744 22.3632H33.9727C34.071 22.3632 34.071 22.3141 34.071 22.2158V17.5466C34.2185 17.6449 36.2827 21.9209 36.3318 22.0683C36.4301 22.2648 36.6267 22.3632 36.8725 22.3632H38.1012C38.1995 22.3632 38.1995 22.3141 38.1503 22.2158L35.4963 17.2518ZM24.7327 21.1838H24.487C24.1922 21.1838 24.1429 21.0855 24.1429 20.8396V13.1725C24.1429 13.0742 24.0938 13.025 24.0447 13.025H20.2602C20.1619 13.025 20.1128 13.0741 20.1128 13.1725C20.1128 15.2367 20.1619 18.6771 18.7857 21.1837H18.3926C18.2943 21.1837 18.2451 21.2328 18.2451 21.3311V24.0342C18.2451 24.1325 18.3434 24.1817 18.3926 24.1817H19.2772C19.4738 24.1817 19.5721 24.0342 19.5721 23.8868V22.3632H23.5532V24.0342C23.5532 24.0834 23.6024 24.1817 23.7006 24.1817H24.6836C24.7819 24.1817 24.9294 24.0834 24.9294 23.8868V21.3311C24.8802 21.2328 24.8311 21.1837 24.7328 21.1837M22.6686 21.1837H19.9161C20.7025 19.9058 21.4397 17.8416 21.4397 14.2046H22.6684L22.6686 21.1837ZM28.5664 12.8284C26.5513 12.8284 25.6175 15.3349 25.6175 18.0872C25.6175 22.609 28.763 23.297 30.9255 21.97C31.0238 21.9209 31.0238 21.8718 31.0238 21.8226L30.8764 21.1837C30.8764 21.1345 30.8272 21.0854 30.729 21.0854C29.9425 21.0854 27.1903 22.4615 27.1903 17.989C28.1732 18.0873 28.1732 18.0873 31.1221 18.0873C31.073 15.8265 30.8273 12.8284 28.5664 12.8284ZM27.2394 16.9568C27.2394 13.3689 29.5985 12.6809 29.5985 16.8585C28.5664 16.8585 28.1241 16.8585 27.2394 16.9568Z" fill="black"/>
</svg>
