<svg width="20" height="20" viewBox="0 0 20 20" fill="none" xmlns="http://www.w3.org/2000/svg">
<path fill-rule="evenodd" clip-rule="evenodd" d="M15.8057 5.80836C15.9229 5.69132 16.0818 5.62558 16.2474 5.62558C16.413 5.62558 16.5719 5.69132 16.6891 5.80836L16.6907 5.81003L16.6932 5.81169L16.6991 5.81753L16.7157 5.83419L16.7674 5.89169C16.8091 5.93919 16.8674 6.00669 16.9349 6.09253C17.7049 7.09334 18.1224 8.32063 18.1224 9.58336C18.1224 10.8461 17.7049 12.0734 16.9349 13.0742C16.8651 13.1633 16.7917 13.2494 16.7149 13.3325L16.6982 13.3492L16.6932 13.355L16.6907 13.3567L16.6899 13.3575L16.2649 12.9342L16.6899 13.3592C16.5726 13.4764 16.4136 13.5423 16.2478 13.5423C16.082 13.5423 15.923 13.4764 15.8057 13.3592C15.6885 13.2419 15.6226 13.0829 15.6226 12.9171C15.6226 12.7513 15.6885 12.5923 15.8057 12.475L15.8049 12.4759L15.8032 12.4767L15.8074 12.4725L15.8349 12.4425C15.8616 12.4136 15.9002 12.3672 15.9507 12.3034C16.4779 11.6151 16.7939 10.7886 16.8601 9.92419C16.9264 9.05979 16.7402 8.19474 16.3241 7.43419C16.2154 7.23403 16.0906 7.04312 15.9507 6.86336C15.9055 6.80488 15.8577 6.74844 15.8074 6.69419L15.8032 6.69003C15.687 6.57258 15.6221 6.4139 15.6225 6.24868C15.623 6.08346 15.6889 5.92515 15.8057 5.80836ZM10.8616 2.83003C11.8307 2.19086 13.1224 2.88669 13.1224 4.04753V15.9525C13.1224 17.1142 11.8307 17.8092 10.8616 17.17L5.86156 13.8742C5.82774 13.8516 5.78805 13.8395 5.7474 13.8392H3.33073C2.72294 13.8392 2.14005 13.5978 1.71028 13.168C1.28051 12.7382 1.03906 12.1553 1.03906 11.5475V8.45253C1.03906 7.84474 1.28051 7.26185 1.71028 6.83207C2.14005 6.4023 2.72294 6.16086 3.33073 6.16086H5.7474C5.78825 6.16099 5.82824 6.14911 5.8624 6.12669L10.8616 2.83003Z" fill="black"/>
</svg>
