<svg width="33" height="33" viewBox="0 0 33 33" fill="none" xmlns="http://www.w3.org/2000/svg">
<path d="M16.599 29.3904C14.2878 29.3904 12.3212 28.5793 10.699 26.9571C9.07674 25.3349 8.26562 23.3682 8.26562 21.0571V8.72376C8.26562 7.05709 8.84918 5.64064 10.0163 4.47442C11.1834 3.3082 12.5998 2.72464 14.2656 2.72376C15.9314 2.72287 17.3483 3.30642 18.5163 4.47442C19.6843 5.64242 20.2674 7.05887 20.2656 8.72376V17.3904C20.2656 17.7682 20.1376 18.0851 19.8816 18.3411C19.6256 18.5971 19.3092 18.7246 18.9323 18.7238C18.5554 18.7229 18.239 18.5949 17.983 18.3398C17.727 18.0846 17.599 17.7682 17.599 17.3904V8.72376C17.5767 7.79042 17.2492 7.00153 16.6163 6.35709C15.9834 5.71264 15.1998 5.39042 14.2656 5.39042C13.3314 5.39042 12.5425 5.71264 11.899 6.35709C11.2554 7.00153 10.9332 7.79042 10.9323 8.72376V21.0571C10.9101 22.6349 11.4545 23.974 12.5656 25.0744C13.6767 26.1749 15.0212 26.7246 16.599 26.7238C16.9767 26.7238 17.3323 26.6846 17.6656 26.6064C17.999 26.5282 18.3212 26.434 18.6323 26.3238C18.9878 26.1904 19.3323 26.1962 19.6656 26.3411C19.999 26.486 20.2323 26.7358 20.3656 27.0904C20.499 27.4451 20.4936 27.7895 20.3496 28.1238C20.2056 28.458 19.9554 28.6913 19.599 28.8238C19.1323 29.0015 18.6492 29.1406 18.1496 29.2411C17.6501 29.3415 17.1332 29.3913 16.599 29.3904ZM23.599 28.0571C23.2212 28.0571 22.9047 27.9291 22.6496 27.6731C22.3945 27.4171 22.2665 27.1006 22.2656 26.7238V24.0571H19.599C19.2212 24.0571 18.9047 23.9291 18.6496 23.6731C18.3945 23.4171 18.2665 23.1006 18.2656 22.7238C18.2647 22.3469 18.3927 22.0304 18.6496 21.7744C18.9065 21.5184 19.223 21.3904 19.599 21.3904H22.2656V18.7238C22.2656 18.346 22.3936 18.0295 22.6496 17.7744C22.9056 17.5193 23.2221 17.3913 23.599 17.3904C23.9758 17.3895 24.2927 17.5175 24.5496 17.7744C24.8065 18.0313 24.9341 18.3478 24.9323 18.7238V21.3904H27.599C27.9767 21.3904 28.2936 21.5184 28.5496 21.7744C28.8056 22.0304 28.9332 22.3469 28.9323 22.7238C28.9314 23.1006 28.8034 23.4175 28.5483 23.6744C28.2932 23.9313 27.9767 24.0589 27.599 24.0571H24.9323V26.7238C24.9323 27.1015 24.8043 27.4184 24.5483 27.6744C24.2923 27.9304 23.9758 28.058 23.599 28.0571ZM14.2656 22.7238C13.8878 22.7238 13.5714 22.5958 13.3163 22.3398C13.0612 22.0838 12.9332 21.7673 12.9323 21.3904V9.39042C12.9323 9.01265 13.0603 8.6962 13.3163 8.44109C13.5723 8.18598 13.8887 8.05798 14.2656 8.05709C14.6425 8.0562 14.9594 8.1842 15.2163 8.44109C15.4732 8.69798 15.6007 9.01442 15.599 9.39042V21.3904C15.599 21.7682 15.471 22.0851 15.215 22.3411C14.959 22.5971 14.6425 22.7246 14.2656 22.7238ZM23.599 14.7238C23.2212 14.7238 22.9047 14.5958 22.6496 14.3398C22.3945 14.0838 22.2665 13.7673 22.2656 13.3904V9.39042C22.2656 9.01265 22.3936 8.6962 22.6496 8.44109C22.9056 8.18598 23.2221 8.05798 23.599 8.05709C23.9758 8.0562 24.2927 8.1842 24.5496 8.44109C24.8065 8.69798 24.9341 9.01442 24.9323 9.39042V13.3904C24.9323 13.7682 24.8043 14.0851 24.5483 14.3411C24.2923 14.5971 23.9758 14.7246 23.599 14.7238Z" fill="#949494"/>
</svg>
