<svg width="33" height="33" viewBox="0 0 33 33" fill="none" xmlns="http://www.w3.org/2000/svg">
<path d="M15.7161 29.3509C13.405 29.3509 11.4384 28.5398 9.81615 26.9175C8.19392 25.2953 7.38281 23.3286 7.38281 21.0175V8.68421C7.38281 7.01754 7.96637 5.60109 9.13348 4.43487C10.3006 3.26865 11.717 2.68509 13.3828 2.68421C15.0486 2.68332 16.4655 3.26687 17.6335 4.43487C18.8015 5.60287 19.3846 7.01932 19.3828 8.68421V17.3509C19.3828 17.7287 19.2548 18.0455 18.9988 18.3015C18.7428 18.5575 18.4264 18.6851 18.0495 18.6842C17.6726 18.6833 17.3561 18.5553 17.1001 18.3002C16.8441 18.0451 16.7161 17.7287 16.7161 17.3509V8.68421C16.6939 7.75087 16.3664 6.96198 15.7335 6.31754C15.1006 5.67309 14.317 5.35087 13.3828 5.35087C12.4486 5.35087 11.6597 5.67309 11.0161 6.31754C10.3726 6.96198 10.0504 7.75087 10.0495 8.68421V21.0175C10.0273 22.5953 10.5717 23.9344 11.6828 25.0349C12.7939 26.1353 14.1384 26.6851 15.7161 26.6842C16.0939 26.6842 16.4495 26.6451 16.7828 26.5669C17.1161 26.4886 17.4384 26.3944 17.7495 26.2842C18.105 26.1509 18.4495 26.1566 18.7828 26.3015C19.1161 26.4464 19.3495 26.6962 19.4828 27.0509C19.6161 27.4055 19.6108 27.75 19.4668 28.0842C19.3228 28.4184 19.0726 28.6518 18.7161 28.7842C18.2495 28.962 17.7664 29.1011 17.2668 29.2015C16.7673 29.302 16.2504 29.3518 15.7161 29.3509ZM22.7161 28.0175C22.3384 28.0175 22.0219 27.8895 21.7668 27.6335C21.5117 27.3775 21.3837 27.0611 21.3828 26.6842V24.0175H18.7161C18.3384 24.0175 18.0219 23.8895 17.7668 23.6335C17.5117 23.3775 17.3837 23.0611 17.3828 22.6842C17.3819 22.3073 17.5099 21.9909 17.7668 21.7349C18.0237 21.4789 18.3401 21.3509 18.7161 21.3509H21.3828V18.6842C21.3828 18.3064 21.5108 17.99 21.7668 17.7349C22.0228 17.4798 22.3393 17.3518 22.7161 17.3509C23.093 17.35 23.4099 17.478 23.6668 17.7349C23.9237 17.9918 24.0513 18.3082 24.0495 18.6842V21.3509H26.7161C27.0939 21.3509 27.4108 21.4789 27.6668 21.7349C27.9228 21.9909 28.0504 22.3073 28.0495 22.6842C28.0486 23.0611 27.9206 23.378 27.6655 23.6349C27.4104 23.8918 27.0939 24.0193 26.7161 24.0175H24.0495V26.6842C24.0495 27.062 23.9215 27.3789 23.6655 27.6349C23.4095 27.8909 23.093 28.0184 22.7161 28.0175ZM13.3828 22.6842C13.005 22.6842 12.6886 22.5562 12.4335 22.3002C12.1784 22.0442 12.0504 21.7278 12.0495 21.3509V9.35087C12.0495 8.97309 12.1775 8.65665 12.4335 8.40154C12.6895 8.14643 13.0059 8.01843 13.3828 8.01754C13.7597 8.01665 14.0766 8.14465 14.3335 8.40154C14.5904 8.65843 14.7179 8.97487 14.7161 9.35087V21.3509C14.7161 21.7287 14.5881 22.0455 14.3321 22.3015C14.0761 22.5575 13.7597 22.6851 13.3828 22.6842ZM22.7161 14.6842C22.3384 14.6842 22.0219 14.5562 21.7668 14.3002C21.5117 14.0442 21.3837 13.7278 21.3828 13.3509V9.35087C21.3828 8.97309 21.5108 8.65665 21.7668 8.40154C22.0228 8.14643 22.3393 8.01843 22.7161 8.01754C23.093 8.01665 23.4099 8.14465 23.6668 8.40154C23.9237 8.65843 24.0513 8.97487 24.0495 9.35087V13.3509C24.0495 13.7287 23.9215 14.0455 23.6655 14.3015C23.4095 14.5575 23.093 14.6851 22.7161 14.6842Z" fill="#252525"/>
</svg>
