<svg width="56" height="57" viewBox="0 0 56 57" fill="none" xmlns="http://www.w3.org/2000/svg">
<path d="M14.9163 10.8487C15.1353 9.64651 15.6457 8.51632 16.4026 7.557C17.1595 6.59768 18.14 5.83846 19.2582 5.34576C20.3765 4.85306 21.5984 4.64189 22.8172 4.73073C24.0359 4.81957 25.2143 5.2057 26.2493 5.85536V18.7097H24.3523C24.0823 17.6625 23.4569 16.7415 22.5831 16.1043C21.7093 15.4671 20.6413 15.1531 19.5617 15.216C18.4821 15.279 17.4578 15.715 16.664 16.4495C15.8702 17.184 15.3562 18.1714 15.2097 19.2429C15.0633 20.3144 15.2935 21.4035 15.8612 22.3241C16.4288 23.2446 17.2985 23.9395 18.3216 24.2898C19.3448 24.6402 20.4579 24.6243 21.4706 24.2449C22.4833 23.8654 23.3329 23.1461 23.874 22.2097H26.2493V49.638C25.0942 50.5029 23.7428 51.0678 22.3158 51.2823C20.8889 51.4968 19.431 51.3541 18.0728 50.8669C16.7145 50.3798 15.4983 49.5635 14.5329 48.4911C13.5675 47.4186 12.8831 46.1235 12.541 44.7217L12.5083 44.7147C10.8687 44.4125 9.33637 43.6877 8.0627 42.612C6.78903 41.5362 5.81813 40.1467 5.24596 38.5807C4.67378 37.0148 4.52015 35.3267 4.80023 33.6832C5.08031 32.0397 5.78442 30.4977 6.84296 29.2097H16.916C17.2254 29.2097 17.5221 29.3326 17.7409 29.5514C17.9597 29.7702 18.0826 30.0669 18.0826 30.3764V31.8814C17.0787 32.2875 16.2472 33.0301 15.7308 33.982C15.2143 34.934 15.045 36.0358 15.2519 37.0989C15.4588 38.1619 16.0289 39.1199 16.8646 39.8087C17.7004 40.4975 18.7496 40.8741 19.8326 40.8741C20.9156 40.8741 21.9649 40.4975 22.8006 39.8087C23.6363 39.1199 24.2065 38.1619 24.4134 37.0989C24.6202 36.0358 24.4509 34.934 23.9345 33.982C23.418 33.0301 22.5866 32.2875 21.5826 31.8814V30.3764C21.5826 29.1387 21.091 27.9517 20.2158 27.0765C19.3406 26.2014 18.1536 25.7097 16.916 25.7097H8.18463C7.40455 24.4908 6.99072 23.0735 6.99229 21.6264V20.238C6.99243 18.0952 7.75948 16.0233 9.15469 14.3969C10.5499 12.7706 12.4811 11.6974 14.599 11.3714L14.8276 11.3364L14.9163 10.8487ZM29.7493 49.638C30.9043 50.5029 32.2558 51.0678 33.6828 51.2823C35.1097 51.4968 36.5675 51.3541 37.9258 50.8669C39.284 50.3798 40.5003 49.5635 41.4657 48.4911C42.4311 47.4186 43.1155 46.1235 43.4576 44.7217L43.4903 44.7147C45.4045 44.3626 47.1661 43.4359 48.5406 42.0578C49.9151 40.6798 50.8372 38.9158 51.1843 37.0006C51.5314 35.0855 51.287 33.1101 50.4836 31.3373C49.6802 29.5645 48.3559 28.0785 46.687 27.077C48.1126 25.7004 48.9993 23.766 48.9993 21.6264V20.238C48.9992 18.0952 48.2321 16.0233 46.8369 14.3969C45.4417 12.7706 43.5105 11.6974 41.3926 11.3714L41.164 11.3364L41.0753 10.8487C40.8561 9.64738 40.346 8.51801 39.5897 7.55928C38.8333 6.60055 37.8537 5.84163 36.7364 5.34881C35.6191 4.856 34.3982 4.64429 33.1802 4.73218C31.9622 4.82007 30.7843 5.2049 29.7493 5.85303V36.2097H31.4993C33.1093 36.2097 34.416 34.903 34.416 33.293V28.8714C33.412 28.4652 32.5806 27.7226 32.0641 26.7707C31.5477 25.8188 31.3784 24.7169 31.5852 23.6538C31.7921 22.5908 32.3622 21.6328 33.198 20.944C34.0337 20.2552 35.083 19.8786 36.166 19.8786C37.2489 19.8786 38.2982 20.2552 39.1339 20.944C39.9697 21.6328 40.5398 22.5908 40.7467 23.6538C40.9536 24.7169 40.7843 25.8188 40.2678 26.7707C39.7514 27.7226 38.9199 28.4652 37.916 28.8714V33.293C37.916 34.9948 37.2399 36.6269 36.0366 37.8303C34.8332 39.0337 33.2011 39.7097 31.4993 39.7097H29.7493V49.638ZM18.666 19.8764C18.666 19.5669 18.7889 19.2702 19.0077 19.0514C19.2265 18.8326 19.5232 18.7097 19.8326 18.7097C20.142 18.7097 20.4388 18.8326 20.6576 19.0514C20.8764 19.2702 20.9993 19.5669 20.9993 19.8764C20.9993 20.1858 20.8764 20.4825 20.6576 20.7013C20.4388 20.9201 20.142 21.043 19.8326 21.043C19.5232 21.043 19.2265 20.9201 19.0077 20.7013C18.7889 20.4825 18.666 20.1858 18.666 19.8764ZM19.8326 35.043C19.5232 35.043 19.2265 35.1659 19.0077 35.3847C18.7889 35.6035 18.666 35.9003 18.666 36.2097C18.666 36.5191 18.7889 36.8159 19.0077 37.0347C19.2265 37.2534 19.5232 37.3764 19.8326 37.3764C20.142 37.3764 20.4388 37.2534 20.6576 37.0347C20.8764 36.8159 20.9993 36.5191 20.9993 36.2097C20.9993 35.9003 20.8764 35.6035 20.6576 35.3847C20.4388 35.1659 20.142 35.043 19.8326 35.043ZM34.9993 24.543C34.9993 24.2336 35.1222 23.9369 35.341 23.7181C35.5598 23.4993 35.8565 23.3764 36.166 23.3764C36.4754 23.3764 36.7721 23.4993 36.9909 23.7181C37.2097 23.9369 37.3326 24.2336 37.3326 24.543C37.3326 24.8524 37.2097 25.1492 36.9909 25.368C36.7721 25.5868 36.4754 25.7097 36.166 25.7097C35.8565 25.7097 35.5598 25.5868 35.341 25.368C35.1222 25.1492 34.9993 24.8524 34.9993 24.543Z" fill="#1C54B5"/>
</svg>
