<svg width="28" height="25" viewBox="0 0 28 25" fill="none" xmlns="http://www.w3.org/2000/svg">
<path fill-rule="evenodd" clip-rule="evenodd" d="M10.7613 24.0572H16.6866C20.848 24.0572 22.9293 24.0572 24.424 23.0772C25.0691 22.6547 25.6245 22.1092 26.0586 21.4719C27.0573 20.0052 27.0573 17.9612 27.0573 13.8759C27.0573 9.79053 27.0573 7.74652 26.0586 6.27986C25.6245 5.64251 25.0691 5.097 24.424 4.67452C23.464 4.04386 22.2613 3.81852 20.42 3.73852C19.5413 3.73852 18.7853 3.08519 18.6133 2.23852C18.4818 1.61835 18.1403 1.06257 17.6464 0.665126C17.1525 0.267678 16.5366 0.0529358 15.9026 0.0571909H11.5453C10.228 0.0571909 9.09329 0.970524 8.83462 2.23852C8.66262 3.08519 7.90662 3.73852 7.02796 3.73852C5.18796 3.81852 3.98529 4.04519 3.02396 4.67452C2.37934 5.09714 1.82432 5.64264 1.39062 6.27986C0.390625 7.74652 0.390625 9.78919 0.390625 13.8759C0.390625 17.9625 0.390625 20.0039 1.38929 21.4719C1.82129 22.1065 2.37596 22.6519 3.02396 23.0772C4.51862 24.0572 6.59996 24.0572 10.7613 24.0572ZM13.724 8.42119C10.656 8.42119 8.16796 10.8625 8.16796 13.8745C8.16796 16.8865 10.6573 19.3319 13.724 19.3319C16.7906 19.3319 19.28 16.8892 19.28 13.8772C19.28 10.8652 16.7906 8.42119 13.724 8.42119ZM13.724 10.6025C11.884 10.6025 10.3906 12.0679 10.3906 13.8759C10.3906 15.6825 11.884 17.1479 13.724 17.1479C15.564 17.1479 17.0573 15.6825 17.0573 13.8759C17.0573 12.0692 15.564 10.6025 13.724 10.6025ZM20.02 9.51186C20.02 8.90919 20.5173 8.42119 21.132 8.42119H22.612C23.2253 8.42119 23.724 8.90919 23.724 9.51186C23.7211 9.80372 23.6026 10.0825 23.3943 10.287C23.1861 10.4915 22.9052 10.605 22.6133 10.6025H21.132C20.9873 10.6039 20.8438 10.5768 20.7097 10.5228C20.5755 10.4687 20.4533 10.3888 20.3501 10.2875C20.2468 10.1862 20.1645 10.0656 20.1079 9.93252C20.0512 9.79943 20.0214 9.65649 20.02 9.51186Z" fill="black"/>
</svg>
