<svg width="27" height="25" viewBox="0 0 27 25" fill="none" xmlns="http://www.w3.org/2000/svg">
<path fill-rule="evenodd" clip-rule="evenodd" d="M10.5113 24.0572H16.4366C20.598 24.0572 22.6793 24.0572 24.174 23.0772C24.8191 22.6547 25.3745 22.1092 25.8086 21.4719C26.8073 20.0052 26.8073 17.9612 26.8073 13.8759C26.8073 9.79053 26.8073 7.74652 25.8086 6.27986C25.3745 5.64251 24.8191 5.097 24.174 4.67452C23.214 4.04386 22.0113 3.81852 20.17 3.73852C19.2913 3.73852 18.5353 3.08519 18.3633 2.23852C18.2318 1.61835 17.8903 1.06257 17.3964 0.665126C16.9025 0.267678 16.2866 0.0529358 15.6526 0.0571909H11.2953C9.97796 0.0571909 8.84329 0.970524 8.58462 2.23852C8.41262 3.08519 7.65662 3.73852 6.77796 3.73852C4.93796 3.81852 3.73529 4.04519 2.77396 4.67452C2.12934 5.09714 1.57432 5.64264 1.14062 6.27986C0.140625 7.74652 0.140625 9.78919 0.140625 13.8759C0.140625 17.9625 0.140625 20.0039 1.13929 21.4719C1.57129 22.1065 2.12596 22.6519 2.77396 23.0772C4.26862 24.0572 6.34996 24.0572 10.5113 24.0572ZM13.474 8.42119C10.406 8.42119 7.91796 10.8625 7.91796 13.8745C7.91796 16.8865 10.4073 19.3319 13.474 19.3319C16.5406 19.3319 19.03 16.8892 19.03 13.8772C19.03 10.8652 16.5406 8.42119 13.474 8.42119ZM13.474 10.6025C11.634 10.6025 10.1406 12.0679 10.1406 13.8759C10.1406 15.6825 11.634 17.1479 13.474 17.1479C15.314 17.1479 16.8073 15.6825 16.8073 13.8759C16.8073 12.0692 15.314 10.6025 13.474 10.6025ZM19.77 9.51186C19.77 8.90919 20.2673 8.42119 20.882 8.42119H22.362C22.9753 8.42119 23.474 8.90919 23.474 9.51186C23.4711 9.80372 23.3526 10.0825 23.1443 10.287C22.9361 10.4915 22.6552 10.605 22.3633 10.6025H20.882C20.7373 10.6039 20.5938 10.5768 20.4597 10.5228C20.3255 10.4687 20.2033 10.3888 20.1001 10.2875C19.9968 10.1862 19.9145 10.0656 19.8579 9.93252C19.8012 9.79943 19.7714 9.65649 19.77 9.51186Z" fill="#949494"/>
</svg>
