<svg width="56" height="57" viewBox="0 0 56 57" fill="none" xmlns="http://www.w3.org/2000/svg">
<path d="M6.08561 43.3357H20.7576L20.1246 47.6487H16.9146C15.8356 47.6487 14.9216 48.5387 14.9216 49.6407C14.9216 50.7427 15.8356 51.6557 16.9136 51.6557H39.0856C40.1636 51.6557 41.0776 50.7417 41.0776 49.6407C41.0739 49.1135 40.8629 48.609 40.4901 48.2362C40.1173 47.8634 39.6128 47.6524 39.0856 47.6487H35.8756L35.2416 43.3357H49.9136C53.9216 43.3357 55.9366 41.4137 55.9366 37.3127V10.4527C55.9366 6.35169 53.9216 4.42969 49.9136 4.42969H6.08561C2.07761 4.42969 0.599609 6.35169 0.599609 10.4527V37.3127C0.599609 41.4137 2.07761 43.3357 6.08561 43.3357ZM4.84361 33.0237C4.14061 33.0237 3.83561 32.7417 3.83561 32.0157V10.5227C3.83561 8.85769 4.56261 8.20269 6.15561 8.20269H49.8436C51.4606 8.20269 52.1636 8.85769 52.1636 10.5227V32.0147C52.1636 32.7407 51.8586 33.0227 51.1556 33.0227L4.84361 33.0237ZM27.9996 41.0157C26.8276 41.0157 25.8196 40.0307 25.8196 38.8357C25.8196 37.6877 26.8276 36.6797 27.9996 36.6797C29.1716 36.6797 30.1796 37.6877 30.1796 38.8357C30.1796 40.0307 29.1716 41.0157 27.9996 41.0157Z" fill="#1C54B5"/>
</svg>
