<svg width="20" height="21" viewBox="0 0 20 21" fill="none" xmlns="http://www.w3.org/2000/svg">
<path d="M15.8984 5.70459H7.22656C5.99687 5.70459 5 6.70146 5 7.93115V16.603C5 17.8327 5.99687 18.8296 7.22656 18.8296H15.8984C17.1281 18.8296 18.125 17.8327 18.125 16.603V7.93115C18.125 6.70146 17.1281 5.70459 15.8984 5.70459Z" stroke="black" stroke-width="1.5" stroke-linejoin="round"/>
<path d="M14.9805 5.70459L15 4.76709C14.9984 4.18744 14.7674 3.63199 14.3575 3.22212C13.9476 2.81224 13.3922 2.58124 12.8125 2.57959H4.375C3.71256 2.58155 3.07781 2.84557 2.6094 3.31399C2.14098 3.7824 1.87696 4.41715 1.875 5.07959V13.5171C1.87665 14.0967 2.10765 14.6522 2.51753 15.0621C2.9274 15.4719 3.48285 15.7029 4.0625 15.7046H5" stroke="black" stroke-width="1.5" stroke-linecap="round" stroke-linejoin="round"/>
</svg>
