<svg width="25" height="24" viewBox="0 0 25 24" fill="none" xmlns="http://www.w3.org/2000/svg">
<path fill-rule="evenodd" clip-rule="evenodd" d="M19.3222 6.45119C19.4077 6.36578 19.4756 6.26436 19.5219 6.15273C19.5682 6.04109 19.5921 5.92143 19.5922 5.80056C19.5923 5.6797 19.5685 5.56 19.5224 5.44831C19.4762 5.33661 19.4084 5.23511 19.323 5.14959C19.2376 5.06408 19.1362 4.99622 19.0246 4.9499C18.9129 4.90358 18.7933 4.8797 18.6724 4.87962C18.5515 4.87955 18.4318 4.90328 18.3201 4.94947C18.2085 4.99565 18.1069 5.06338 18.0214 5.14879L12.471 10.6992L6.92223 5.14879C6.74952 4.97609 6.51528 4.87906 6.27103 4.87906C6.02679 4.87906 5.79254 4.97609 5.61983 5.14879C5.44712 5.3215 5.3501 5.55575 5.3501 5.79999C5.3501 6.04424 5.44712 6.27849 5.61983 6.45119L11.1702 12L5.61983 17.5488C5.53432 17.6343 5.46648 17.7358 5.4202 17.8476C5.37392 17.9593 5.3501 18.0791 5.3501 18.2C5.3501 18.3209 5.37392 18.4407 5.4202 18.5524C5.46648 18.6642 5.53432 18.7657 5.61983 18.8512C5.79254 19.0239 6.02679 19.1209 6.27103 19.1209C6.39197 19.1209 6.51173 19.0971 6.62346 19.0508C6.73519 19.0045 6.83672 18.9367 6.92223 18.8512L12.471 13.3008L18.0214 18.8512C18.1941 19.0237 18.4283 19.1205 18.6724 19.1204C18.9165 19.1202 19.1505 19.0231 19.323 18.8504C19.4955 18.6777 19.5924 18.4435 19.5922 18.1994C19.5921 17.9553 19.4949 17.7213 19.3222 17.5488L13.7718 12L19.3222 6.45119Z" fill="#252525"/>
</svg>
