<svg width="20" height="16" viewBox="0 0 20 16" fill="none" xmlns="http://www.w3.org/2000/svg">
<path d="M16.9225 1.60264C15.6558 1.01215 14.2844 0.583563 12.8557 0.335938C12.8306 0.336295 12.8067 0.346565 12.7891 0.36451C12.6176 0.678804 12.4176 1.08834 12.2843 1.40263C10.769 1.1742 9.22804 1.1742 7.71275 1.40263C7.57941 1.07881 7.37941 0.678804 7.19845 0.36451C7.18893 0.345462 7.16035 0.335938 7.13178 0.335938C5.70317 0.583563 4.34123 1.01215 3.065 1.60264C3.05548 1.60264 3.04595 1.61216 3.03643 1.62169C0.445883 5.49798 -0.268423 9.26952 0.0839681 13.003C0.0839681 13.022 0.0934922 13.041 0.11254 13.0506C1.82687 14.3078 3.47454 15.0697 5.10315 15.5745C5.13173 15.584 5.1603 15.5745 5.16982 15.5554C5.55078 15.0316 5.89365 14.4792 6.1889 13.8982C6.20795 13.8601 6.1889 13.822 6.1508 13.8125C5.60793 13.603 5.09363 13.3553 4.58885 13.0696C4.55076 13.0506 4.55076 12.9934 4.57933 12.9649C4.68409 12.8887 4.78886 12.8029 4.89362 12.7268C4.91267 12.7077 4.94124 12.7077 4.96029 12.7172C8.23657 14.2125 11.77 14.2125 15.0082 12.7172C15.0272 12.7077 15.0558 12.7077 15.0749 12.7268C15.1796 12.8125 15.2844 12.8887 15.3891 12.9744C15.4272 13.003 15.4272 13.0601 15.3796 13.0791C14.8844 13.3744 14.3606 13.6125 13.8177 13.822C13.7796 13.8315 13.7701 13.8792 13.7796 13.9077C14.0844 14.4887 14.4272 15.0411 14.7987 15.5649C14.8272 15.5745 14.8558 15.584 14.8844 15.5745C16.5225 15.0697 18.1702 14.3078 19.8845 13.0506C19.9036 13.041 19.9131 13.022 19.9131 13.003C20.3321 8.68855 19.2178 4.94559 16.9606 1.62169C16.9511 1.61216 16.9416 1.60264 16.9225 1.60264ZM6.68415 10.7267C5.70317 10.7267 4.8841 9.82191 4.8841 8.7076C4.8841 7.59328 5.68412 6.68849 6.68415 6.68849C7.6937 6.68849 8.49372 7.6028 8.4842 8.7076C8.4842 9.82191 7.68418 10.7267 6.68415 10.7267ZM13.3224 10.7267C12.3414 10.7267 11.5224 9.82191 11.5224 8.7076C11.5224 7.59328 12.3224 6.68849 13.3224 6.68849C14.332 6.68849 15.132 7.6028 15.1225 8.7076C15.1225 9.82191 14.332 10.7267 13.3224 10.7267Z" fill="#1C54B5"/>
</svg>
