<svg width="251" height="250" viewBox="0 0 251 250" fill="none" xmlns="http://www.w3.org/2000/svg">
<g clip-path="url(#clip0_599_336)">
<path d="M178.189 107.031C179.612 105.557 180.4 103.584 180.382 101.536C180.364 99.4872 179.542 97.5277 178.094 96.0792C176.645 94.6307 174.686 93.8091 172.638 93.7913C170.589 93.7735 168.616 94.561 167.142 95.9841L110.111 153.015L84.3298 127.234C82.8563 125.811 80.8829 125.024 78.8345 125.041C76.786 125.059 74.8266 125.881 73.3781 127.329C71.9296 128.778 71.1079 130.737 71.0901 132.786C71.0723 134.834 71.8598 136.807 73.2829 138.281L104.533 169.531C105.998 170.996 107.985 171.818 110.056 171.818C112.128 171.818 114.115 170.996 115.58 169.531L178.08 107.031H178.189Z" fill="#1C54B5"/>
<path fill-rule="evenodd" clip-rule="evenodd" d="M125.066 0C56.0039 0 0.0664062 55.9375 0.0664062 125C0.0664062 194.062 56.0039 250 125.066 250C194.129 250 250.066 194.062 250.066 125C250.066 55.9375 194.129 0 125.066 0ZM15.6914 125C15.6914 64.5312 64.5977 15.625 125.066 15.625C185.535 15.625 234.441 64.5312 234.441 125C234.441 185.469 185.535 234.375 125.066 234.375C64.5977 234.375 15.6914 185.469 15.6914 125Z" fill="#1C54B5"/>
</g>
<defs>
<clipPath id="clip0_599_336">
<rect width="250" height="250" fill="white" transform="translate(0.0664062)"/>
</clipPath>
</defs>
</svg>
