<svg width="251" height="250" viewBox="0 0 251 250" fill="none" xmlns="http://www.w3.org/2000/svg">
<g clip-path="url(#clip0_599_3233)">
<path fill-rule="evenodd" clip-rule="evenodd" d="M125.066 0C56.0039 0 0.0664062 55.9375 0.0664062 125C0.0664062 194.062 56.0039 250 125.066 250C194.129 250 250.066 194.062 250.066 125C250.066 55.9375 194.129 0 125.066 0ZM15.6914 125C15.6914 64.5312 64.5977 15.625 125.066 15.625C185.535 15.625 234.441 64.5312 234.441 125C234.441 185.469 185.535 234.375 125.066 234.375C64.5977 234.375 15.6914 185.469 15.6914 125Z" fill="#D01212"/>
<path fill-rule="evenodd" clip-rule="evenodd" d="M177.5 82.5331C178.155 81.8794 178.674 81.1032 179.029 80.2488C179.383 79.3944 179.566 78.4786 179.566 77.5536C179.567 76.6285 179.385 75.7125 179.032 74.8576C178.678 74.0028 178.16 73.226 177.506 72.5715C176.853 71.917 176.076 71.3977 175.222 71.0432C174.368 70.6886 173.452 70.5059 172.527 70.5053C171.602 70.5047 170.686 70.6864 169.831 71.0398C168.976 71.3933 168.199 71.9117 167.545 72.5654L125.066 115.045L82.5985 72.5654C81.2767 71.2436 79.484 70.501 77.6147 70.501C75.7453 70.501 73.9526 71.2436 72.6308 72.5654C71.309 73.8872 70.5664 75.6799 70.5664 77.5492C70.5664 79.4185 71.309 81.2113 72.6308 82.5331L115.11 125L72.6308 167.467C71.9763 168.122 71.4571 168.899 71.1029 169.754C70.7487 170.609 70.5664 171.525 70.5664 172.451C70.5664 173.377 70.7487 174.293 71.1029 175.148C71.4571 176.003 71.9763 176.78 72.6308 177.435C73.9526 178.757 75.7453 179.499 77.6147 179.499C78.5403 179.499 79.4568 179.317 80.3119 178.963C81.167 178.608 81.944 178.089 82.5985 177.435L125.066 134.956L167.545 177.435C168.867 178.755 170.659 179.496 172.527 179.495C174.395 179.494 176.186 178.75 177.506 177.429C178.827 176.107 179.568 174.315 179.566 172.447C179.565 170.578 178.822 168.787 177.5 167.467L135.021 125L177.5 82.5331Z" fill="#D01212"/>
</g>
<defs>
<clipPath id="clip0_599_3233">
<rect width="250" height="250" fill="white" transform="translate(0.0664062)"/>
</clipPath>
</defs>
</svg>
