<svg width="28" height="28" viewBox="0 0 28 28" fill="none" xmlns="http://www.w3.org/2000/svg">
<path d="M9.55275 13.5396C10.1621 13.033 10.7767 13.033 11.4008 13.5543L11.5447 13.685L18.1927 20.333L18.3181 20.4436C18.5746 20.6425 18.8949 20.7409 19.2189 20.7205C19.5428 20.7001 19.8482 20.5621 20.0777 20.3326C20.3073 20.1031 20.4452 19.7977 20.4656 19.4738C20.486 19.1498 20.3876 18.8295 20.1887 18.573L20.0781 18.4476L18.3554 16.7236L18.7447 16.333L18.8861 16.2063C19.4954 15.6996 20.1101 15.6996 20.7341 16.221L20.8781 16.3516L27.1101 22.585C26.9839 23.8547 26.4066 25.037 25.4831 25.9175C24.5596 26.7979 23.351 27.3181 22.0767 27.3836L21.8021 27.3903H5.80208C4.47929 27.3902 3.20374 26.8986 2.22309 26.0108C1.24245 25.1231 0.626703 23.9026 0.495417 22.5863L9.41142 13.6663L9.55275 13.5396ZM21.8021 0.723633C23.1704 0.723632 24.4864 1.24955 25.4778 2.1926C26.4693 3.13565 27.0603 4.42369 27.1287 5.7903L27.1354 6.05697V18.837L22.7447 14.4476L22.5447 14.265C20.8701 12.805 18.7447 12.8023 17.0834 14.2423L16.8781 14.429L16.4687 14.837L13.4114 11.781L13.2114 11.5983C11.5367 10.1383 9.41142 10.1356 7.75008 11.5756L7.54475 11.7623L0.46875 18.837V6.05697C0.468749 4.68864 0.994664 3.37266 1.93771 2.38122C2.88077 1.38977 4.1688 0.798716 5.53542 0.7303L5.80208 0.723633H21.8021ZM17.8154 7.3903L17.6461 7.39963C17.322 7.43818 17.0233 7.59424 16.8066 7.83825C16.5899 8.08226 16.4702 8.39728 16.4702 8.72363C16.4702 9.04998 16.5899 9.365 16.8066 9.60901C17.0233 9.85302 17.322 10.0091 17.6461 10.0476L17.8021 10.057L17.9714 10.0476C18.2955 10.0091 18.5942 9.85302 18.8109 9.60901C19.0276 9.365 19.1473 9.04998 19.1473 8.72363C19.1473 8.39728 19.0276 8.08226 18.8109 7.83825C18.5942 7.59424 18.2955 7.43818 17.9714 7.39963L17.8154 7.3903Z" fill="#949494"/>
</svg>
