<svg width="353" height="115" viewBox="0 0 353 115" fill="none" xmlns="http://www.w3.org/2000/svg">
<path d="M97.135 95.5075C97.0917 95.5272 97.052 95.5281 97.0047 95.5452L97.0008 95.548L97.135 95.5075Z" fill="#77ADED"/>
<path d="M81.9839 91.9294C81.964 91.9224 81.9402 91.9154 81.9203 91.9084C81.9085 91.9111 81.9006 91.9113 81.8888 91.9141L81.9839 91.9294Z" fill="#77ADED"/>
<path d="M39.9908 106.118C39.5812 107.441 39.9197 108.482 42.054 108.852L42.5705 108.488L43.2789 108.596C44.8987 107.665 46.3548 106.685 45.5316 105.032C43.4766 104.853 41.7232 105.458 39.9908 106.118Z" fill="#77ADED"/>
<path d="M283.074 24.9732L283.078 24.9701L283.074 24.9732Z" fill="#77ADED"/>
<path d="M287.06 26.2149C286.478 26.0488 286.321 25.7655 286.599 25.3646C285.425 25.234 284.253 25.1062 283.079 24.9756C282.641 25.267 282.556 25.5972 282.734 25.9574C282.159 25.9705 281.65 26.1062 281.264 26.4626L281.355 26.4329C281.067 27.7031 280.772 28.9762 281.669 30.1835L282.152 30.1063L282.633 30.1726C283.564 29.8811 284.34 29.4386 285.089 28.9636L285.187 28.9227C285.518 28.5979 285.622 28.2451 285.618 27.8783L286.27 27.9269L286.887 27.4466L286.828 27.4976C287.487 27.1157 287.538 26.6841 287.06 26.2149Z" fill="#77ADED"/>
<path d="M128.851 89.8287C127.449 89.4054 126.75 90.5331 125.739 90.9727C124.224 92.1411 123.974 93.5429 124.111 95.0131C122.902 95.0488 122.332 95.5363 122.186 96.3287C123.436 96.3362 124.69 96.3435 125.944 96.3509C125.915 95.8935 125.89 95.4389 125.861 94.9843L126.52 94.6272L127.349 94.6332C128.064 93.6954 130.014 93.3779 130.015 92.0729C130.014 91.2066 130.08 90.1981 128.851 89.8287Z" fill="#77ADED"/>
<path d="M164.243 100.664C163.578 100.707 162.912 100.752 162.246 100.795C161.733 101.284 161.094 101.674 160.334 101.964L160.171 102.153C160.343 102.993 160.511 103.834 160.682 104.674C166.272 105.195 163.573 102.219 164.243 100.664Z" fill="#77ADED"/>
<path d="M346.771 47.5555C346.707 47.7501 346.747 47.9451 346.731 48.1386C344.885 48.6744 342.78 48.3746 340.976 49.053L341.199 49.2548C340.457 49.0951 339.716 48.9382 338.971 48.7785C337.667 48.2509 338.163 46.8905 336.749 46.415L336.893 46.4779C336.444 45.8977 335.706 45.4978 335.039 45.055L335.063 45.0738C334.539 44.6994 334.003 44.6813 333.456 45.0662C333.606 44.8586 333.721 44.638 333.731 44.3729C333.435 44.261 333.139 44.1464 332.847 44.0316C332.215 43.0031 330.219 43.352 329.447 42.4618L329.366 42.3947C328.161 41.8482 327.582 40.3439 325.457 41.1979C325.214 41.529 324.855 41.6199 324.379 41.4652C323.267 42.7513 319.649 36.4367 319.443 38.2237C318.721 38.4084 319.899 37.783 319.443 38.2237C318.306 38.8924 316.583 38.1897 315.491 38.9264C312.888 40.0726 310.128 42.5823 307.351 41.8095C302.811 40.7981 302.967 42.5811 299.921 40.8598L300.062 40.9559C299.958 40.5224 299.599 40.2408 299.118 40.0338C299.212 39.7861 299.179 39.5275 298.916 39.2548C298.189 38.4299 298.955 38.0676 299.897 37.7537C301.685 37.2496 301.287 35.857 302.246 35.0158L302.132 35.0515C302.766 34.8247 303.022 34.5071 302.95 34.1114C304.046 34.5252 305.114 34.374 306.155 33.6578C306.202 33.2401 306.261 32.8222 306.332 32.4067C305.989 32.1414 305.844 31.8274 305.896 31.4675C305.435 31.4449 304.997 31.3721 304.574 31.2438C303.768 31.9767 302.625 32.5765 302.455 33.5571C302.258 33.4539 302.066 33.3507 301.869 33.2476C300.635 33.0687 299.515 33.2101 298.556 33.8333C298.172 34.0904 297.729 34.1667 297.227 34.065C295.705 34.8886 294.46 35.913 293.106 36.8542C292.269 37.2429 292.028 37.6954 292.121 38.1816C292.042 38.2082 291.975 38.207 291.896 38.2364C289.151 39.041 287.281 37.6571 285.114 37.0166C284.59 36.4409 283.942 35.9728 282.977 35.7574C282.407 34.4378 281.074 33.6515 279.275 33.1875C278.766 32.581 278.141 32.0848 277.072 31.9795C276.438 30.8765 276.392 29.774 277.199 28.6713L276.966 28.1552L277.498 27.7513C278.238 25.9384 277.695 23.9891 278.83 22.2168C279.84 21.9511 280.541 21.5103 280.632 20.7191C282.233 20.2247 282.003 19.0601 282.549 18.1814C284.733 15.5604 285.899 12.601 288.348 10.0678L288.305 10.1378C291.755 9.05504 292.586 7.1821 291.724 4.80138C291.7 4.75504 291.659 4.72561 291.631 4.68212C292.762 4.12666 293.26 3.22144 293.753 2.31355C291.404 1.51169 289.145 2.26933 286.863 2.59438C286.786 2.70925 286.808 2.83566 286.759 2.95265C283.033 4.5024 278.655 2.13265 274.982 3.92123L274.517 4.27391L273.89 4.08952C271.579 4.77112 268.3 4.48977 267.847 7.02729C265.053 8.18337 265.743 10.6949 263.721 12.1507L263.761 12.1388C262.358 13.4095 259.429 12.2069 258.232 13.8151C256.248 14.1913 255.145 15.2013 254.381 16.4547C252.487 17.3337 249.985 17.65 248.932 19.3045C247.379 19.8419 247.686 21.0792 246.897 21.9056C246.163 22.2837 245.468 22.2608 244.817 21.8259L244.796 21.8071C242.717 18.6926 238.892 19.0748 235.025 19.5407C232.503 18.0668 228.936 17.6623 226.283 17.7723C222.307 17.9372 216.284 15.9828 214.691 20.9797C214.519 21.1133 214.379 21.2655 214.212 21.4017C213.666 21.3286 213.095 21.3223 212.455 21.4527C211.834 21.384 211.216 21.3981 210.598 21.4866C210.009 21.9498 209.419 22.4156 208.829 22.8815C208.741 23.2449 208.594 23.5959 208.387 23.9372C206.402 23.9299 205.103 24.4064 204.652 25.4789C204.486 25.5103 204.32 25.5306 204.158 25.5674C200.177 27.076 195.172 26.387 191.51 28.5781L191.656 28.5058C190.984 28.6673 190.321 28.8369 189.691 29.0719C189.73 28.8365 189.705 28.6026 189.538 28.3746C189.177 28.3746 188.816 28.3745 188.455 28.3744C188.457 28.1123 188.476 27.847 188.258 27.6616C186.69 26.4888 184.74 25.6171 182.744 24.7935C181.217 25.0599 179.838 25.1299 179.61 23.6756C178.491 20.1502 176.319 17.9621 170.579 20.3356C168.188 22.0206 164.187 21.5653 161.959 23.5748C161.908 23.6146 161.816 24.1602 161.816 24.1602C161.816 24.1602 161.516 23.6594 161.465 23.6854C163.68 21.7727 167.723 19.8019 161.369 18.0013C159.966 18.2622 159.496 19.1502 158.781 19.87C158.082 20.2722 157.481 20.7411 156.855 21.194C151.474 21.9399 146.512 25.5649 141.005 23.7919C136.723 22.4132 132.342 20.8161 128.456 18.7993C125.198 18.7603 123.412 20.5004 121.182 21.7044C121.416 21.2742 121.633 20.8389 121.584 20.3737C121.554 20.2806 121.477 20.2078 121.436 20.1232C121.918 20.0212 122.249 19.713 122.449 19.2256C122.04 19.4032 121.631 19.5808 121.222 19.7584C121.002 19.4765 120.723 19.2235 120.322 19.0229C119.55 19.0956 119.239 19.4034 119.221 19.8674C117.979 19.697 117.395 20.262 116.893 20.9163C116.041 21.195 115.428 21.6724 114.807 22.1418L114.385 22.4797L113.779 22.3473C111.485 22.6946 109.842 23.637 108.639 24.9886C108.203 24.9903 107.766 24.9836 107.335 25.0541C107.076 25.7884 106.442 26.2387 105.345 26.3464C104.709 27.4259 103.261 27.6657 101.887 27.9784C101.834 28.1093 101.849 28.2414 101.816 28.3745C101.601 28.3711 101.391 28.3621 101.169 28.381C96.4709 29.5528 90.7764 29.1305 87.5506 32.6525C87.3024 32.9341 87.134 33.2414 86.9298 33.5385C86.1077 33.502 85.2815 33.4628 84.4594 33.4264C83.7706 33.8973 83.0779 34.3682 82.3891 34.8391C83.438 36.272 84.3922 36.1703 85.3277 35.7352C84.3926 36.7773 83.3017 37.7622 82.8861 38.9884C78.5684 42.4718 72.2147 39.8794 67.331 41.6734L67.1623 41.7683C66.7843 42.3011 66.2089 42.6922 65.4282 42.9362L65.1817 43.1073C61.6422 44.468 57.2216 45.0375 54.898 42.9659C50.1417 38.7287 47.8298 42.1168 44.7727 43.9825L44.9658 43.9146C43.2037 44.8734 39.9437 43.5846 39.0617 45.8726L39.3528 46.1391L39.0768 46.4213C37.6214 47.8283 34.5797 46.3497 33.2644 48.0129C32.5451 48.3493 31.8038 48.3827 31.0444 48.1103C29.8206 47.247 28.6959 47.1594 27.7367 48.3814C25.4127 48.8315 23.6211 49.9014 21.8011 50.936L21.8877 50.9009C20.0264 51.862 16.675 51.5464 16.5015 53.9452C13.4577 54.5082 11.6651 55.9147 10.846 57.9805C9.75054 58.1599 9.08927 58.6191 8.95453 59.4085C6.80203 59.7057 5.57479 60.6248 5.19632 62.1122C4.1046 62.2805 3.46334 62.7448 3.2805 63.5104C2.78085 63.7204 2.25778 63.9531 2.20813 64.2439C0.841362 72.1601 9.53906 68.0639 14.1 68.9369C15.8898 68.9486 17.5841 68.7473 19.106 68.0781L19.0315 68.3171C18.988 68.914 18.9367 69.5112 18.8654 70.1004C18.5854 70.7745 18.4203 71.4349 18.4493 72.0798C17.8244 73.937 16.4282 75.5221 12.9616 76.3679C14.1213 78.179 16.2942 78.102 18.6046 77.7681C18.772 76.4372 20.5935 76.2551 21.8073 75.6481C24.5818 76.283 27.5247 76.4147 30.3367 76.9357C32.3979 80.1555 28.4445 82.0387 26.6873 84.4128L26.9338 84.2416C24.0317 87.875 20.3961 91.3429 21.3325 95.8298L21.1269 95.6717C21.3183 96.5006 21.9826 96.971 23.1979 97.0234C24.2946 99.2471 23.7033 101.981 27.032 103.525C28.0166 104.722 29.0735 104.598 30.1804 103.616C31.1239 103.376 31.7368 102.88 32.273 102.318C35.2274 100.088 39.4136 102.435 42.5483 100.879C44.1226 99.268 44.178 97.3051 45.2016 95.5436C45.3838 95.1367 45.5664 94.5587 45.9619 94.4945C46.4404 94.4146 46.7718 94.9065 46.7803 95.3257C47.2695 96.7492 47.7317 98.2092 49.0376 99.4045C45.1482 99.5537 45.7752 101.708 45.7496 103.574C48.824 103.148 52.2588 102.879 50.3922 100.259C54.4853 101.927 57.5945 101.657 58.8266 97.659C63.9958 96.4378 68.1114 92.3768 74.5778 94.6605L74.4249 94.5536C77.2263 95.5328 77.2328 93.9021 77.7974 92.7912L77.7352 92.2656L78.4496 92.0783C79.546 90.9691 80.7385 91.4634 81.93 91.9081C87.4559 90.2788 90.4354 92.9949 93.7841 95.1315C94.6886 95.7096 95.7634 96.0742 97.0145 95.5464C99.9046 94.4488 102.136 92.7592 104.687 91.3548C105.366 91.0083 106.013 91.035 106.621 91.4571L106.649 91.4868C108.198 92.729 109.585 94.3887 112.364 92.5046L112.286 92.5643C113.61 91.323 116.712 92.6485 117.619 90.8097C123.517 88.9484 127.463 83.9505 135.144 84.9181C134.762 85.0647 134.381 85.2113 133.999 85.3552C133.191 85.6605 132.354 86.0658 133.098 86.7138C133.708 87.2462 134.819 87.2541 135.584 86.809C136.109 86.5019 136.477 86.0658 136.865 85.6432C137.207 85.8423 137.579 86.0104 138.002 86.1388C139.779 86.308 141.482 86.3355 142.479 85.0079C144.037 84.5531 143.613 83.2163 144.699 82.5488L144.679 82.5686C150.861 81.4044 169.854 83.2687 170.553 81.0588L170.553 81.1155C170.553 81.1155 170.496 81.1344 170.553 81.0588C170.553 81.1344 170.553 81.1344 170.553 81.0588C170.553 81.1344 174.704 77.3703 178.557 79.3354C179.585 82.5525 178.556 82.5332 177.534 84.7543L177.671 84.6436C176.53 84.9399 175.891 85.5283 175.634 86.337L175.589 86.854C176.073 87.4334 176.18 88.0269 175.728 88.6359C174.474 89.6162 173.164 90.5592 171.83 91.489L171.951 91.4035C164.416 97.4432 164.693 98.9764 173.582 100.358C174.186 100.239 174.742 100.061 175.282 99.853C173.892 101.584 171.069 102.448 169.607 104.109C167.714 106.258 164.237 108.149 166.607 111.144C168.352 111.104 170.101 111.067 171.846 111.028C172.181 110.297 172.939 109.946 173.989 109.853C175.005 108.128 177.349 108.442 179.287 108.13C181.155 104.973 182.324 101.605 185.095 98.7166C185.222 98.7138 185.337 98.7249 185.464 98.7193C191.971 97.7409 193.483 92.8645 198.402 90.6503L198.378 90.6591C199.836 89.5499 201.435 90.1592 203.004 90.416L203.301 90.3734C208.236 90.5122 205.82 83.9235 211.485 85.6073C215.493 86.7991 220.084 86.0409 223.676 87.8187C223.506 88.0682 223.509 88.3909 223.663 88.7819L222.873 88.7309C223.067 89.5128 223.262 90.2947 223.46 91.0765C224.499 92.3882 225.217 93.9473 227.654 94.1733C227.387 94.5242 227.256 94.8941 227.256 95.2887C227.965 95.656 228.675 96.0206 229.389 96.3879C230.58 96.4436 231.768 96.5021 232.959 96.5578C233.745 95.5605 234.925 94.8826 236.558 95.1627C238.035 95.4161 239.195 95.3097 240.084 94.7156C240.31 94.6939 240.52 94.6974 240.754 94.6672C242.652 93.9564 244.679 93.364 245.761 91.9323C246.347 91.8473 246.863 91.6673 247.346 91.43C247.726 91.5842 248.106 91.7411 248.486 91.8952C248.801 91.957 249.126 91.9358 249.448 91.9506C250.066 92.6897 251.175 92.9791 252.206 93.3308L252.05 93.3068C254.521 94.2024 256.942 94.6412 259.142 92.9579C260.223 93.0354 260.733 92.3755 261.492 92.0354C262.142 92.0123 262.788 91.9866 263.439 91.9635C269.719 91.898 276.125 93.3912 282.215 90.9821L281.964 91.1423C283.161 91.104 283.753 90.5194 284.283 89.8811L284.158 89.9695C285.95 87.9202 289.579 87.4762 291.742 85.7523C295.512 84.9548 298.742 83.5929 301.124 81.3426L300.945 81.515C302.688 80.9511 302.296 79.6523 302.988 78.7261L302.843 78.8259C305.41 76.4886 309.684 75.5444 312.26 73.2152C313.361 73.113 313.952 72.5505 314.544 71.9852L314.446 72.0316C315.24 71.6549 315.881 71.1685 316.437 70.6261L316.39 70.6769C317.104 70.2523 317.781 69.8065 318.126 69.1779C319.026 68.9478 319.574 68.4001 320.288 68.0031L320.339 67.9881C322.734 66.5018 325.482 65.2888 327.538 63.5342C332.353 62.059 334.985 58.8098 338.973 56.6664L338.82 56.7803C339.767 56.5104 340.399 55.9939 340.963 55.4293L340.869 55.4645C342.606 54.8567 343.861 53.9287 344.681 52.7072C345.746 51.9932 347.707 52.2411 348.326 51.0434C348.858 50.8464 349.169 50.5414 349.332 50.1652C349.483 50.1783 349.61 50.1892 349.61 50.1892L350.531 50.0414C352.331 47.0015 350.004 46.9495 346.771 47.5555ZM105.338 29.1304C106.628 28.3617 107.922 27.5956 109.212 26.8269C109.209 26.6862 109.206 26.5428 109.203 26.4022C109.361 26.5255 109.475 26.6636 109.691 26.7636C111.054 27.0664 112.149 26.8815 113.15 26.5221C111.354 28.337 109.586 30.1926 105.338 29.1304ZM260.436 78.7556C260.444 78.7471 260.448 78.7388 260.456 78.7331C260.464 78.7412 260.452 78.7442 260.46 78.7523C260.448 78.7526 260.436 78.7556 260.436 78.7556ZM263.177 81.226L263.169 81.2262L263.181 81.2204L263.177 81.226ZM267.043 77.1652C267.01 77.1356 266.978 77.1032 266.949 77.0735C266.949 77.0652 266.953 77.0569 266.957 77.0457C267.001 77.0861 267.053 77.1235 267.098 77.1612C267.078 77.1616 267.058 77.1648 267.043 77.1652Z" fill="#77ADED"/>
<path d="M126.387 16.7358C126.974 17.1168 127.561 17.4979 128.151 17.8789C128.092 17.1052 127.622 16.6387 126.387 16.7358Z" fill="#77ADED"/>
<path d="M122.361 17.9667C122.342 18.4084 122.319 18.853 122.3 19.2947C122.966 18.8548 123.631 18.4149 124.293 17.9752C123.65 17.9732 123.007 17.9685 122.361 17.9667Z" fill="#77ADED"/>
</svg>
