<svg width="33" height="33" viewBox="0 0 33 33" fill="none" xmlns="http://www.w3.org/2000/svg">
<path d="M29.4673 9.5H24.2798C24.0923 9.5 23.8598 9.37875 23.6785 9.1875L21.9735 6.5125C21.2798 5.5 20.9673 5.5 19.8423 5.5H14.0923C12.9673 5.5 12.5923 5.5 11.9629 6.51312L10.256 9.1875C10.1173 9.33875 9.92229 9.5 9.71729 9.5V8.5C9.71729 8.36739 9.66461 8.24021 9.57084 8.14645C9.47707 8.05268 9.34989 8 9.21729 8H6.71729C6.58468 8 6.4575 8.05268 6.36373 8.14645C6.26996 8.24021 6.21729 8.36739 6.21729 8.5V9.5H4.46729C4.06946 9.5 3.68793 9.65804 3.40663 9.93934C3.12532 10.2206 2.96729 10.6022 2.96729 11V26C2.96729 26.3978 3.12532 26.7794 3.40663 27.0607C3.68793 27.342 4.06946 27.5 4.46729 27.5H29.4673C29.8651 27.5 30.2466 27.342 30.5279 27.0607C30.8092 26.7794 30.9673 26.3978 30.9673 26V11C30.9673 10.6022 30.8092 10.2206 30.5279 9.93934C30.2466 9.65804 29.8651 9.5 29.4673 9.5ZM17.2492 23.4937C16.0398 23.5506 14.8416 23.2402 13.8119 22.6034C12.7822 21.9666 11.9692 21.0333 11.4798 19.9259C10.9903 18.8186 10.8474 17.5891 11.0696 16.3989C11.2918 15.2088 11.8689 14.1138 12.725 13.2577C13.5811 12.4016 14.6761 11.8246 15.8662 11.6023C17.0563 11.3801 18.2858 11.5231 19.3932 12.0125C20.5005 12.5019 21.4339 13.3149 22.0707 14.3446C22.7075 15.3743 23.0178 16.5725 22.961 17.7819C22.8894 19.2736 22.2646 20.6852 21.2086 21.7413C20.1525 22.7973 18.7409 23.4221 17.2492 23.4937Z" fill="black"/>
<path d="M16.9673 13.1223C17.0898 13.1223 17.208 13.1672 17.2995 13.2486C17.391 13.33 17.4495 13.4421 17.4638 13.5638L17.4673 13.6223V21.6223C17.4671 21.7497 17.4183 21.8723 17.3309 21.9649C17.2434 22.0576 17.1238 22.1134 16.9966 22.1208C16.8694 22.1283 16.7441 22.0869 16.6464 22.0051C16.5486 21.9233 16.4858 21.8073 16.4708 21.6808L16.4673 21.6223V13.6223C16.4673 13.4896 16.52 13.3625 16.6137 13.2687C16.7075 13.1749 16.8347 13.1223 16.9673 13.1223ZM14.9673 14.6223C15.0999 14.6223 15.2271 14.6749 15.3208 14.7687C15.4146 14.8625 15.4673 14.9896 15.4673 15.1223V20.1223C15.4673 20.2549 15.4146 20.382 15.3208 20.4758C15.2271 20.5696 15.0999 20.6223 14.9673 20.6223C14.8347 20.6223 14.7075 20.5696 14.6137 20.4758C14.52 20.382 14.4673 20.2549 14.4673 20.1223V15.1223C14.4673 14.9896 14.52 14.8625 14.6137 14.7687C14.7075 14.6749 14.8347 14.6223 14.9673 14.6223ZM18.9673 14.6223C19.0999 14.6223 19.2271 14.6749 19.3208 14.7687C19.4146 14.8625 19.4673 14.9896 19.4673 15.1223V20.1223C19.4673 20.2549 19.4146 20.382 19.3208 20.4758C19.2271 20.5696 19.0999 20.6223 18.9673 20.6223C18.8347 20.6223 18.7075 20.5696 18.6137 20.4758C18.52 20.382 18.4673 20.2549 18.4673 20.1223V15.1223C18.4673 14.9896 18.52 14.8625 18.6137 14.7687C18.7075 14.6749 18.8347 14.6223 18.9673 14.6223ZM12.9673 16.1223C13.0999 16.1223 13.2271 16.1749 13.3208 16.2687C13.4146 16.3625 13.4673 16.4896 13.4673 16.6223V18.6223C13.4673 18.7549 13.4146 18.882 13.3208 18.9758C13.2271 19.0696 13.0999 19.1223 12.9673 19.1223C12.8347 19.1223 12.7075 19.0696 12.6137 18.9758C12.52 18.882 12.4673 18.7549 12.4673 18.6223V16.6223C12.4673 16.4896 12.52 16.3625 12.6137 16.2687C12.7075 16.1749 12.8347 16.1223 12.9673 16.1223ZM20.9673 16.1223C21.0898 16.1223 21.208 16.1672 21.2995 16.2486C21.391 16.33 21.4495 16.4421 21.4638 16.5638L21.4673 16.6223V18.6223C21.4671 18.7497 21.4183 18.8723 21.3309 18.9649C21.2434 19.0576 21.1238 19.1134 20.9966 19.1208C20.8694 19.1283 20.7441 19.0869 20.6464 19.0051C20.5486 18.9233 20.4858 18.8073 20.4708 18.6808L20.4673 18.6223V16.6223C20.4673 16.4896 20.52 16.3625 20.6137 16.2687C20.7075 16.1749 20.8347 16.1223 20.9673 16.1223Z" fill="black"/>
</svg>
