<svg width="33" height="32" viewBox="0 0 33 32" fill="none" xmlns="http://www.w3.org/2000/svg">
<path d="M16.5 2C13.7311 2 11.0243 2.82109 8.72202 4.35943C6.41973 5.89777 4.62532 8.08427 3.56569 10.6424C2.50607 13.2006 2.22882 16.0155 2.76901 18.7313C3.30921 21.447 4.64258 23.9416 6.60051 25.8995C8.55845 27.8574 11.053 29.1908 13.7687 29.731C16.4845 30.2712 19.2994 29.9939 21.8576 28.9343C24.4157 27.8747 26.6022 26.0803 28.1406 23.778C29.6789 21.4757 30.5 18.7689 30.5 16C30.4958 12.2883 29.0194 8.72977 26.3948 6.10518C23.7702 3.48059 20.2117 2.00423 16.5 2ZM4.52001 16.394L5.85801 16.84L7.50001 19.303V20.586C7.50006 20.8512 7.60546 21.1055 7.79301 21.293L10.5 24V26.377C8.73828 25.3569 7.26505 23.9053 6.21891 22.1589C5.17278 20.4125 4.58814 18.4286 4.52001 16.394ZM16.5 28C15.6349 27.998 14.7726 27.9024 13.928 27.715L14.5 26L16.305 21.488C16.3652 21.3374 16.3877 21.1743 16.3709 21.013C16.354 20.8517 16.2981 20.6969 16.208 20.562L14.797 18.445C14.7057 18.3081 14.5819 18.1958 14.4368 18.1182C14.2917 18.0406 14.1296 18 13.965 18H9.03501L7.78701 16.127L9.91401 14H11.5V16H13.5V13.266L17.368 6.496L15.632 5.504L14.777 7H12.035L10.95 5.371C12.4078 4.60164 14.01 4.14462 15.6543 4.02908C17.2986 3.91355 18.9489 4.14205 20.5 4.7V8C20.5 8.26522 20.6054 8.51957 20.7929 8.70711C20.9804 8.89464 21.2348 9 21.5 9H22.965C23.1296 9.00002 23.2917 8.95942 23.4368 8.88179C23.5819 8.80417 23.7057 8.69192 23.797 8.555L24.674 7.239C25.8168 8.3037 26.7407 9.58126 27.394 11H23.32C23.0889 11.0001 22.865 11.0803 22.6863 11.2269C22.5077 11.3735 22.3853 11.5774 22.34 11.804L21.617 16.274C21.5828 16.4844 21.6167 16.7003 21.7139 16.8901C21.811 17.0799 21.9663 17.2337 22.157 17.329L25.5 19L26.185 23.056C25.0751 24.5856 23.619 25.8309 21.9358 26.6901C20.2525 27.5494 18.3899 27.9982 16.5 28Z" fill="#252525"/>
</svg>
