<svg width="20" height="21" viewBox="0 0 20 21" fill="none" xmlns="http://www.w3.org/2000/svg">
<path d="M16.2422 6.95459C16.2422 6.95459 17.4922 8.20459 17.4922 10.2879C17.4922 12.3713 16.2422 13.6213 16.2422 13.6213" stroke="black" stroke-width="1.5" stroke-linecap="round" stroke-linejoin="round"/>
<path d="M1.66406 12.2521V9.15714C1.66406 8.71511 1.83966 8.29119 2.15222 7.97863C2.46478 7.66607 2.8887 7.49047 3.33073 7.49047H5.7474C5.91033 7.49043 6.06968 7.44263 6.20573 7.35298L11.2057 4.05631C11.3314 3.97358 11.477 3.92639 11.6273 3.91976C11.7776 3.91312 11.9269 3.94729 12.0593 4.01863C12.1917 4.08997 12.3024 4.19583 12.3795 4.32497C12.4566 4.45411 12.4974 4.60172 12.4974 4.75214V16.6571C12.4974 16.8076 12.4566 16.9552 12.3795 17.0843C12.3024 17.2135 12.1917 17.3193 12.0593 17.3907C11.9269 17.462 11.7776 17.4962 11.6273 17.4895C11.477 17.4829 11.3314 17.4357 11.2057 17.353L6.20573 14.0563C6.06968 13.9667 5.91033 13.9188 5.7474 13.9188H3.33073C2.8887 13.9188 2.46478 13.7432 2.15222 13.4307C1.83966 13.1181 1.66406 12.6942 1.66406 12.2521Z" stroke="black" stroke-width="1.5"/>
</svg>
