<svg width="41" height="32" viewBox="0 0 41 32" fill="none" xmlns="http://www.w3.org/2000/svg">
<g clip-path="url(#clip0_119_1446)">
<path d="M7.83797 31.1267V29.0688C7.83797 28.2797 7.35766 27.7653 6.53437 27.7653C6.12281 27.7653 5.67688 27.9025 5.36812 28.3485C5.12812 27.9711 4.78516 27.7653 4.27062 27.7653C3.9275 27.7653 3.58469 27.8681 3.31016 28.2455V27.8339H2.58984V31.1267H3.31016V29.3088C3.31016 28.7258 3.61891 28.4513 4.09922 28.4513C4.57922 28.4513 4.81953 28.76 4.81953 29.3088V31.1267H5.53984V29.3088C5.53984 28.7258 5.88266 28.4513 6.32859 28.4513C6.80891 28.4513 7.04891 28.76 7.04891 29.3088V31.1267H7.83797ZM18.5053 27.8339H17.3392V26.8392H16.6189V27.8339H15.9672V28.4855H16.6188V29.9949C16.6188 30.7495 16.9275 31.1953 17.7508 31.1953C18.0595 31.1953 18.4023 31.0925 18.6427 30.9553L18.4367 30.3378C18.2309 30.475 17.9909 30.5094 17.8194 30.5094C17.4764 30.5094 17.3392 30.3036 17.3392 29.9605V28.4855H18.5053V27.8339ZM24.6109 27.7652C24.1994 27.7652 23.925 27.9711 23.7534 28.2455V27.8339H23.0331V31.1267H23.7534V29.2745C23.7534 28.7258 23.9934 28.417 24.4394 28.417C24.5766 28.417 24.7481 28.4514 24.8853 28.4856L25.0911 27.7997C24.9539 27.7653 24.7481 27.7653 24.6109 27.7653M15.3841 28.1085C15.0409 27.8683 14.5608 27.7655 14.0462 27.7655C13.2231 27.7655 12.6744 28.177 12.6744 28.8288C12.6744 29.3777 13.0859 29.6863 13.8063 29.7892L14.1492 29.8236C14.5266 29.892 14.7323 29.995 14.7323 30.1666C14.7323 30.4066 14.458 30.5781 13.9777 30.5781C13.4973 30.5781 13.1202 30.4066 12.88 30.2352L12.537 30.7839C12.9144 31.0583 13.4289 31.1955 13.9433 31.1955C14.9038 31.1955 15.4527 30.7497 15.4527 30.1322C15.4527 29.5491 15.0067 29.2403 14.3206 29.1375L13.9777 29.1031C13.6689 29.0688 13.4289 29.0003 13.4289 28.7945C13.4289 28.5544 13.6689 28.4172 14.0462 28.4172C14.458 28.4172 14.8695 28.5886 15.0753 28.6916L15.3841 28.1085ZM34.5239 27.7655C34.1122 27.7655 33.8378 27.9713 33.6663 28.2456V27.8341H32.9459V31.1269H33.6663V29.2747C33.6663 28.726 33.9064 28.4172 34.3522 28.4172C34.4895 28.4172 34.6611 28.4516 34.7983 28.4858L35.0041 27.7999C34.8669 27.7655 34.6611 27.7655 34.5239 27.7655ZM25.3312 29.4805C25.3312 30.4752 26.0172 31.1955 27.0806 31.1955C27.5608 31.1955 27.9038 31.0927 28.2467 30.8183L27.9038 30.2352C27.6294 30.441 27.355 30.5438 27.0463 30.5438C26.4631 30.5438 26.0516 30.1322 26.0516 29.4805C26.0516 28.8631 26.4631 28.4514 27.0463 28.4172C27.355 28.4172 27.6294 28.52 27.9038 28.726L28.2467 28.1428C27.9038 27.8683 27.5608 27.7655 27.0806 27.7655C26.0172 27.7655 25.3312 28.4858 25.3312 29.4805ZM31.9856 29.4805V27.8341H31.2653V28.2456C31.0252 27.937 30.6822 27.7655 30.2363 27.7655C29.3102 27.7655 28.5898 28.4858 28.5898 29.4805C28.5898 30.4752 29.3102 31.1955 30.2363 31.1955C30.7164 31.1955 31.0595 31.0241 31.2653 30.7153V31.1269H31.9856V29.4805ZM29.3444 29.4805C29.3444 28.8974 29.7217 28.4172 30.3391 28.4172C30.9222 28.4172 31.3339 28.8631 31.3339 29.4805C31.3339 30.0636 30.9222 30.5438 30.3391 30.5438C29.7217 30.5094 29.3444 30.0636 29.3444 29.4805ZM20.735 27.7655C19.7745 27.7655 19.0884 28.4514 19.0884 29.4805C19.0884 30.5095 19.7744 31.1955 20.7692 31.1955C21.2494 31.1955 21.7297 31.0583 22.107 30.7497L21.7639 30.2352C21.4895 30.441 21.1466 30.5781 20.8036 30.5781C20.3577 30.5781 19.9117 30.3724 19.8088 29.7891H22.2442V29.5149C22.2786 28.4514 21.6612 27.7655 20.735 27.7655ZM20.7348 28.3828C21.1806 28.3828 21.4895 28.6574 21.558 29.1719H19.843C19.9116 28.726 20.2203 28.3828 20.7348 28.3828ZM38.6055 29.4805V26.5306H37.8852V28.2456C37.645 27.937 37.302 27.7655 36.8561 27.7655C35.93 27.7655 35.2097 28.4858 35.2097 29.4805C35.2097 30.4752 35.93 31.1955 36.8561 31.1955C37.3364 31.1955 37.6794 31.0241 37.8852 30.7153V31.1269H38.6055V29.4805ZM35.9644 29.4805C35.9644 28.8974 36.3416 28.4172 36.9591 28.4172C37.5422 28.4172 37.9538 28.8631 37.9538 29.4805C37.9538 30.0636 37.5422 30.5438 36.9591 30.5438C36.3416 30.5094 35.9644 30.0636 35.9644 29.4805ZM11.8852 29.4805V27.8341H11.1648V28.2456C10.9247 27.937 10.5817 27.7655 10.1358 27.7655C9.20969 27.7655 8.48938 28.4858 8.48938 29.4805C8.48938 30.4752 9.20969 31.1955 10.1358 31.1955C10.6161 31.1955 10.9591 31.0241 11.1648 30.7153V31.1269H11.8852V29.4805ZM9.20969 29.4805C9.20969 28.8974 9.58703 28.4172 10.2044 28.4172C10.7875 28.4172 11.1992 28.8631 11.1992 29.4805C11.1992 30.0636 10.7875 30.5438 10.2044 30.5438C9.58703 30.5094 9.20969 30.0636 9.20969 29.4805Z" fill="black"/>
<path d="M15.1445 2.82861H25.9492V22.2428H15.1445V2.82861Z" fill="#FF5F00"/>
<path d="M15.8303 12.5358C15.8303 8.59125 17.6825 5.0925 20.5294 2.82859C18.4372 1.18219 15.7961 0.1875 12.9148 0.1875C6.08875 0.1875 0.566406 5.70984 0.566406 12.5358C0.566406 19.3617 6.08875 24.8841 12.9147 24.8841C15.7959 24.8841 18.437 23.8894 20.5294 22.2428C17.6825 20.0133 15.8303 16.4803 15.8303 12.5358Z" fill="#EB001B"/>
<path d="M40.5264 12.5358C40.5264 19.3616 35.0041 24.8841 28.1782 24.8841C25.2969 24.8841 22.6558 23.8894 20.5635 22.2428C23.4447 19.9791 25.2627 16.4803 25.2627 12.5358C25.2627 8.59125 23.4104 5.0925 20.5635 2.82859C22.6557 1.18219 25.2969 0.1875 28.1782 0.1875C35.0041 0.1875 40.5264 5.74422 40.5264 12.5358Z" fill="#F79E1B"/>
</g>
<defs>
<clipPath id="clip0_119_1446">
<rect width="40" height="31.0938" fill="white" transform="translate(0.566406 0.1875)"/>
</clipPath>
</defs>
</svg>
