<svg width="32" height="32" viewBox="0 0 32 32" fill="none" xmlns="http://www.w3.org/2000/svg">
<path d="M12 6.66663C12 5.60576 12.4214 4.58834 13.1716 3.8382C13.9217 3.08805 14.9391 2.66663 16 2.66663C17.0609 2.66663 18.0783 3.08805 18.8284 3.8382C19.5786 4.58834 20 5.60576 20 6.66663V13.3333C20 14.3942 19.5786 15.4116 18.8284 16.1617C18.0783 16.9119 17.0609 17.3333 16 17.3333C14.9391 17.3333 13.9217 16.9119 13.1716 16.1617C12.4214 15.4116 12 14.3942 12 13.3333V6.66663Z" stroke="black" stroke-width="2" stroke-linecap="round" stroke-linejoin="round"/>
<path d="M6.66602 13.3333C6.66602 15.8087 7.64935 18.1826 9.39969 19.933C11.15 21.6833 13.524 22.6666 15.9993 22.6666M15.9993 22.6666C18.4747 22.6666 20.8487 21.6833 22.599 19.933C24.3494 18.1826 25.3327 15.8087 25.3327 13.3333M15.9993 22.6666V28M10.666 28H21.3327" stroke="black" stroke-width="2" stroke-linecap="round" stroke-linejoin="round"/>
</svg>
