<svg width="29" height="23" viewBox="0 0 29 23" fill="none" xmlns="http://www.w3.org/2000/svg">
<path d="M27.0469 4.05713H21.8594C21.6719 4.05713 21.4394 3.93588 21.2581 3.74463L19.5531 1.06963C18.8594 0.0571287 18.5469 0.0571289 17.4219 0.0571289H11.6719C10.5469 0.0571289 10.1719 0.0571289 9.5425 1.07025L7.83562 3.74463C7.69687 3.89588 7.50187 4.05713 7.29688 4.05713V3.05713C7.29688 2.92452 7.2442 2.79734 7.15043 2.70358C7.05666 2.60981 6.92948 2.55713 6.79688 2.55713H4.29688C4.16427 2.55713 4.03709 2.60981 3.94332 2.70358C3.84955 2.79734 3.79688 2.92452 3.79688 3.05713V4.05713H2.04688C1.64905 4.05713 1.26752 4.21516 0.986215 4.49647C0.70491 4.77777 0.546875 5.1593 0.546875 5.55713V20.5571C0.546875 20.955 0.70491 21.3365 0.986215 21.6178C1.26752 21.8991 1.64905 22.0571 2.04688 22.0571H27.0469C27.4447 22.0571 27.8262 21.8991 28.1075 21.6178C28.3888 21.3365 28.5469 20.955 28.5469 20.5571V5.55713C28.5469 5.1593 28.3888 4.77777 28.1075 4.49647C27.8262 4.21516 27.4447 4.05713 27.0469 4.05713ZM14.8288 18.0509C13.6194 18.1077 12.4212 17.7973 11.3915 17.1605C10.3618 16.5238 9.54879 15.5904 9.05936 14.483C8.56993 13.3757 8.42695 12.1462 8.64919 10.9561C8.87143 9.76597 9.44851 8.67093 10.3046 7.81485C11.1607 6.95876 12.2557 6.38169 13.4458 6.15944C14.6359 5.9372 15.8654 6.08019 16.9728 6.56962C18.0801 7.05905 19.0135 7.87202 19.6503 8.90171C20.2871 9.93141 20.5974 11.1297 20.5406 12.339C20.469 13.8308 19.8442 15.2424 18.7882 16.2984C17.7321 17.3545 16.3205 17.9793 14.8288 18.0509Z" fill="#949494"/>
</svg>
