<svg width="33" height="32" viewBox="0 0 33 32" fill="none" xmlns="http://www.w3.org/2000/svg">
<path d="M5.83398 24C5.83398 22.5855 6.39589 21.229 7.39608 20.2288C8.39628 19.2286 9.75283 18.6667 11.1673 18.6667H21.834C23.2485 18.6667 24.605 19.2286 25.6052 20.2288C26.6054 21.229 27.1673 22.5855 27.1673 24C27.1673 24.7073 26.8864 25.3855 26.3863 25.8856C25.8862 26.3857 25.2079 26.6667 24.5007 26.6667H8.50065C7.79341 26.6667 7.11513 26.3857 6.61503 25.8856C6.11494 25.3855 5.83398 24.7073 5.83398 24Z" stroke="black" stroke-width="2" stroke-linejoin="round"/>
<path d="M16.5 13.3333C18.7091 13.3333 20.5 11.5425 20.5 9.33334C20.5 7.1242 18.7091 5.33334 16.5 5.33334C14.2909 5.33334 12.5 7.1242 12.5 9.33334C12.5 11.5425 14.2909 13.3333 16.5 13.3333Z" stroke="black" stroke-width="2"/>
</svg>
