<svg width="20" height="21" viewBox="0 0 20 21" fill="none" xmlns="http://www.w3.org/2000/svg">
<path d="M5 5.87126C5 4.93792 5 4.47126 5.18167 4.11459C5.34145 3.801 5.59641 3.54604 5.91 3.38626C6.26667 3.20459 6.73333 3.20459 7.66667 3.20459H12.3333C13.2667 3.20459 13.7333 3.20459 14.09 3.38626C14.4036 3.54604 14.6585 3.801 14.8183 4.11459C15 4.47126 15 4.93792 15 5.87126V16.9588C15 17.3638 15 17.5663 14.9158 17.6771C14.8795 17.7253 14.8331 17.765 14.7798 17.7935C14.7266 17.822 14.6678 17.8386 14.6075 17.8421C14.4683 17.8504 14.3 17.7379 13.9633 17.5138L10 14.8713L6.03667 17.5129C5.7 17.7379 5.53167 17.8504 5.39167 17.8421C5.33153 17.8385 5.2729 17.8218 5.21981 17.7933C5.16672 17.7648 5.12045 17.7252 5.08417 17.6771C5 17.5663 5 17.3638 5 16.9588V5.87126Z" stroke="black" stroke-width="1.5" stroke-linecap="round" stroke-linejoin="round"/>
</svg>
