<svg width="25" height="24" viewBox="0 0 25 24" fill="none" xmlns="http://www.w3.org/2000/svg">
<path d="M6.96729 6.2C6.96729 5.08 6.96729 4.52 7.18529 4.092C7.37703 3.71569 7.68298 3.40974 8.05929 3.218C8.48729 3 9.04729 3 10.1673 3H15.7673C16.8873 3 17.4473 3 17.8753 3.218C18.2516 3.40974 18.5575 3.71569 18.7493 4.092C18.9673 4.52 18.9673 5.08 18.9673 6.2V19.505C18.9673 19.991 18.9673 20.234 18.8663 20.367C18.8226 20.4248 18.7669 20.4725 18.7031 20.5067C18.6392 20.5409 18.5686 20.5608 18.4963 20.565C18.3293 20.575 18.1273 20.44 17.7233 20.171L12.9673 17L8.21129 20.17C7.80729 20.44 7.60528 20.575 7.43728 20.565C7.36512 20.5606 7.29476 20.5407 7.23106 20.5065C7.16735 20.4723 7.11182 20.4247 7.06828 20.367C6.96728 20.234 6.96729 19.991 6.96729 19.505V6.2Z" fill="black" stroke="black" stroke-linecap="round" stroke-linejoin="round"/>
</svg>
