<svg width="33" height="32" viewBox="0 0 33 32" fill="none" xmlns="http://www.w3.org/2000/svg">
<path d="M5.83398 23.9993C5.83398 22.5849 6.39589 21.2283 7.39608 20.2281C8.39628 19.2279 9.75283 18.666 11.1673 18.666H21.834C23.2485 18.666 24.605 19.2279 25.6052 20.2281C26.6054 21.2283 27.1673 22.5849 27.1673 23.9993C27.1673 24.7066 26.8864 25.3849 26.3863 25.885C25.8862 26.3851 25.2079 26.666 24.5007 26.666H8.50065C7.79341 26.666 7.11513 26.3851 6.61503 25.885C6.11494 25.3849 5.83398 24.7066 5.83398 23.9993Z" fill="#1C54B5" stroke="#1C54B5" stroke-width="2" stroke-linejoin="round"/>
<path d="M16.5 13.333C18.7091 13.333 20.5 11.5421 20.5 9.33301C20.5 7.12387 18.7091 5.33301 16.5 5.33301C14.2909 5.33301 12.5 7.12387 12.5 9.33301C12.5 11.5421 14.2909 13.333 16.5 13.333Z" fill="#1C54B5" stroke="#1C54B5" stroke-width="2"/>
</svg>
