<svg width="32" height="32" viewBox="0 0 32 32" fill="none" xmlns="http://www.w3.org/2000/svg">
<path d="M15.2121 21.8598H16.9606V13.4393L20.5606 17.0393L21.7401 15.8598L16.1018 10.2216L10.4309 15.8598L11.6121 17.0393L15.2121 13.4393V21.8598ZM16.0743 31.4856C13.9418 31.4856 11.9361 31.081 10.0572 30.2718C8.17948 29.4616 6.54577 28.3621 5.15605 26.9736C3.76634 25.585 2.66634 23.953 1.85605 22.0776C1.04577 20.2021 0.640625 18.197 0.640625 16.0621C0.640625 13.9273 1.04577 11.9216 1.85605 10.045C2.6652 8.16728 3.76291 6.53356 5.1492 5.14385C6.53548 3.75413 8.16805 2.65413 10.0469 1.84385C11.9258 1.03356 13.9315 0.628418 16.0641 0.628418C18.1966 0.628418 20.2023 1.03356 22.0812 1.84385C23.9589 2.65299 25.5926 3.75128 26.9823 5.1387C28.3721 6.52613 29.4721 8.1587 30.2823 10.0364C31.0926 11.9141 31.4978 13.9193 31.4978 16.0518C31.4978 18.1844 31.0932 20.1901 30.2841 22.069C29.4749 23.9478 28.3755 25.5816 26.9858 26.9701C25.5961 28.3587 23.9641 29.4587 22.0898 30.2701C20.2155 31.0816 18.2103 31.4867 16.0743 31.4856Z" fill="#949494"/>
</svg>
