<svg width="31" height="32" viewBox="0 0 31 32" fill="none" xmlns="http://www.w3.org/2000/svg">
<path d="M14.6339 21.8598H16.3825V13.4393L19.9825 17.0393L21.1619 15.8598L15.5236 10.2216L9.85279 15.8598L11.0339 17.0393L14.6339 13.4393V21.8598ZM15.4962 31.4856C13.3636 31.4856 11.3579 31.081 9.47907 30.2718C7.60136 29.4616 5.96764 28.3621 4.57793 26.9736C3.18821 25.585 2.08821 23.953 1.27793 22.0776C0.467643 20.2021 0.0625 18.197 0.0625 16.0621C0.0625 13.9273 0.467643 11.9216 1.27793 10.045C2.08707 8.16728 3.18479 6.53356 4.57107 5.14385C5.95736 3.75413 7.58993 2.65413 9.46879 1.84385C11.3476 1.03356 13.3534 0.628418 15.4859 0.628418C17.6185 0.628418 19.6242 1.03356 21.5031 1.84385C23.3808 2.65299 25.0145 3.75128 26.4042 5.1387C27.7939 6.52613 28.8939 8.1587 29.7042 10.0364C30.5145 11.9141 30.9196 13.9193 30.9196 16.0518C30.9196 18.1844 30.5151 20.1901 29.7059 22.069C28.8968 23.9478 27.7974 25.5816 26.4076 26.9701C25.0179 28.3587 23.3859 29.4587 21.5116 30.2701C19.6374 31.0816 17.6322 31.4867 15.4962 31.4856Z" fill="#252525"/>
</svg>
