<svg width="18" height="18" viewBox="0 0 18 18" fill="none" xmlns="http://www.w3.org/2000/svg">
<path d="M8.14933 1.37812C8.42968 0.581317 9.57032 0.581318 9.85067 1.37812L11.441 5.89812C11.5647 6.24963 11.8968 6.48796 12.2734 6.49554L17.1161 6.59303C17.9698 6.61022 18.3223 7.68193 17.6419 8.19157L13.782 11.0826C13.4818 11.3074 13.355 11.693 13.4641 12.0492L14.8667 16.6295C15.114 17.4369 14.1912 18.0993 13.4903 17.6174L9.5144 14.8842C9.20521 14.6716 8.79479 14.6716 8.48559 14.8842L4.50969 17.6174C3.80881 18.0993 2.88601 17.4369 3.13327 16.6295L4.53592 12.0492C4.64499 11.693 4.51817 11.3074 4.218 11.0826L0.358106 8.19157C-0.322326 7.68193 0.0301515 6.61022 0.883852 6.59303L5.72664 6.49554C6.10324 6.48796 6.43529 6.24962 6.55896 5.89812L8.14933 1.37812Z" fill="#ECA24B"/>
</svg>
