<svg width="25" height="29" viewBox="0 0 25 29" fill="none" xmlns="http://www.w3.org/2000/svg">
<path d="M24.3391 4.05713H17.3672V1.05713C17.3672 0.791912 17.2618 0.537558 17.0743 0.350022C16.8868 0.162486 16.6324 0.0571289 16.3672 0.0571289H8.36719C8.10197 0.0571289 7.84762 0.162486 7.66008 0.350022C7.47254 0.537558 7.36719 0.791912 7.36719 1.05713V4.05713H0.395312L0.367188 6.55713H2.42969L3.68531 26.1821C3.71709 26.6896 3.94099 27.166 4.31147 27.5143C4.68195 27.8626 5.17119 28.0567 5.67969 28.0571H19.0547C19.5629 28.0571 20.052 27.8635 20.4227 27.5158C20.7934 27.1682 21.0178 26.6924 21.0503 26.1853L22.3047 6.55713H24.3672L24.3391 4.05713ZM7.36719 24.0571L6.80469 8.05713H8.86719L9.42969 24.0571H7.36719ZM13.3672 24.0571H11.3672V8.05713H13.3672V24.0571ZM14.8672 4.05713H9.86719V2.30713C9.86719 2.24082 9.89353 2.17724 9.94041 2.13035C9.9873 2.08347 10.0509 2.05713 10.1172 2.05713H14.6172C14.6835 2.05713 14.7471 2.08347 14.794 2.13035C14.8408 2.17724 14.8672 2.24082 14.8672 2.30713V4.05713ZM17.3672 24.0571H15.3047L15.8672 8.05713H17.9297L17.3672 24.0571Z" fill="#252525"/>
</svg>
