<svg width="33" height="33" viewBox="0 0 33 33" fill="none" xmlns="http://www.w3.org/2000/svg">
<path d="M28.3391 6.05713H21.3672V3.05713C21.3672 2.79191 21.2618 2.53756 21.0743 2.35002C20.8868 2.16249 20.6324 2.05713 20.3672 2.05713H12.3672C12.102 2.05713 11.8476 2.16249 11.6601 2.35002C11.4725 2.53756 11.3672 2.79191 11.3672 3.05713V6.05713H4.39531L4.36719 8.55713H6.42969L7.68531 28.1821C7.71709 28.6896 7.94099 29.166 8.31147 29.5143C8.68195 29.8626 9.17119 30.0567 9.67969 30.0571H23.0547C23.5629 30.0571 24.052 29.8635 24.4227 29.5158C24.7934 29.1682 25.0178 28.6924 25.0503 28.1853L26.3047 8.55713H28.3672L28.3391 6.05713ZM11.3672 26.0571L10.8047 10.0571H12.8672L13.4297 26.0571H11.3672ZM17.3672 26.0571H15.3672V10.0571H17.3672V26.0571ZM18.8672 6.05713H13.8672V4.30713C13.8672 4.24082 13.8935 4.17724 13.9404 4.13035C13.9873 4.08347 14.0509 4.05713 14.1172 4.05713H18.6172C18.6835 4.05713 18.7471 4.08347 18.794 4.13035C18.8408 4.17724 18.8672 4.24082 18.8672 4.30713V6.05713ZM21.3672 26.0571H19.3047L19.8672 10.0571H21.9297L21.3672 26.0571Z" fill="#949494"/>
</svg>
