<svg width="1200" height="62" viewBox="0 0 1200 62" fill="none" xmlns="http://www.w3.org/2000/svg">
<rect x="130" y="29.5409" width="940" height="2" fill="url(#paint0_linear_976_17615)"/>
<rect x="384" y="0.5" width="432" height="61" rx="29.5" fill="#77ADED"/>
<rect x="384" y="0.5" width="432" height="61" rx="29.5" stroke="#77ADED"/>
<rect x="387.5" y="4" width="425" height="54" rx="27" fill="#F1F7FC"/>
<path d="M437.204 24.4005H439.544V37.0005H437.204V24.4005ZM430.688 37.0005H428.348V24.4005H430.688V37.0005ZM437.384 31.6005H430.49V29.6025H437.384V31.6005ZM448.658 37.0005V35.0565L448.532 34.6425V31.2405C448.532 30.5805 448.334 30.0705 447.938 29.7105C447.542 29.3385 446.942 29.1525 446.138 29.1525C445.598 29.1525 445.064 29.2365 444.536 29.4045C444.02 29.5725 443.582 29.8065 443.222 30.1065L442.34 28.4685C442.856 28.0725 443.468 27.7785 444.176 27.5865C444.896 27.3825 445.64 27.2805 446.408 27.2805C447.8 27.2805 448.874 27.6165 449.63 28.2885C450.398 28.9485 450.782 29.9745 450.782 31.3665V37.0005H448.658ZM445.634 37.1265C444.914 37.1265 444.284 37.0065 443.744 36.7665C443.204 36.5145 442.784 36.1725 442.484 35.7405C442.196 35.2965 442.052 34.7985 442.052 34.2465C442.052 33.7065 442.178 33.2205 442.43 32.7885C442.694 32.3565 443.12 32.0145 443.708 31.7625C444.296 31.5105 445.076 31.3845 446.048 31.3845H448.838V32.8785H446.21C445.442 32.8785 444.926 33.0045 444.662 33.2565C444.398 33.4965 444.266 33.7965 444.266 34.1565C444.266 34.5645 444.428 34.8885 444.752 35.1285C445.076 35.3685 445.526 35.4885 446.102 35.4885C446.654 35.4885 447.146 35.3625 447.578 35.1105C448.022 34.8585 448.34 34.4865 448.532 33.9945L448.91 35.3445C448.694 35.9085 448.304 36.3465 447.74 36.6585C447.188 36.9705 446.486 37.1265 445.634 37.1265ZM454.431 40.6185C453.963 40.6185 453.495 40.5405 453.027 40.3845C452.559 40.2285 452.169 40.0125 451.857 39.7365L452.757 38.0805C452.985 38.2845 453.243 38.4465 453.531 38.5665C453.819 38.6865 454.113 38.7465 454.413 38.7465C454.821 38.7465 455.151 38.6445 455.403 38.4405C455.655 38.2365 455.889 37.8945 456.105 37.4145L456.663 36.1545L456.843 35.8845L460.479 27.3885H462.639L458.139 37.7745C457.839 38.4945 457.503 39.0645 457.131 39.4845C456.771 39.9045 456.363 40.1985 455.907 40.3665C455.463 40.5345 454.971 40.6185 454.431 40.6185ZM456.411 37.3425L452.073 27.3885H454.413L457.941 35.6865L456.411 37.3425ZM470.267 33.2025C469.811 33.4185 469.325 33.5985 468.809 33.7425C468.305 33.8745 467.771 33.9405 467.207 33.9405C465.995 33.9405 465.053 33.6585 464.381 33.0945C463.709 32.5305 463.373 31.6545 463.373 30.4665V27.3885H465.623V30.3225C465.623 30.9585 465.803 31.4205 466.163 31.7085C466.535 31.9965 467.045 32.1405 467.693 32.1405C468.125 32.1405 468.557 32.0865 468.989 31.9785C469.421 31.8705 469.847 31.7205 470.267 31.5285V33.2025ZM470.105 37.0005V27.3885H472.355V37.0005H470.105ZM475.381 37.0005V27.3885H477.631V33.7245L482.941 27.3885H484.993V37.0005H482.743V30.6645L477.451 37.0005H475.381ZM492.394 37.1265C491.386 37.1265 490.486 36.9165 489.694 36.4965C488.914 36.0645 488.302 35.4765 487.858 34.7325C487.414 33.9885 487.192 33.1425 487.192 32.1945C487.192 31.2345 487.414 30.3885 487.858 29.6565C488.302 28.9125 488.914 28.3305 489.694 27.9105C490.486 27.4905 491.386 27.2805 492.394 27.2805C493.33 27.2805 494.152 27.4725 494.86 27.8565C495.58 28.2285 496.126 28.7805 496.498 29.5125L494.77 30.5205C494.482 30.0645 494.128 29.7285 493.708 29.5125C493.3 29.2965 492.856 29.1885 492.376 29.1885C491.824 29.1885 491.326 29.3085 490.882 29.5485C490.438 29.7885 490.09 30.1365 489.838 30.5925C489.586 31.0365 489.46 31.5705 489.46 32.1945C489.46 32.8185 489.586 33.3585 489.838 33.8145C490.09 34.2585 490.438 34.6005 490.882 34.8405C491.326 35.0805 491.824 35.2005 492.376 35.2005C492.856 35.2005 493.3 35.0925 493.708 34.8765C494.128 34.6605 494.482 34.3245 494.77 33.8685L496.498 34.8765C496.126 35.5965 495.58 36.1545 494.86 36.5505C494.152 36.9345 493.33 37.1265 492.394 37.1265ZM503.303 30.5565C504.539 30.5565 505.481 30.8325 506.129 31.3845C506.777 31.9365 507.101 32.7165 507.101 33.7245C507.101 34.7685 506.741 35.5845 506.021 36.1725C505.301 36.7485 504.287 37.0305 502.979 37.0185L498.479 37.0005V27.3885H500.729V30.5385L503.303 30.5565ZM502.781 35.3625C503.441 35.3745 503.945 35.2365 504.293 34.9485C504.641 34.6605 504.815 34.2405 504.815 33.6885C504.815 33.1365 504.641 32.7405 504.293 32.5005C503.957 32.2485 503.453 32.1165 502.781 32.1045L500.729 32.0865V35.3445L502.781 35.3625ZM514.053 37.0005V27.3885H523.269V37.0005H521.037V28.7745L521.559 29.2965H515.781L516.303 28.7745V37.0005H514.053ZM530.589 37.1265C529.605 37.1265 528.729 36.9165 527.961 36.4965C527.193 36.0645 526.587 35.4765 526.143 34.7325C525.699 33.9885 525.477 33.1425 525.477 32.1945C525.477 31.2345 525.699 30.3885 526.143 29.6565C526.587 28.9125 527.193 28.3305 527.961 27.9105C528.729 27.4905 529.605 27.2805 530.589 27.2805C531.585 27.2805 532.467 27.4905 533.235 27.9105C534.015 28.3305 534.621 28.9065 535.053 29.6385C535.497 30.3705 535.719 31.2225 535.719 32.1945C535.719 33.1425 535.497 33.9885 535.053 34.7325C534.621 35.4765 534.015 36.0645 533.235 36.4965C532.467 36.9165 531.585 37.1265 530.589 37.1265ZM530.589 35.2005C531.141 35.2005 531.633 35.0805 532.065 34.8405C532.497 34.6005 532.833 34.2525 533.073 33.7965C533.325 33.3405 533.451 32.8065 533.451 32.1945C533.451 31.5705 533.325 31.0365 533.073 30.5925C532.833 30.1365 532.497 29.7885 532.065 29.5485C531.633 29.3085 531.147 29.1885 530.607 29.1885C530.055 29.1885 529.563 29.3085 529.131 29.5485C528.711 29.7885 528.375 30.1365 528.123 30.5925C527.871 31.0365 527.745 31.5705 527.745 32.1945C527.745 32.8065 527.871 33.3405 528.123 33.7965C528.375 34.2525 528.711 34.6005 529.131 34.8405C529.563 35.0805 530.049 35.2005 530.589 35.2005ZM536.432 36.9825L536.54 35.0925C536.624 35.1045 536.702 35.1165 536.774 35.1285C536.846 35.1405 536.912 35.1465 536.972 35.1465C537.344 35.1465 537.632 35.0325 537.836 34.8045C538.04 34.5765 538.19 34.2705 538.286 33.8865C538.394 33.4905 538.466 33.0525 538.502 32.5725C538.55 32.0805 538.586 31.5885 538.61 31.0965L538.772 27.3885H546.548V37.0005H544.298V28.6845L544.82 29.2965H540.248L540.734 28.6665L540.608 31.2045C540.572 32.0565 540.5 32.8485 540.392 33.5805C540.296 34.3005 540.14 34.9305 539.924 35.4705C539.72 36.0105 539.432 36.4305 539.06 36.7305C538.7 37.0305 538.238 37.1805 537.674 37.1805C537.494 37.1805 537.296 37.1625 537.08 37.1265C536.876 37.0905 536.66 37.0425 536.432 36.9825ZM554.402 30.5565C555.638 30.5565 556.58 30.8325 557.228 31.3845C557.876 31.9365 558.2 32.7165 558.2 33.7245C558.2 34.7685 557.84 35.5845 557.12 36.1725C556.4 36.7485 555.386 37.0305 554.078 37.0185L549.578 37.0005V27.3885H551.828V30.5385L554.402 30.5565ZM553.88 35.3625C554.54 35.3745 555.044 35.2365 555.392 34.9485C555.74 34.6605 555.914 34.2405 555.914 33.6885C555.914 33.1365 555.74 32.7405 555.392 32.5005C555.056 32.2485 554.552 32.1165 553.88 32.1045L551.828 32.0865V35.3445L553.88 35.3625ZM563.027 37.1625C562.295 37.1625 561.569 37.0785 560.849 36.9105C560.141 36.7305 559.499 36.4785 558.923 36.1545L559.553 34.4805C560.021 34.7445 560.549 34.9485 561.137 35.0925C561.725 35.2365 562.313 35.3085 562.901 35.3085C563.405 35.3085 563.837 35.2605 564.197 35.1645C564.557 35.0565 564.833 34.9005 565.025 34.6965C565.229 34.4925 565.331 34.2585 565.331 33.9945C565.331 33.6105 565.163 33.3225 564.827 33.1305C564.503 32.9265 564.035 32.8245 563.423 32.8245H561.569V31.3125H563.243C563.627 31.3125 563.951 31.2705 564.215 31.1865C564.491 31.1025 564.701 30.9765 564.845 30.8085C564.989 30.6405 565.061 30.4425 565.061 30.2145C565.061 29.9865 564.971 29.7885 564.791 29.6205C564.623 29.4405 564.377 29.3085 564.053 29.2245C563.729 29.1285 563.339 29.0805 562.883 29.0805C562.403 29.0805 561.905 29.1405 561.389 29.2605C560.885 29.3805 560.369 29.5545 559.841 29.7825L559.265 28.1265C559.877 27.8505 560.471 27.6405 561.047 27.4965C561.635 27.3405 562.217 27.2565 562.793 27.2445C563.669 27.2085 564.449 27.2985 565.133 27.5145C565.817 27.7305 566.357 28.0425 566.753 28.4505C567.149 28.8585 567.347 29.3385 567.347 29.8905C567.347 30.3465 567.203 30.7605 566.915 31.1325C566.639 31.4925 566.255 31.7745 565.763 31.9785C565.283 32.1825 564.731 32.2845 564.107 32.2845L564.179 31.7985C565.247 31.7985 566.087 32.0145 566.699 32.4465C567.311 32.8665 567.617 33.4425 567.617 34.1745C567.617 34.7625 567.419 35.2845 567.023 35.7405C566.627 36.1845 566.081 36.5325 565.385 36.7845C564.701 37.0365 563.915 37.1625 563.027 37.1625ZM574.218 37.1265C573.234 37.1265 572.358 36.9165 571.59 36.4965C570.822 36.0645 570.216 35.4765 569.772 34.7325C569.328 33.9885 569.106 33.1425 569.106 32.1945C569.106 31.2345 569.328 30.3885 569.772 29.6565C570.216 28.9125 570.822 28.3305 571.59 27.9105C572.358 27.4905 573.234 27.2805 574.218 27.2805C575.214 27.2805 576.096 27.4905 576.864 27.9105C577.644 28.3305 578.25 28.9065 578.682 29.6385C579.126 30.3705 579.348 31.2225 579.348 32.1945C579.348 33.1425 579.126 33.9885 578.682 34.7325C578.25 35.4765 577.644 36.0645 576.864 36.4965C576.096 36.9165 575.214 37.1265 574.218 37.1265ZM574.218 35.2005C574.77 35.2005 575.262 35.0805 575.694 34.8405C576.126 34.6005 576.462 34.2525 576.702 33.7965C576.954 33.3405 577.08 32.8065 577.08 32.1945C577.08 31.5705 576.954 31.0365 576.702 30.5925C576.462 30.1365 576.126 29.7885 575.694 29.5485C575.262 29.3085 574.776 29.1885 574.236 29.1885C573.684 29.1885 573.192 29.3085 572.76 29.5485C572.34 29.7885 572.004 30.1365 571.752 30.5925C571.5 31.0365 571.374 31.5705 571.374 32.1945C571.374 32.8065 571.5 33.3405 571.752 33.7965C572.004 34.2525 572.34 34.6005 572.76 34.8405C573.192 35.0805 573.678 35.2005 574.218 35.2005ZM581.571 37.0005V27.3885H586.269C587.433 27.3885 588.345 27.6045 589.005 28.0365C589.677 28.4685 590.013 29.0805 590.013 29.8725C590.013 30.6525 589.701 31.2645 589.077 31.7085C588.453 32.1405 587.625 32.3565 586.593 32.3565L586.863 31.7985C588.027 31.7985 588.891 32.0145 589.455 32.4465C590.031 32.8665 590.319 33.4845 590.319 34.3005C590.319 35.1525 590.001 35.8185 589.365 36.2985C588.729 36.7665 587.763 37.0005 586.467 37.0005H581.571ZM583.713 35.3625H586.287C586.899 35.3625 587.361 35.2665 587.673 35.0745C587.985 34.8705 588.141 34.5645 588.141 34.1565C588.141 33.7245 587.997 33.4065 587.709 33.2025C587.421 32.9985 586.971 32.8965 586.359 32.8965H583.713V35.3625ZM583.713 31.4025H586.071C586.647 31.4025 587.079 31.3005 587.367 31.0965C587.667 30.8805 587.817 30.5805 587.817 30.1965C587.817 29.8005 587.667 29.5065 587.367 29.3145C587.079 29.1225 586.647 29.0265 586.071 29.0265H583.713V31.4025ZM598.547 37.0005V35.0565L598.421 34.6425V31.2405C598.421 30.5805 598.223 30.0705 597.827 29.7105C597.431 29.3385 596.831 29.1525 596.027 29.1525C595.487 29.1525 594.953 29.2365 594.425 29.4045C593.909 29.5725 593.471 29.8065 593.111 30.1065L592.229 28.4685C592.745 28.0725 593.357 27.7785 594.065 27.5865C594.785 27.3825 595.529 27.2805 596.297 27.2805C597.689 27.2805 598.763 27.6165 599.519 28.2885C600.287 28.9485 600.671 29.9745 600.671 31.3665V37.0005H598.547ZM595.523 37.1265C594.803 37.1265 594.173 37.0065 593.633 36.7665C593.093 36.5145 592.673 36.1725 592.373 35.7405C592.085 35.2965 591.941 34.7985 591.941 34.2465C591.941 33.7065 592.067 33.2205 592.319 32.7885C592.583 32.3565 593.009 32.0145 593.597 31.7625C594.185 31.5105 594.965 31.3845 595.937 31.3845H598.727V32.8785H596.099C595.331 32.8785 594.815 33.0045 594.551 33.2565C594.287 33.4965 594.155 33.7965 594.155 34.1565C594.155 34.5645 594.317 34.8885 594.641 35.1285C594.965 35.3685 595.415 35.4885 595.991 35.4885C596.543 35.4885 597.035 35.3625 597.467 35.1105C597.911 34.8585 598.229 34.4865 598.421 33.9945L598.799 35.3445C598.583 35.9085 598.193 36.3465 597.629 36.6585C597.077 36.9705 596.375 37.1265 595.523 37.1265ZM605.453 37.0005V28.7565L605.975 29.2965H602.069V27.3885H611.069V29.2965H607.181L607.703 28.7565V37.0005H605.453ZM617.525 30.5565C618.761 30.5565 619.703 30.8325 620.351 31.3845C620.999 31.9365 621.323 32.7165 621.323 33.7245C621.323 34.7685 620.963 35.5845 620.243 36.1725C619.523 36.7485 618.509 37.0305 617.201 37.0185L612.701 37.0005V27.3885H614.951V30.5385L617.525 30.5565ZM617.003 35.3625C617.663 35.3745 618.167 35.2365 618.515 34.9485C618.863 34.6605 619.037 34.2405 619.037 33.6885C619.037 33.1365 618.863 32.7405 618.515 32.5005C618.179 32.2485 617.675 32.1165 617.003 32.1045L614.951 32.0865V35.3445L617.003 35.3625ZM627.675 37.1265C626.667 37.1265 625.767 36.9165 624.975 36.4965C624.195 36.0645 623.583 35.4765 623.139 34.7325C622.695 33.9885 622.473 33.1425 622.473 32.1945C622.473 31.2345 622.695 30.3885 623.139 29.6565C623.583 28.9125 624.195 28.3305 624.975 27.9105C625.767 27.4905 626.667 27.2805 627.675 27.2805C628.611 27.2805 629.433 27.4725 630.141 27.8565C630.861 28.2285 631.407 28.7805 631.779 29.5125L630.051 30.5205C629.763 30.0645 629.409 29.7285 628.989 29.5125C628.581 29.2965 628.137 29.1885 627.657 29.1885C627.105 29.1885 626.607 29.3085 626.163 29.5485C625.719 29.7885 625.371 30.1365 625.119 30.5925C624.867 31.0365 624.741 31.5705 624.741 32.1945C624.741 32.8185 624.867 33.3585 625.119 33.8145C625.371 34.2585 625.719 34.6005 626.163 34.8405C626.607 35.0805 627.105 35.2005 627.657 35.2005C628.137 35.2005 628.581 35.0925 628.989 34.8765C629.409 34.6605 629.763 34.3245 630.051 33.8685L631.779 34.8765C631.407 35.5965 630.861 36.1545 630.141 36.5505C629.433 36.9345 628.611 37.1265 627.675 37.1265ZM639.598 37.0005V33.7245L639.922 34.1025H637.042C635.722 34.1025 634.684 33.8265 633.928 33.2745C633.184 32.7105 632.812 31.9005 632.812 30.8445C632.812 29.7165 633.208 28.8585 634 28.2705C634.804 27.6825 635.872 27.3885 637.204 27.3885H641.614V37.0005H639.598ZM632.686 37.0005L635.278 33.3285H637.582L635.098 37.0005H632.686ZM639.598 33.0045V28.6845L639.922 29.2785H637.276C636.58 29.2785 636.04 29.4105 635.656 29.6745C635.284 29.9265 635.098 30.3405 635.098 30.9165C635.098 31.9965 635.8 32.5365 637.204 32.5365H639.922L639.598 33.0045ZM652.657 37.1625C651.925 37.1625 651.199 37.0785 650.479 36.9105C649.771 36.7305 649.129 36.4785 648.553 36.1545L649.183 34.4805C649.651 34.7445 650.179 34.9485 650.767 35.0925C651.355 35.2365 651.943 35.3085 652.531 35.3085C653.035 35.3085 653.467 35.2605 653.827 35.1645C654.187 35.0565 654.463 34.9005 654.655 34.6965C654.859 34.4925 654.961 34.2585 654.961 33.9945C654.961 33.6105 654.793 33.3225 654.457 33.1305C654.133 32.9265 653.665 32.8245 653.053 32.8245H651.199V31.3125H652.873C653.257 31.3125 653.581 31.2705 653.845 31.1865C654.121 31.1025 654.331 30.9765 654.475 30.8085C654.619 30.6405 654.691 30.4425 654.691 30.2145C654.691 29.9865 654.601 29.7885 654.421 29.6205C654.253 29.4405 654.007 29.3085 653.683 29.2245C653.359 29.1285 652.969 29.0805 652.513 29.0805C652.033 29.0805 651.535 29.1405 651.019 29.2605C650.515 29.3805 649.999 29.5545 649.471 29.7825L648.895 28.1265C649.507 27.8505 650.101 27.6405 650.677 27.4965C651.265 27.3405 651.847 27.2565 652.423 27.2445C653.299 27.2085 654.079 27.2985 654.763 27.5145C655.447 27.7305 655.987 28.0425 656.383 28.4505C656.779 28.8585 656.977 29.3385 656.977 29.8905C656.977 30.3465 656.833 30.7605 656.545 31.1325C656.269 31.4925 655.885 31.7745 655.393 31.9785C654.913 32.1825 654.361 32.2845 653.737 32.2845L653.809 31.7985C654.877 31.7985 655.717 32.0145 656.329 32.4465C656.941 32.8665 657.247 33.4425 657.247 34.1745C657.247 34.7625 657.049 35.2845 656.653 35.7405C656.257 36.1845 655.711 36.5325 655.015 36.7845C654.331 37.0365 653.545 37.1625 652.657 37.1625ZM665.397 37.0005V35.0565L665.271 34.6425V31.2405C665.271 30.5805 665.073 30.0705 664.677 29.7105C664.281 29.3385 663.681 29.1525 662.877 29.1525C662.337 29.1525 661.803 29.2365 661.275 29.4045C660.759 29.5725 660.321 29.8065 659.961 30.1065L659.079 28.4685C659.595 28.0725 660.207 27.7785 660.915 27.5865C661.635 27.3825 662.379 27.2805 663.147 27.2805C664.539 27.2805 665.613 27.6165 666.369 28.2885C667.137 28.9485 667.521 29.9745 667.521 31.3665V37.0005H665.397ZM662.373 37.1265C661.653 37.1265 661.023 37.0065 660.483 36.7665C659.943 36.5145 659.523 36.1725 659.223 35.7405C658.935 35.2965 658.791 34.7985 658.791 34.2465C658.791 33.7065 658.917 33.2205 659.169 32.7885C659.433 32.3565 659.859 32.0145 660.447 31.7625C661.035 31.5105 661.815 31.3845 662.787 31.3845H665.577V32.8785H662.949C662.181 32.8785 661.665 33.0045 661.401 33.2565C661.137 33.4965 661.005 33.7965 661.005 34.1565C661.005 34.5645 661.167 34.8885 661.491 35.1285C661.815 35.3685 662.265 35.4885 662.841 35.4885C663.393 35.4885 663.885 35.3625 664.317 35.1105C664.761 34.8585 665.079 34.4865 665.271 33.9945L665.649 35.3445C665.433 35.9085 665.043 36.3465 664.479 36.6585C663.927 36.9705 663.225 37.1265 662.373 37.1265ZM678.519 37.1805C677.631 37.1805 676.761 37.0545 675.909 36.8025C675.069 36.5385 674.361 36.1785 673.785 35.7225L674.793 33.9045C675.249 34.2765 675.801 34.5765 676.449 34.8045C677.097 35.0325 677.775 35.1465 678.483 35.1465C679.323 35.1465 679.977 34.9785 680.445 34.6425C680.913 34.2945 681.147 33.8265 681.147 33.2385C681.147 32.6625 680.931 32.2065 680.499 31.8705C680.067 31.5345 679.371 31.3665 678.411 31.3665H677.259V29.7645L680.859 25.4805L681.165 26.3625H674.397V24.4005H682.983V25.9665L679.383 30.2505L678.159 29.5305H678.861C680.409 29.5305 681.567 29.8785 682.335 30.5745C683.115 31.2585 683.505 32.1405 683.505 33.2205C683.505 33.9285 683.325 34.5825 682.965 35.1825C682.605 35.7825 682.053 36.2685 681.309 36.6405C680.577 37.0005 679.647 37.1805 678.519 37.1805ZM690.292 37.1805C689.296 37.1805 688.396 36.9285 687.592 36.4245C686.8 35.9205 686.176 35.1885 685.72 34.2285C685.264 33.2565 685.036 32.0805 685.036 30.7005C685.036 29.3205 685.264 28.1505 685.72 27.1905C686.176 26.2185 686.8 25.4805 687.592 24.9765C688.396 24.4725 689.296 24.2205 690.292 24.2205C691.3 24.2205 692.2 24.4725 692.992 24.9765C693.784 25.4805 694.408 26.2185 694.864 27.1905C695.332 28.1505 695.566 29.3205 695.566 30.7005C695.566 32.0805 695.332 33.2565 694.864 34.2285C694.408 35.1885 693.784 35.9205 692.992 36.4245C692.2 36.9285 691.3 37.1805 690.292 37.1805ZM690.292 35.1465C690.88 35.1465 691.39 34.9905 691.822 34.6785C692.254 34.3545 692.59 33.8625 692.83 33.2025C693.082 32.5425 693.208 31.7085 693.208 30.7005C693.208 29.6805 693.082 28.8465 692.83 28.1985C692.59 27.5385 692.254 27.0525 691.822 26.7405C691.39 26.4165 690.88 26.2545 690.292 26.2545C689.728 26.2545 689.224 26.4165 688.78 26.7405C688.348 27.0525 688.006 27.5385 687.754 28.1985C687.514 28.8465 687.394 29.6805 687.394 30.7005C687.394 31.7085 687.514 32.5425 687.754 33.2025C688.006 33.8625 688.348 34.3545 688.78 34.6785C689.224 34.9905 689.728 35.1465 690.292 35.1465ZM707.216 37.1265C706.208 37.1265 705.308 36.9165 704.516 36.4965C703.736 36.0645 703.124 35.4765 702.68 34.7325C702.236 33.9885 702.014 33.1425 702.014 32.1945C702.014 31.2345 702.236 30.3885 702.68 29.6565C703.124 28.9125 703.736 28.3305 704.516 27.9105C705.308 27.4905 706.208 27.2805 707.216 27.2805C708.152 27.2805 708.974 27.4725 709.682 27.8565C710.402 28.2285 710.948 28.7805 711.32 29.5125L709.592 30.5205C709.304 30.0645 708.95 29.7285 708.53 29.5125C708.122 29.2965 707.678 29.1885 707.198 29.1885C706.646 29.1885 706.148 29.3085 705.704 29.5485C705.26 29.7885 704.912 30.1365 704.66 30.5925C704.408 31.0365 704.282 31.5705 704.282 32.1945C704.282 32.8185 704.408 33.3585 704.66 33.8145C704.912 34.2585 705.26 34.6005 705.704 34.8405C706.148 35.0805 706.646 35.2005 707.198 35.2005C707.678 35.2005 708.122 35.0925 708.53 34.8765C708.95 34.6605 709.304 34.3245 709.592 33.8685L711.32 34.8765C710.948 35.5965 710.402 36.1545 709.682 36.5505C708.974 36.9345 708.152 37.1265 707.216 37.1265ZM717.642 37.1265C716.574 37.1265 715.638 36.9165 714.834 36.4965C714.042 36.0645 713.424 35.4765 712.98 34.7325C712.548 33.9885 712.332 33.1425 712.332 32.1945C712.332 31.2345 712.542 30.3885 712.962 29.6565C713.394 28.9125 713.982 28.3305 714.726 27.9105C715.482 27.4905 716.34 27.2805 717.3 27.2805C718.236 27.2805 719.07 27.4845 719.802 27.8925C720.534 28.3005 721.11 28.8765 721.53 29.6205C721.95 30.3645 722.16 31.2405 722.16 32.2485C722.16 32.3445 722.154 32.4525 722.142 32.5725C722.142 32.6925 722.136 32.8065 722.124 32.9145H714.114V31.4205H720.936L720.054 31.8885C720.066 31.3365 719.952 30.8505 719.712 30.4305C719.472 30.0105 719.142 29.6805 718.722 29.4405C718.314 29.2005 717.84 29.0805 717.3 29.0805C716.748 29.0805 716.262 29.2005 715.842 29.4405C715.434 29.6805 715.11 30.0165 714.87 30.4485C714.642 30.8685 714.528 31.3665 714.528 31.9425V32.3025C714.528 32.8785 714.66 33.3885 714.924 33.8325C715.188 34.2765 715.56 34.6185 716.04 34.8585C716.52 35.0985 717.072 35.2185 717.696 35.2185C718.236 35.2185 718.722 35.1345 719.154 34.9665C719.586 34.7985 719.97 34.5345 720.306 34.1745L721.512 35.5605C721.08 36.0645 720.534 36.4545 719.874 36.7305C719.226 36.9945 718.482 37.1265 717.642 37.1265ZM731.515 37.0005L728.041 32.3925L729.877 31.2585L734.161 37.0005H731.515ZM724.621 37.0005V27.3885H726.871V37.0005H724.621ZM726.205 33.1485V31.2765H729.463V33.1485H726.205ZM730.093 32.4645L727.987 32.2125L731.515 27.3885H733.927L730.093 32.4645ZM736.067 40.6185C735.599 40.6185 735.131 40.5405 734.663 40.3845C734.195 40.2285 733.805 40.0125 733.493 39.7365L734.393 38.0805C734.621 38.2845 734.879 38.4465 735.167 38.5665C735.455 38.6865 735.749 38.7465 736.049 38.7465C736.457 38.7465 736.787 38.6445 737.039 38.4405C737.291 38.2365 737.525 37.8945 737.741 37.4145L738.299 36.1545L738.479 35.8845L742.115 27.3885H744.275L739.775 37.7745C739.475 38.4945 739.139 39.0645 738.767 39.4845C738.407 39.9045 737.999 40.1985 737.543 40.3665C737.099 40.5345 736.607 40.6185 736.067 40.6185ZM738.047 37.3425L733.709 27.3885H736.049L739.577 35.6865L738.047 37.3425ZM745.838 37.0005V27.3885H748.088V31.2945H752.93V27.3885H755.18V37.0005H752.93V33.2025H748.088V37.0005H745.838ZM764.784 35.9565V29.2965H761.094L761.04 30.8445C761.016 31.3965 760.98 31.9305 760.932 32.4465C760.884 32.9505 760.806 33.4185 760.698 33.8505C760.59 34.2705 760.434 34.6185 760.23 34.8945C760.026 35.1705 759.756 35.3505 759.42 35.4345L757.188 35.0925C757.548 35.0925 757.836 34.9785 758.052 34.7505C758.28 34.5105 758.454 34.1865 758.574 33.7785C758.706 33.3585 758.802 32.8845 758.862 32.3565C758.922 31.8165 758.964 31.2585 758.988 30.6825L759.114 27.3885H767.034V35.9565H764.784ZM756.846 39.1425V35.0925H768.456V39.1425H766.35V37.0005H758.934V39.1425H756.846ZM770.573 32.8245L770.141 24.4005H772.805L772.355 32.8245H770.573ZM771.473 37.1265C771.053 37.1265 770.705 36.9885 770.429 36.7125C770.153 36.4365 770.015 36.1065 770.015 35.7225C770.015 35.3385 770.153 35.0145 770.429 34.7505C770.705 34.4745 771.053 34.3365 771.473 34.3365C771.893 34.3365 772.235 34.4745 772.499 34.7505C772.763 35.0145 772.895 35.3385 772.895 35.7225C772.895 36.1065 772.763 36.4365 772.499 36.7125C772.235 36.9885 771.893 37.1265 771.473 37.1265Z" fill="#77ADED"/>
<defs>
<linearGradient id="paint0_linear_976_17615" x1="130" y1="30.5409" x2="1070" y2="30.5409" gradientUnits="userSpaceOnUse">
<stop stop-color="#77ADED" stop-opacity="0"/>
<stop offset="0.282822" stop-color="#77ADED"/>
<stop offset="0.719195" stop-color="#77ADED"/>
<stop offset="1" stop-color="#77ADED" stop-opacity="0"/>
</linearGradient>
</defs>
</svg>
