<svg width="845" height="42" viewBox="0 0 845 42" fill="none" xmlns="http://www.w3.org/2000/svg">
<rect x="0.967285" width="844" height="42" rx="20" fill="#77ADED"/>
<path d="M844.638 29.2001L814.147 29.2251C803.985 29.2296 794.211 29.479 785.143 29.8031C766.91 30.457 750.97 31.4222 732.029 32.0334C722.63 32.3366 712.059 32.5117 701.616 32.4248C691.155 32.339 681.38 32.0026 672.761 31.5961C664.07 31.1929 655.915 30.7441 646.876 30.4369C637.908 30.1226 628.144 29.952 618.242 29.9557C615.821 29.9618 613.471 29.9914 611.083 30.0061C608.761 30.0451 606.516 30.1112 604.227 30.1604C602.099 30.2437 599.959 30.3257 597.869 30.4151C595.934 30.5259 593.927 30.6272 592.047 30.7441C584.611 31.2228 578.392 31.8144 572.089 32.4051C565.769 32.9949 559.34 33.5992 551.279 34.1025C543.351 34.6071 533.034 34.9787 522.181 34.9939C511.306 35.0505 500.569 34.7092 492.426 34.2219C484.11 33.7358 477.504 33.1402 471.052 32.556C464.616 31.9694 458.385 31.3791 451.386 30.8545C444.425 30.3306 436.486 29.8806 427.441 29.6353C418.462 29.3785 408.428 29.3855 398.891 29.5205C389.337 29.6599 380.414 29.9856 372.342 30.4155C364.148 30.8364 356.784 31.3525 348.176 31.7955C343.957 32.0219 339.147 32.2119 333.961 32.3345C328.753 32.4686 323.02 32.4613 317.702 32.3981C312.256 32.3308 307.203 32.1413 302.918 31.9157C298.583 31.6913 294.73 31.4415 290.788 31.213C283.031 30.747 274.307 30.4061 264.681 30.256C255.083 30.1038 244.949 30.0894 235.506 30.2592C225.964 30.4258 216.897 30.7507 208.388 31.1408C191.326 31.9304 176.316 32.9589 159.077 33.7928C150.463 34.1981 140.943 34.5735 130.267 34.6321C119.757 34.667 109.302 34.4598 100.362 34.0668C91.3504 33.6792 83.9309 33.1422 76.7712 32.6073C69.595 32.0703 62.8167 31.5087 55.3696 30.9997C47.9224 30.4922 39.8061 30.0357 30.7169 29.7022C21.5282 29.3785 11.4438 29.2354 1.2876 29.2001C11.4383 29.2185 21.6279 29.3453 30.999 29.6566C40.2652 29.9778 48.6135 30.4262 56.2763 30.9254C63.9391 31.4263 70.9053 31.9784 78.2032 32.5006C85.4734 33.0212 92.9537 33.5368 101.711 33.8933C110.347 34.2584 120.277 34.4434 130.046 34.402C139.776 34.3409 148.838 33.9803 157.17 33.5758C173.878 32.7472 188.777 31.7007 206.115 30.8741C214.796 30.4652 224.211 30.1136 234.428 29.9249C244.717 29.7354 255.437 29.751 265.687 29.9093C276.037 30.0648 285.757 30.4442 293.801 30.9258C301.912 31.3894 309.243 31.9251 318.63 32.031C323.247 32.0814 328.029 32.0908 332.48 31.9727C336.942 31.8648 341.243 31.6979 345.24 31.4809C353.329 31.0624 360.809 30.5365 369.301 30.0947C385.86 29.1787 408.743 28.7099 429.332 29.2501C439.438 29.5278 447.986 30.0242 455.217 30.5722C462.493 31.1227 468.785 31.7249 475.143 32.3091C481.506 32.8912 487.931 33.47 495.61 33.9212C503.184 34.3741 512.412 34.667 521.993 34.621C531.624 34.6091 540.68 34.2908 548.15 33.8224C555.702 33.3555 562.027 32.7706 568.357 32.1836C574.704 31.597 581.04 30.9886 589.062 30.4824C591.091 30.3589 593.308 30.249 595.426 30.1325C597.742 30.0353 600.142 29.9454 602.524 29.8568C605.106 29.801 607.649 29.7309 610.265 29.6903C612.935 29.6735 615.633 29.6447 618.276 29.6411C628.731 29.646 639.185 29.8388 648.523 30.1776C657.955 30.5095 666.149 30.9747 674.608 31.3771C683.011 31.7836 692.128 32.1044 701.964 32.1954C711.816 32.2865 721.729 32.1302 730.99 31.8484C749.627 31.2852 765.97 30.3429 784.563 29.712C793.818 29.399 803.841 29.1619 814.136 29.1742L844.638 29.2001Z" fill="white"/>
<path opacity="0.6" d="M834.328 21.5C773.902 21.5 759.648 33.0147 709.436 33.0147C673.291 33.0147 636.639 23.6139 589.905 23.6139C545.326 23.6139 542.531 27.682 515.138 27.682C486.964 27.682 472.208 21.8894 429.054 21.8894C377.925 21.8894 365.418 35 321.254 35C277.091 35 257.619 22.7956 216.113 22.7956C174.608 22.7956 171.584 24.772 135.937 24.772C100.338 24.772 67.9933 21.8404 31.4341 21.8404C5.50371 21.8404 0.967285 21.5 0.967285 21.5C0.967285 21.5 5.50371 21.1596 31.4341 21.1596C67.9933 21.1596 100.338 18.2322 135.937 18.2322C171.579 18.2322 174.603 20.2044 216.113 20.2044C257.624 20.2044 277.091 8 321.254 8C365.418 8 377.925 21.1106 429.054 21.1106C472.213 21.1106 486.964 15.318 515.138 15.318C542.537 15.318 545.332 19.3861 589.905 19.3861C636.634 19.3861 673.286 9.98954 709.436 9.98954C759.653 9.99007 773.902 21.5 834.328 21.5Z" fill="white"/>
<path opacity="0.4" d="M844.965 21.4999C797.915 21.4999 738.99 22.0586 726.65 22.5918C644.477 26.1535 645.914 33.8049 616.59 33.8049C593.95 33.8049 550.196 22.3442 511.124 22.3442C472.058 22.3442 461.244 26.3074 434.518 26.3074C407.748 26.3074 401.064 22.3442 339.867 22.3442C278.669 22.3442 262.476 29.765 226.976 29.765C191.481 29.765 154.456 21.9211 111.26 21.9211C68.0638 21.9211 0.967285 21.4999 0.967285 21.4999C0.967285 21.4999 68.0583 21.0742 111.26 21.0742C154.461 21.0742 191.481 13.2362 226.976 13.2362C262.47 13.2362 278.664 20.657 339.867 20.657C401.069 20.657 407.748 16.6937 434.518 16.6937C461.244 16.6937 472.053 20.657 511.124 20.657C550.19 20.657 593.944 9.19629 616.59 9.19629C645.914 9.19629 644.477 16.8477 726.65 20.4094C738.99 20.9426 797.915 21.4999 844.965 21.4999Z" fill="white"/>
<path d="M0.975098 21.5C11.1313 21.4436 21.2157 21.215 30.4044 20.6983C39.4936 20.1658 47.6097 19.4368 55.0569 18.6259C62.5096 17.8131 69.2823 16.9158 76.4586 16.0584C83.6127 15.2037 91.0324 14.3463 100.044 13.7274C108.979 13.0993 119.433 12.7685 129.943 12.8242C140.619 12.9179 150.14 13.5171 158.748 14.1643C175.986 15.4958 190.997 17.1385 208.053 18.4006C216.567 19.0242 225.629 19.5436 235.177 19.8095C244.626 20.08 254.754 20.0577 264.352 19.8147C273.978 19.575 282.702 19.0314 290.464 18.2873C294.406 17.9225 298.26 17.5236 302.594 17.1653C306.879 16.8051 311.932 16.5025 317.378 16.3951C322.697 16.2942 328.43 16.2818 333.638 16.496C338.824 16.6911 343.634 16.9951 347.852 17.356C356.46 18.064 363.825 18.8873 372.018 19.5599C380.09 20.2463 389.014 20.767 398.573 20.9891C408.11 21.2046 418.144 21.217 427.123 20.8057C436.162 20.4127 444.107 19.6955 451.068 18.8591C458.067 18.0214 464.298 17.0789 470.733 16.1423C477.185 15.2096 483.792 14.2586 492.113 13.4824C500.257 12.7043 510.999 12.1587 521.874 12.2498C532.727 12.2747 543.049 12.8681 550.977 13.6737C559.043 14.478 565.468 15.4428 571.787 16.3846C578.09 17.3271 584.304 18.2723 591.751 19.036C593.626 19.222 595.638 19.3844 597.573 19.5606C599.663 19.7027 601.797 19.8344 603.931 19.9667C606.22 20.0453 608.459 20.1507 610.787 20.2123C613.175 20.2359 615.525 20.283 617.946 20.2929C627.843 20.2987 637.607 20.0263 646.574 19.5239C655.614 19.0333 663.757 18.3161 672.454 17.6723C681.073 17.0232 690.848 16.4855 701.308 16.3486C711.752 16.2098 722.323 16.4901 731.722 16.9734C750.663 17.95 766.603 19.4925 784.831 20.5371C793.892 21.0552 803.673 21.4535 813.829 21.4613L844.32 21.5013L813.829 21.5412C803.534 21.5609 793.511 21.1817 784.256 20.6826C765.657 19.6746 749.32 18.1701 730.682 17.2701C721.427 16.8189 711.509 16.5693 701.662 16.7147C691.827 16.8601 682.715 17.373 674.312 18.0221C665.853 18.6646 657.659 19.4073 648.233 19.9385C638.895 20.4802 628.435 20.7887 617.98 20.7965C615.337 20.7913 612.639 20.7448 609.969 20.7179C607.348 20.6531 604.805 20.5411 602.223 20.452C599.84 20.3112 597.44 20.1671 595.124 20.0125C593.006 19.8265 590.789 19.6503 588.755 19.4532C580.738 18.6436 574.391 17.6736 568.05 16.7363C561.719 15.7991 555.395 14.8651 547.842 14.1197C540.373 13.3718 531.317 12.8635 521.686 12.8445C512.105 12.7711 502.883 13.2388 495.308 13.9619C487.629 14.6824 481.21 15.6065 474.841 16.5359C468.483 17.4686 462.191 18.4308 454.916 19.3091C447.679 20.1841 439.137 20.9773 429.019 21.4194C408.425 22.2807 385.547 21.5334 368.988 20.0701C360.491 19.3647 353.016 18.5251 344.922 17.857C340.925 17.5105 336.623 17.244 332.156 17.0717C327.706 16.8831 322.923 16.8981 318.301 16.9793C308.913 17.149 301.582 18.005 293.472 18.7451C285.427 19.5141 275.708 20.1193 265.358 20.3675C255.114 20.6197 244.388 20.6452 234.104 20.3407C223.887 20.0394 214.477 19.4774 205.797 18.8244C188.459 17.504 173.565 15.8331 156.852 14.5094C148.52 13.8636 139.458 13.2879 129.722 13.1903C119.947 13.1242 110.024 13.4209 101.382 14.0031C92.6191 14.573 85.1442 15.3963 77.874 16.2281C70.5816 17.0619 63.6154 17.9441 55.9526 18.7438C48.2954 19.5416 39.9469 20.2575 30.6808 20.7703C21.3152 21.2681 11.1258 21.4698 0.975098 21.5Z" fill="white"/>
</svg>
