<svg width="333" height="42" viewBox="0 0 333 42" fill="none" xmlns="http://www.w3.org/2000/svg">
<rect x="0.967285" width="332" height="42" rx="20" fill="#77ADED"/>
<path d="M332.839 28.6996L320.845 28.7246C316.848 28.7291 313.003 28.9785 309.436 29.3026C302.264 29.9565 295.994 30.9217 288.543 31.5329C284.846 31.8361 280.687 32.0112 276.579 31.9243C272.465 31.8385 268.619 31.5022 265.229 31.0956C261.81 30.6924 258.602 30.2436 255.047 29.9364C251.519 29.6222 247.678 29.4515 243.783 29.4552C242.831 29.4614 241.906 29.4909 240.967 29.5057C240.053 29.5446 239.17 29.6107 238.27 29.6599C237.433 29.7432 236.591 29.8252 235.769 29.9146C235.008 30.0254 234.218 30.1267 233.479 30.2436C230.554 30.7223 228.107 31.3139 225.628 31.9046C223.142 32.4945 220.613 33.0987 217.442 33.602C214.323 34.1066 210.265 34.4782 205.996 34.4934C201.718 34.55 197.495 34.2087 194.291 33.7214C191.02 33.2353 188.421 32.6397 185.883 32.0555C183.352 31.4689 180.901 30.8786 178.148 30.354C175.41 29.8301 172.287 29.3801 168.729 29.1348C165.197 28.878 161.249 28.885 157.498 29.02C153.74 29.1594 150.23 29.4851 147.055 29.9151C143.831 30.3359 140.935 30.852 137.548 31.295C135.889 31.5214 133.997 31.7114 131.957 31.834C129.908 31.9682 127.653 31.9608 125.561 31.8976C123.419 31.8303 121.431 31.6408 119.745 31.4152C118.04 31.1908 116.525 30.941 114.974 30.7125C111.923 30.2465 108.491 29.9056 104.705 29.7555C100.929 29.6033 96.9427 29.5889 93.2281 29.7588C89.4744 29.9253 85.9077 30.2502 82.5607 30.6403C75.8493 31.43 69.9447 32.4584 63.1636 33.2923C59.7753 33.6976 56.0303 34.073 51.8307 34.1316C47.6964 34.1665 43.5839 33.9593 40.0672 33.5664C36.5223 33.1787 33.6037 32.6417 30.7873 32.1068C27.9645 31.5698 25.2981 31.0083 22.3687 30.4992C19.4392 29.9918 16.2466 29.5352 12.6712 29.2017C9.05668 28.878 5.08984 28.7349 1.09473 28.6996C5.08767 28.718 9.09588 28.8448 12.7822 29.1562C16.4271 29.4774 19.7111 29.9257 22.7254 30.4249C25.7396 30.9258 28.4799 31.478 31.3506 32.0002C34.2105 32.5207 37.153 33.0364 40.5979 33.3928C43.9949 33.7579 47.9008 33.9429 51.7437 33.9015C55.5714 33.8404 59.1359 33.4798 62.4133 33.0753C68.9856 32.2467 74.8467 31.2002 81.6668 30.3737C85.0813 29.9647 88.785 29.6131 92.804 29.4244C96.8513 29.2349 101.068 29.2505 105.1 29.4088C109.172 29.5643 112.995 29.9438 116.159 30.4254C119.35 30.8889 122.233 31.4246 125.926 31.5305C127.742 31.5809 129.623 31.5904 131.374 31.4722C133.129 31.3643 134.821 31.1974 136.394 30.9804C139.575 30.5619 142.518 30.0361 145.858 29.5943C152.372 28.6783 161.373 28.2094 169.472 28.7496C173.448 29.0273 176.81 29.5237 179.655 30.0717C182.517 30.6223 184.992 31.2244 187.493 31.8086C189.996 32.3907 192.523 32.9695 195.544 33.4207C198.523 33.8736 202.153 34.1665 205.922 34.1205C209.711 34.1086 213.273 33.7903 216.211 33.3219C219.182 32.855 221.67 32.2701 224.16 31.6831C226.657 31.0965 229.149 30.4881 232.305 29.9819C233.103 29.8584 233.975 29.7485 234.808 29.632C235.719 29.5348 236.663 29.4449 237.6 29.3563C238.616 29.3006 239.616 29.2304 240.645 29.1898C241.695 29.173 242.757 29.1443 243.796 29.1406C247.909 29.1455 252.021 29.3383 255.695 29.6771C259.405 30.009 262.628 30.4742 265.955 30.8766C269.261 31.2831 272.847 31.6039 276.716 31.695C280.592 31.786 284.491 31.6297 288.134 31.3479C295.465 30.7847 301.894 29.8424 309.208 29.2115C312.848 28.8985 316.791 28.6614 320.841 28.6737L332.839 28.6996Z" fill="white"/>
<path opacity="0.6" d="M315.986 21C293.144 21 287.756 32.5147 268.775 32.5147C255.112 32.5147 241.258 23.1139 223.591 23.1139C206.74 23.1139 205.684 27.182 195.329 27.182C184.679 27.182 179.101 21.3894 162.788 21.3894C143.461 21.3894 138.733 34.5 122.039 34.5C105.345 34.5 97.984 22.2956 82.2947 22.2956C66.6053 22.2956 65.4621 24.272 51.987 24.272C38.5304 24.272 26.3038 21.3404 12.4841 21.3404C2.6821 21.3404 0.967285 21 0.967285 21C0.967285 21 2.6821 20.6596 12.4841 20.6596C26.3038 20.6596 38.5304 17.7322 51.987 17.7322C65.46 17.7322 66.6033 19.7044 82.2947 19.7044C97.9861 19.7044 105.345 7.5 122.039 7.5C138.733 7.5 143.461 20.6106 162.788 20.6106C179.103 20.6106 184.679 14.818 195.329 14.818C205.686 14.818 206.742 18.8861 223.591 18.8861C241.256 18.8861 255.11 9.48954 268.775 9.48954C287.758 9.49007 293.144 21 315.986 21Z" fill="white"/>
<path opacity="0.4" d="M332.967 20.9999C314.46 20.9999 291.281 21.5586 286.426 22.0918C254.102 25.6535 254.668 33.3049 243.133 33.3049C234.227 33.3049 217.015 21.8442 201.646 21.8442C186.279 21.8442 182.025 25.8074 171.512 25.8074C160.982 25.8074 158.352 21.8442 134.279 21.8442C110.206 21.8442 103.836 29.265 89.872 29.265C75.9098 29.265 61.3452 21.4211 44.3534 21.4211C27.3617 21.4211 0.968262 20.9999 0.968262 20.9999C0.968262 20.9999 27.3595 20.5742 44.3534 20.5742C61.3473 20.5742 75.9098 12.7362 89.872 12.7362C103.834 12.7362 110.204 20.157 134.279 20.157C158.354 20.157 160.982 16.1937 171.512 16.1937C182.025 16.1937 186.277 20.157 201.646 20.157C217.013 20.157 234.225 8.69629 243.133 8.69629C254.668 8.69629 254.102 16.3477 286.426 19.9094C291.281 20.4426 314.46 20.9999 332.967 20.9999Z" fill="white"/>
<path d="M0.970703 21.0003C4.96582 20.944 8.93265 20.7154 12.5472 20.1986C16.1226 19.6661 19.3151 18.9372 22.2446 18.1263C25.1762 17.3135 27.8404 16.4162 30.6633 15.5588C33.4775 14.7041 36.3961 13.8467 39.941 13.2278C43.4555 12.5996 47.568 12.2689 51.7023 12.3246C55.9019 12.4182 59.6469 13.0175 63.033 13.6646C69.8141 14.9962 75.7187 16.6389 82.4279 17.901C85.7771 18.5245 89.3416 19.0439 93.0975 19.3098C96.8143 19.5803 100.799 19.5581 104.574 19.3151C108.36 19.0754 111.792 18.5317 114.846 17.7877C116.396 17.4229 117.912 17.024 119.617 16.6657C121.303 16.3055 123.29 16.0029 125.433 15.8955C127.525 15.7946 129.78 15.7822 131.829 15.9963C133.869 16.1915 135.761 16.4954 137.42 16.8563C140.806 17.5643 143.703 18.3876 146.926 19.0603C150.101 19.7467 153.611 20.2674 157.372 20.4894C161.123 20.7049 165.071 20.7174 168.602 20.3061C172.158 19.9131 175.283 19.1959 178.021 18.3595C180.775 17.5218 183.226 16.5793 185.757 15.6427C188.295 14.71 190.894 13.759 194.167 12.9828C197.371 12.2047 201.596 11.6591 205.874 11.7502C210.143 11.775 214.204 12.3684 217.322 13.1741C220.495 13.9784 223.022 14.9431 225.508 15.885C227.988 16.8275 230.432 17.7726 233.361 18.5363C234.099 18.7223 234.89 18.8848 235.652 19.061C236.474 19.2031 237.313 19.3347 238.153 19.467C239.053 19.5456 239.934 19.6511 240.849 19.7126C241.789 19.7362 242.713 19.7834 243.666 19.7932C247.559 19.7991 251.399 19.5266 254.927 19.0243C258.483 18.5337 261.686 17.8165 265.107 17.1727C268.498 16.5236 272.343 15.9859 276.457 15.849C280.566 15.7101 284.724 15.9904 288.421 16.4738C295.872 17.4504 302.142 18.9928 309.312 20.0375C312.877 20.5556 316.724 20.9538 320.719 20.9617L332.713 21.0016L320.719 21.0416C316.669 21.0612 312.727 20.682 309.086 20.1829C301.77 19.1749 295.343 17.6704 288.012 16.7705C284.371 16.3192 280.47 16.0697 276.597 16.2151C272.728 16.3605 269.144 16.8733 265.838 17.5224C262.51 18.165 259.287 18.9077 255.579 19.4389C251.906 19.9805 247.791 20.289 243.679 20.2969C242.639 20.2916 241.578 20.2451 240.527 20.2183C239.497 20.1534 238.496 20.0414 237.481 19.9524C236.543 19.8115 235.599 19.6675 234.688 19.5129C233.855 19.3269 232.983 19.1507 232.183 18.9535C229.029 18.144 226.533 17.174 224.038 16.2367C221.548 15.2994 219.06 14.3655 216.089 13.6201C213.151 12.8721 209.589 12.3639 205.8 12.3449C202.031 12.2715 198.404 12.7392 195.424 13.4622C192.403 14.1827 189.878 15.1069 187.373 16.0363C184.872 16.969 182.397 17.9311 179.535 18.8094C176.688 19.6845 173.328 20.4777 169.348 20.9198C161.247 21.7811 152.248 21.0337 145.734 19.5705C142.392 18.8651 139.451 18.0254 136.267 17.3574C134.695 17.0109 133.003 16.7443 131.246 16.5721C129.495 16.3834 127.614 16.3985 125.796 16.4797C122.103 16.6493 119.219 17.5054 116.029 18.2455C112.864 19.0145 109.041 19.6196 104.97 19.8679C100.94 20.12 96.7207 20.1456 92.6756 19.841C88.6566 19.5397 84.9551 18.9778 81.5406 18.3248C74.7205 17.0043 68.8615 15.3335 62.2871 14.0098C59.0097 13.364 55.4451 12.7883 51.6153 12.6907C47.7703 12.6245 43.8665 12.9212 40.4673 13.5035C37.0203 14.0733 34.0799 14.8966 31.22 15.7284C28.3515 16.5622 25.6112 17.4445 22.5969 18.2442C19.5848 19.042 16.3009 19.7578 12.6559 20.2707C8.97177 20.7685 4.96364 20.9702 0.970703 21.0003Z" fill="white"/>
</svg>
