<svg width="56" height="57" viewBox="0 0 56 57" fill="none" xmlns="http://www.w3.org/2000/svg">
<g clip-path="url(#clip0_1537_11442)">
<path fill-rule="evenodd" clip-rule="evenodd" d="M34.8569 0.203125C35.6526 0.203125 36.4156 0.519195 36.9782 1.0818C37.5408 1.64441 37.8569 2.40748 37.8569 3.20312V7.95513H41.9969C43.5882 7.95513 45.1143 8.58727 46.2395 9.71248C47.3648 10.8377 47.9969 12.3638 47.9969 13.9551V18.0991H52.8729C53.6686 18.0991 54.4316 18.4152 54.9942 18.9778C55.5568 19.5404 55.8729 20.3035 55.8729 21.0991C55.8729 21.8948 55.5568 22.6578 54.9942 23.2204C54.4316 23.7831 53.6686 24.0991 52.8729 24.0991H47.9929V31.8191H52.8729C53.6686 31.8191 54.4316 32.1352 54.9942 32.6978C55.5568 33.2604 55.8729 34.0235 55.8729 34.8191C55.8729 35.6148 55.5568 36.3778 54.9942 36.9404C54.4316 37.5031 53.6686 37.8191 52.8729 37.8191H47.9929V41.9511C47.9929 43.5424 47.3608 45.0686 46.2355 46.1938C45.1103 47.319 43.5842 47.9511 41.9929 47.9511H37.8609V52.8831C37.8609 53.6788 37.5448 54.4418 36.9822 55.0044C36.4196 55.5671 35.6566 55.8831 34.8609 55.8831C34.0653 55.8831 33.3022 55.5671 32.7396 55.0044C32.177 54.4418 31.8609 53.6788 31.8609 52.8831V47.9511H24.1409V52.8831C24.1409 53.6788 23.8248 54.4418 23.2622 55.0044C22.6996 55.5671 21.9366 55.8831 21.1409 55.8831C20.3453 55.8831 19.5822 55.5671 19.0196 55.0044C18.457 54.4418 18.1409 53.6788 18.1409 52.8831V47.9511H14.0009C12.4096 47.9511 10.8835 47.319 9.75827 46.1938C8.63305 45.0686 8.00091 43.5424 8.00091 41.9511V37.8151H3.12891C2.33326 37.8151 1.57019 37.4991 1.00759 36.9364C0.444977 36.3738 0.128906 35.6108 0.128906 34.8151C0.128906 34.0195 0.444977 33.2564 1.00759 32.6938C1.57019 32.1312 2.33326 31.8151 3.12891 31.8151H8.00091V24.0951H3.12891C2.33326 24.0951 1.57019 23.7791 1.00759 23.2164C0.444977 22.6538 0.128906 21.8908 0.128906 21.0951C0.128906 20.2995 0.444977 19.5364 1.00759 18.9738C1.57019 18.4112 2.33326 18.0951 3.12891 18.0951H8.00091V13.9591C8.00091 12.3678 8.63305 10.8417 9.75827 9.71648C10.8835 8.59127 12.4096 7.95913 14.0009 7.95913H18.1409V3.20312C18.1409 2.40748 18.457 1.64441 19.0196 1.0818C19.5822 0.519195 20.3453 0.203125 21.1409 0.203125C21.9366 0.203125 22.6996 0.519195 23.2622 1.0818C23.8248 1.64441 24.1409 2.40748 24.1409 3.20312V7.95513H31.8609V3.20312C31.8609 2.40748 32.177 1.64441 32.7396 1.0818C33.3022 0.519195 34.0653 0.203125 34.8609 0.203125H34.8569ZM24.9729 18.3151C25.6769 15.0991 30.2529 15.0791 30.9849 18.2911L31.0169 18.4311L31.0809 18.7111C31.4588 20.309 32.2967 21.7612 33.491 22.888C34.6853 24.0147 36.1837 24.7668 37.8009 25.0511C41.1609 25.6351 41.1609 30.4511 37.8009 31.0351C36.1743 31.3213 34.6681 32.0807 33.4708 33.2183C32.2734 34.3559 31.4379 35.8213 31.0689 37.4311L30.9849 37.7951C30.2529 41.0071 25.6769 40.9831 24.9729 37.7711L24.9009 37.4551C24.5482 35.8388 23.7216 34.3642 22.5267 33.22C21.3319 32.0757 19.823 31.3136 18.1929 31.0311C14.8409 30.4471 14.8409 25.6391 18.1929 25.0551C19.8173 24.7734 21.3214 24.0154 22.5143 22.8774C23.7072 21.7393 24.5351 20.2725 24.8929 18.6631L24.9449 18.4351L24.9729 18.3151Z" fill="#1C54B5"/>
</g>
<defs>
<clipPath id="clip0_1537_11442">
<rect width="56" height="56" fill="white" transform="translate(0 0.0429688)"/>
</clipPath>
</defs>
</svg>
