<svg width="57" height="57" viewBox="0 0 57 57" fill="none" xmlns="http://www.w3.org/2000/svg">
<path d="M28.5 5.29297C15.9361 5.29297 5.75 15.4791 5.75 28.043C5.75 40.6069 15.9361 50.793 28.5 50.793C41.0639 50.793 51.25 40.6069 51.25 28.043C51.25 15.4791 41.0639 5.29297 28.5 5.29297ZM39 31.543H28.5C28.0359 31.543 27.5908 31.3586 27.2626 31.0304C26.9344 30.7022 26.75 30.2571 26.75 29.793V14.043C26.75 13.5788 26.9344 13.1337 27.2626 12.8055C27.5908 12.4773 28.0359 12.293 28.5 12.293C28.9641 12.293 29.4093 12.4773 29.7374 12.8055C30.0656 13.1337 30.25 13.5788 30.25 14.043V28.043H39C39.4641 28.043 39.9092 28.2273 40.2374 28.5555C40.5656 28.8837 40.75 29.3288 40.75 29.793C40.75 30.2571 40.5656 30.7022 40.2374 31.0304C39.9092 31.3586 39.4641 31.543 39 31.543Z" fill="#1C54B5"/>
</svg>
