<svg width="57" height="57" viewBox="0 0 57 57" fill="none" xmlns="http://www.w3.org/2000/svg">
<path d="M4.00002 28.043C4.00002 14.512 14.969 3.54297 28.5 3.54297C42.031 3.54297 53 14.512 53 28.043C53 41.574 42.031 52.543 28.5 52.543C24.356 52.543 20.4465 51.5122 17.02 49.6922L7.34602 52.4432C6.89641 52.5707 6.42093 52.5758 5.96869 52.458C5.51644 52.3403 5.10383 52.1039 4.77347 51.7734C4.44311 51.4428 4.20698 51.0301 4.08947 50.5778C3.97196 50.1255 3.97733 49.65 4.10502 49.2005L6.85602 39.5282C4.97571 35.9923 3.99485 32.0478 4.00002 28.043ZM18 22.793C18 23.2571 18.1844 23.7022 18.5126 24.0304C18.8408 24.3586 19.2859 24.543 19.75 24.543H37.25C37.7141 24.543 38.1593 24.3586 38.4875 24.0304C38.8157 23.7022 39 23.2571 39 22.793C39 22.3288 38.8157 21.8837 38.4875 21.5555C38.1593 21.2273 37.7141 21.043 37.25 21.043H19.75C19.2859 21.043 18.8408 21.2273 18.5126 21.5555C18.1844 21.8837 18 22.3288 18 22.793ZM19.75 31.543C19.2859 31.543 18.8408 31.7273 18.5126 32.0555C18.1844 32.3837 18 32.8288 18 33.293C18 33.7571 18.1844 34.2022 18.5126 34.5304C18.8408 34.8586 19.2859 35.043 19.75 35.043H30.25C30.7142 35.043 31.1593 34.8586 31.4875 34.5304C31.8156 34.2022 32 33.7571 32 33.293C32 32.8288 31.8156 32.3837 31.4875 32.0555C31.1593 31.7273 30.7142 31.543 30.25 31.543H19.75Z" fill="#1C54B5"/>
</svg>
