<svg width="57" height="57" viewBox="0 0 57 57" fill="none" xmlns="http://www.w3.org/2000/svg">
<path fill-rule="evenodd" clip-rule="evenodd" d="M42.8854 6.49364L43.4804 6.5683C45.053 6.7853 47.1344 7.07697 48.3127 8.25764C49.2787 9.2213 49.6497 10.7893 49.8714 12.1893L50.002 13.09C50.296 15.2133 50.373 17.9946 49.8714 21.084C48.882 27.181 45.6364 34.4563 37.486 40.089C37.4417 40.5276 37.4394 40.971 37.4487 41.4143L37.472 42.077C37.5094 43.0966 37.5467 44.1163 37.262 45.1056C36.8187 46.6456 35.239 47.6606 33.762 48.3886L33.0387 48.7316L32.1054 49.1423C30.36 49.8843 28.0034 50.645 26.5264 49.1656C25.6397 48.2813 25.2757 46.984 24.9794 45.6936L24.8697 45.2106C24.7443 44.6012 24.5886 43.9985 24.403 43.4046C24.2864 43.0624 24.1604 42.7163 24.025 42.3663C23.8761 42.5492 23.718 42.7244 23.5514 42.8913C22.7464 43.6963 21.5447 44.2586 20.5554 44.653C19.475 45.08 18.2524 45.4533 17.1207 45.7613L16.5397 45.9153L15.4267 46.193L14.4187 46.4263L13.2124 46.683L12.4587 46.83C12.0828 46.8996 11.6956 46.8767 11.3306 46.7633C10.9655 46.6499 10.6335 46.4494 10.3632 46.1791C10.0929 45.9088 9.89243 45.5768 9.77904 45.2117C9.66565 44.8467 9.64276 44.4595 9.71236 44.0836L9.91302 43.078L10.2724 41.4493L10.5617 40.2593L10.781 39.4193C11.089 38.29 11.4624 37.0673 11.8917 35.9893C12.2837 34.9976 12.846 33.796 13.651 32.991L13.8377 32.8113L13.6884 32.7506C13.2895 32.5992 12.8856 32.4614 12.4774 32.3376L11.831 32.1393C10.2117 31.6493 8.48036 31.122 7.40469 30.044C6.09802 28.7396 6.53902 26.754 7.16902 25.102L7.42569 24.4626L7.83869 23.5293L8.18169 22.806C8.90969 21.3313 9.92469 19.7516 11.4647 19.3083C12.2814 19.075 13.1307 19.061 13.9847 19.0843L14.498 19.1006C15.1654 19.124 15.8304 19.1496 16.4814 19.0866C22.114 10.934 29.3894 7.6883 35.4864 6.69897C37.9322 6.29781 40.421 6.22874 42.8854 6.49364ZM19.9907 36.0686C19.6236 35.7965 19.1846 35.6382 18.7284 35.6133C18.2721 35.5885 17.8186 35.6981 17.424 35.9286L17.1674 36.1013L16.9504 36.295L16.6587 36.6636C16.052 37.541 15.7067 38.7543 15.4384 39.8883L15.1864 40.9803L15.0674 41.4773L15.513 41.37L16.4884 41.146C17.837 40.831 19.3327 40.4226 20.252 39.5943C20.6517 39.1948 20.8929 38.6638 20.9307 38.0999C20.9684 37.536 20.8002 36.9776 20.4574 36.5283L20.266 36.309L20.21 36.2553L19.9907 36.0686ZM36.751 19.796C36.3177 19.3625 35.8033 19.0187 35.2372 18.7841C34.671 18.5494 34.0642 18.4286 33.4513 18.4285C32.8385 18.4284 32.2316 18.549 31.6654 18.7834C31.0991 19.0179 30.5846 19.3615 30.1512 19.7948C29.7178 20.2281 29.3739 20.7425 29.1393 21.3086C28.9047 21.8748 28.7838 22.4816 28.7837 23.0945C28.7836 23.7073 28.9042 24.3142 29.1387 24.8804C29.3731 25.4467 29.7167 25.9612 30.15 26.3946C31.0251 27.27 32.212 27.7619 33.4497 27.7621C34.6874 27.7623 35.8745 27.2708 36.7499 26.3958C37.6252 25.5208 38.1171 24.3338 38.1173 23.0961C38.1175 21.8584 37.6261 20.6713 36.751 19.796Z" fill="#1C54B5"/>
</svg>
