<svg width="57" height="57" viewBox="0 0 57 57" fill="none" xmlns="http://www.w3.org/2000/svg">
<path d="M21.4992 30.3782C20.8381 30.3782 20.2843 30.1542 19.8379 29.7062C19.3914 29.2582 19.1674 28.7044 19.1659 28.0448V13.6365L14.7909 18.0115C14.3631 18.4393 13.8288 18.6532 13.1879 18.6532C12.547 18.6532 11.9924 18.4393 11.5242 18.0115C11.0576 17.5448 10.8242 16.991 10.8242 16.3502C10.8242 15.7093 11.0576 15.1547 11.5242 14.6865L19.8659 6.34483C20.0992 6.11149 20.352 5.94583 20.6242 5.84783C20.8964 5.74983 21.1881 5.70161 21.4992 5.70316C21.8103 5.70472 22.102 5.75294 22.3742 5.84783C22.6464 5.94272 22.8992 6.10838 23.1326 6.34483L31.5326 14.7448C31.9992 15.2115 32.2224 15.7559 32.2022 16.3782C32.182 17.0004 31.9393 17.5448 31.4742 18.0115C31.0076 18.4393 30.4631 18.6633 29.8409 18.6835C29.2187 18.7037 28.6742 18.4797 28.2076 18.0115L23.8326 13.6365V28.0448C23.8326 28.7059 23.6086 29.2605 23.1606 29.7085C22.7126 30.1565 22.1588 30.3797 21.4992 30.3782ZM35.4992 50.3865C35.1881 50.3865 34.8964 50.3383 34.6242 50.2418C34.352 50.1454 34.0992 49.9797 33.8659 49.7448L25.4659 41.3448C24.9992 40.8782 24.776 40.3337 24.7962 39.7115C24.8164 39.0893 25.0591 38.5448 25.5242 38.0782C25.9909 37.6504 26.5353 37.4264 27.1576 37.4062C27.7798 37.3859 28.3242 37.6099 28.7909 38.0782L33.1659 42.4532V28.0448C33.1659 27.3837 33.3899 26.8299 33.8379 26.3835C34.2859 25.9371 34.8397 25.7131 35.4992 25.7115C36.1588 25.7099 36.7133 25.9339 37.1629 26.3835C37.6124 26.8331 37.8357 27.3868 37.8326 28.0448V42.4532L42.2076 38.0782C42.6353 37.6504 43.1704 37.4365 43.8129 37.4365C44.4553 37.4365 45.0091 37.6504 45.4742 38.0782C45.9409 38.5448 46.1742 39.0994 46.1742 39.7418C46.1742 40.3843 45.9409 40.938 45.4742 41.4032L37.1326 49.7448C36.8992 49.9782 36.6464 50.1438 36.3742 50.2418C36.102 50.3398 35.8103 50.3881 35.4992 50.3865Z" fill="#1C54B5"/>
</svg>
