<svg width="56" height="57" viewBox="0 0 56 57" fill="none" xmlns="http://www.w3.org/2000/svg">
<path d="M3.5 15.793C3.5 13.4723 4.42187 11.2467 6.06282 9.60578C7.70376 7.96484 9.92936 7.04297 12.25 7.04297H43.75C46.0706 7.04297 48.2962 7.96484 49.9372 9.60578C51.5781 11.2467 52.5 13.4723 52.5 15.793V40.293C52.5 42.6136 51.5781 44.8392 49.9372 46.4802C48.2962 48.1211 46.0706 49.043 43.75 49.043H12.25C9.92936 49.043 7.70376 48.1211 6.06282 46.4802C4.42187 44.8392 3.5 42.6136 3.5 40.293V15.793ZM17.682 23.514C19.3655 23.339 20.6675 23.64 21.133 23.8745C21.3393 23.9857 21.5658 24.0544 21.7991 24.0764C22.0325 24.0984 22.2678 24.0734 22.4913 24.0027C22.7148 23.932 22.9217 23.8172 23.1 23.665C23.2782 23.5128 23.4241 23.3264 23.5289 23.1168C23.6337 22.9072 23.6953 22.6786 23.7101 22.4447C23.7249 22.2108 23.6926 21.9763 23.6151 21.7552C23.5375 21.534 23.4164 21.3307 23.2587 21.1572C23.1011 20.9838 22.9103 20.8438 22.6975 20.7455C21.469 20.1295 19.4495 19.811 17.318 20.035C13.958 20.385 10.5 23.304 10.5 28.0745C10.5 32.922 14.189 36.1245 18.55 36.1245C20.58 36.1245 22.4 35.169 23.4395 34.189C24.3565 33.321 24.5 32.166 24.5 31.4485V28.0745C24.5 27.6103 24.3156 27.1652 23.9874 26.837C23.6592 26.5088 23.2141 26.3245 22.75 26.3245H19.9255C19.4614 26.3245 19.0163 26.5088 18.6881 26.837C18.3599 27.1652 18.1755 27.6103 18.1755 28.0745C18.1755 28.5386 18.3599 28.9837 18.6881 29.3119C19.0163 29.6401 19.4614 29.8245 19.9255 29.8245H21V31.445C21.0006 31.5294 20.9936 31.6138 20.979 31.697C20.2965 32.2698 19.4406 32.5954 18.55 32.621C15.9915 32.621 14 30.857 14 28.071C14 25.2115 15.9845 23.6925 17.682 23.514ZM31.5 21.778C31.5 21.3138 31.3156 20.8687 30.9874 20.5405C30.6593 20.2123 30.2141 20.028 29.75 20.028C29.2859 20.028 28.8407 20.2123 28.5126 20.5405C28.1844 20.8687 28 21.3138 28 21.778V34.378C28 34.8421 28.1844 35.2872 28.5126 35.6154C28.8407 35.9436 29.2859 36.128 29.75 36.128C30.2141 36.128 30.6593 35.9436 30.9874 35.6154C31.3156 35.2872 31.5 34.8421 31.5 34.378V21.778ZM36.75 20.028C36.2859 20.028 35.8408 20.2123 35.5126 20.5405C35.1844 20.8687 35 21.3138 35 21.778V34.378C35 34.8421 35.1844 35.2872 35.5126 35.6154C35.8408 35.9436 36.2859 36.128 36.75 36.128C37.2141 36.128 37.6592 35.9436 37.9874 35.6154C38.3156 35.2872 38.5 34.8421 38.5 34.378V29.8105L42.0105 29.7895C42.4746 29.7867 42.9186 29.5996 43.2449 29.2695C43.5711 28.9393 43.7528 28.4931 43.75 28.029C43.7472 27.5648 43.5602 27.1208 43.23 26.7946C42.8999 26.4684 42.4536 26.2867 41.9895 26.2895L38.5 26.314V23.5245H43.75C44.2141 23.5245 44.6592 23.3401 44.9874 23.0119C45.3156 22.6837 45.5 22.2386 45.5 21.7745C45.5 21.3103 45.3156 20.8652 44.9874 20.537C44.6592 20.2088 44.2141 20.0245 43.75 20.0245L36.75 20.028Z" fill="#1C54B5"/>
</svg>
